{
.appVersion = "1141";
DisplayStrings = (
"/less_slash"
);
copyright = "© 2006 Microsoft Corporation. All rights reserved.";
customParameters = (
{
name = licenseURL;
value = "http://www.microsoft.com/typography/fonts/";
},
{
name = license;
value = "You may use this font as permitted by the EULA for the product in which this font is included to display and print content. You may only (i) embed this font in content as permitted by the embedding restrictions included in this font; and (ii) temporarily download this font to a printer or other output device to help print content.";
},
{
name = vendorID;
value = "MS  ";
},
{
name = panose;
value = (
3,
15,
7,
2,
3,
3,
2,
2,
2,
4
);
},
{
name = unicodeRanges;
value = (
0,
1,
2,
7,
9
);
},
{
name = codePageRanges;
value = (
1252,
1250,
1251,
1253,
1254,
1257
);
},
{
name = glyphOrder;
value = (
.notdef,
glyph0,
glyph1,
space,
exclam,
quotedbl,
numbersign,
dollar,
percent,
ampersand,
quotesingle,
parenleft,
parenright,
asterisk,
plus,
comma,
hyphen,
period,
slash,
zero,
one,
two,
three,
four,
five,
six,
seven,
eight,
nine,
colon,
semicolon,
less,
equal,
greater,
question,
at,
A,
B,
C,
D,
E,
F,
G,
H,
I,
J,
K,
L,
M,
N,
O,
P,
Q,
R,
S,
T,
U,
V,
W,
X,
Y,
Z,
bracketleft,
backslash,
bracketright,
asciicircum,
underscore,
grave,
a,
b,
c,
d,
e,
f,
g,
h,
i,
j,
k,
l,
m,
n,
o,
p,
q,
r,
s,
t,
u,
v,
w,
x,
y,
z,
braceleft,
bar,
braceright,
asciitilde,
Adieresis,
Aring,
Ccedilla,
Eacute,
Ntilde,
Odieresis,
Udieresis,
aacute,
agrave,
acircumflex,
adieresis,
atilde,
aring,
ccedilla,
eacute,
egrave,
ecircumflex,
edieresis,
iacute,
igrave,
icircumflex,
idieresis,
ntilde,
oacute,
ograve,
ocircumflex,
odieresis,
otilde,
uacute,
ugrave,
ucircumflex,
udieresis,
dagger,
degree,
cent,
sterling,
section,
bullet,
paragraph,
germandbls,
registered,
copyright,
trademark,
acute,
dieresis,
notequal,
AE,
Oslash,
infinity,
plusminus,
lessequal,
greaterequal,
yen,
uni00B5,
partialdiff,
summation,
product,
pi,
integral,
ordfeminine,
ordmasculine,
uni03A9,

glyphs = (
{
glyphname = glyph0;
lastChange = "2018-09-24 13:43:15 +0000";
layers = (
{
hints = (
{
horizontal = 1;
place = "{0, 128}";
type = Stem;
},
{
horizontal = 1;
place = "{1510, 128}";
type = Stem;
},
{
place = "{128, 128}";
type = Stem;
},
{
place = "{768, 128}";
type = Stem;
}
);
layerId = "10ADC4BD-3987-48B4-8AAC-8E23B2BCD4A9";
paths = (
{
closed = 1;
nodes = (
"128 0 LINE",
"896 0 LINE",
"896 1638 LINE",
"128 1638 LINE"
);
},
{
closed = 1;
nodes = (
"256 128 LINE",
"256 1510 LINE",
"768 1510 LINE",
"768 128 LINE"
);
}
);
width = 1024;
}
);
note = glyph0;
},
{
glyphname = exclam;
lastChange = "2018-09-24 13:43:15 +0000";
layers = (
{
hints = (
{
horizontal = 1;
place = "{-66, 1671}";
type = Stem;
},
{
place = "{148, 183}";
type = Stem;
}
);
layerId = "10ADC4BD-3987-48B4-8AAC-8E23B2BCD4A9";
paths = (
{
closed = 1;
nodes = (
"331 1516 LINE SMOOTH",
"331 1575 OFFCURVE",
"301 1605 OFFCURVE",
"242 1605 CURVE SMOOTH",
"183 1605 OFFCURVE",
"153 1575 OFFCURVE",
"153 1516 CURVE SMOOTH",
"153 1419 OFFCURVE",
"152 1275 OFFCURVE",
"151 1082 CURVE SMOOTH",
"149 889 OFFCURVE",
"148 744 OFFCURVE",
"148 647 CURVE SMOOTH",
"148 620 OFFCURVE",
"149 580 OFFCURVE",
"151 526 CURVE SMOOTH",
"152 471 OFFCURVE",
"153 430 OFFCURVE",
"153 403 CURVE SMOOTH",
"153 344 OFFCURVE",
"183 314 OFFCURVE",
"242 314 CURVE SMOOTH",
"301 314 OFFCURVE",
"331 344 OFFCURVE",
"331 403 CURVE SMOOTH"
);
},
{
closed = 1;
nodes = (
"332 50 OFFCURVE",
"319 79 OFFCURVE",
"294 112 CURVE SMOOTH",
"267 147 OFFCURVE",
"240 164 OFFCURVE",
"214 164 CURVE SMOOTH",
"189 164 OFFCURVE",
"168 155 OFFCURVE",
"149 138 CURVE SMOOTH",
"130 121 OFFCURVE",
"120 100 OFFCURVE",
"120 76 CURVE SMOOTH",
"120 49 OFFCURVE",
"133 19 OFFCURVE",
"159 -14 CURVE SMOOTH",
"186 -49 OFFCURVE",
"212 -66 OFFCURVE",
"239 -66 CURVE SMOOTH",
"263 -66 OFFCURVE",
"285 -57 OFFCURVE",
"304 -40 CURVE SMOOTH",
"323 -22 OFFCURVE",
"332 -1 OFFCURVE",
"332 23 CURVE SMOOTH"
);
}
);
width = 487;
}
);
note = exclam;
unicode = 0021;
},
{
glyphname = quotedbl;
lastChange = "2018-09-24 13:43:15 +0000";
layers = (
{
hints = (
{
horizontal = 1;
place = "{928, 660}";
type = Stem;
},
{
place = "{116, 178}";
type = Stem;
},
{
place = "{498.5, 182.5}";
type = Stem;
}
);
layerId = "10ADC4BD-3987-48B4-8AAC-8E23B2BCD4A9";
paths = (
{
closed = 1;
nodes = (
"294 1159 OFFCURVE",
"295 1223 OFFCURVE",
"297 1308 CURVE SMOOTH",
"299 1393 OFFCURVE",
"300 1456 OFFCURVE",
"300 1499 CURVE SMOOTH",
"300 1525 OFFCURVE",
"292 1546 OFFCURVE",
"275 1563 CURVE SMOOTH",
"258 1580 OFFCURVE",
"237 1588 OFFCURVE",
"211 1588 CURVE SMOOTH",
"185 1588 OFFCURVE",
"164 1580 OFFCURVE",
"147 1563 CURVE SMOOTH",
"130 1546 OFFCURVE",
"122 1525 OFFCURVE",
"122 1499 CURVE SMOOTH",
"122 1455 OFFCURVE",
"121 1389 OFFCURVE",
"119 1301 CURVE SMOOTH",
"117 1213 OFFCURVE",
"116 1147 OFFCURVE",
"116 1103 CURVE SMOOTH",
"116 989 OFFCURVE",
"148 932 OFFCURVE",
"212 932 CURVE SMOOTH",
"237 932 OFFCURVE",
"259 940 OFFCURVE",
"277 957 CURVE SMOOTH",
"295 973 OFFCURVE",
"304 993 OFFCURVE",
"304 1018 CURVE SMOOTH",
"304 1029 OFFCURVE",
"302 1045 OFFCURVE",
"299 1067 CURVE SMOOTH",
"296 1088 OFFCURVE",
"294 1105 OFFCURVE",
"294 1116 CURVE SMOOTH"
);
},
{
closed = 1;
nodes = (
"687 1520 OFFCURVE",
"679 1542 OFFCURVE",
"662 1559 CURVE SMOOTH",
"645 1576 OFFCURVE",
"624 1584 OFFCURVE",
"598 1584 CURVE SMOOTH",
"557 1584 OFFCURVE",
"530 1564 OFFCURVE",
"516 1524 CURVE SMOOTH",
"509 1503 OFFCURVE",
"504 1466 OFFCURVE",
"503 1413 CURVE SMOOTH",
"494 1016 LINE SMOOTH",
"493 991 OFFCURVE",
"502 970 OFFCURVE",
"519 953 CURVE SMOOTH",
"536 936 OFFCURVE",
"558 928 OFFCURVE",
"583 928 CURVE SMOOTH",
"641 928 OFFCURVE",
"671 958 OFFCURVE",
"672 1018 CURVE SMOOTH",
"681 1408 LINE SMOOTH",
"681 1417 OFFCURVE",
"682 1431 OFFCURVE",
"684 1450 CURVE SMOOTH",
"686 1469 OFFCURVE",
"687 1484 OFFCURVE",
"687 1495 CURVE SMOOTH"
);
}
);
width = 869;
}
);
note = quotedbl;
unicode = 0022;
},
{
glyphname = numbersign;
lastChange = "2018-09-24 13:43:15 +0000";
layers = (
{
hints = (
{
horizontal = 1;
place = "{394, 183}";
type = Stem;
},
{
horizontal = 1;
place = "{992, 176}";
type = Stem;
},
{
place = "{32, 1674}";
type = Stem;
}
);
layerId = "10ADC4BD-3987-48B4-8AAC-8E23B2BCD4A9";
paths = (
{
closed = 1;
nodes = (
"552 577 LINE",
"677 992 LINE",
"1165 992 LINE",
"1052 577 LINE"
);
},
{
closed = 1;
nodes = (
"365 577 LINE",
"136 577 LINE SMOOTH",
"109 577 OFFCURVE",
"85 570 OFFCURVE",
"66 556 CURVE SMOOTH",
"43 540 OFFCURVE",
"32 519 OFFCURVE",
"32 493 CURVE SMOOTH",
"32 427 OFFCURVE",
"60 394 OFFCURVE",
"115 394 CURVE SMOOTH",
"306 394 LINE",
"283 320 OFFCURVE",
"259 246 OFFCURVE",
"236 171 CURVE SMOOTH",
"221 122 OFFCURVE",
"213 84 OFFCURVE",
"213 58 CURVE SMOOTH",
"213 5 OFFCURVE",
"240 -21 OFFCURVE",
"293 -21 CURVE SMOOTH",
"339 -21 OFFCURVE",
"372 3 OFFCURVE",
"391 50 CURVE",
"441 201 OFFCURVE",
"476 316 OFFCURVE",
"496 394 CURVE",
"996 394 LINE",
"994 385 OFFCURVE",
"978 328 OFFCURVE",
"947 223 CURVE SMOOTH",
"925 148 OFFCURVE",
"914 90 OFFCURVE",
"914 51 CURVE SMOOTH",
"914 -2 OFFCURVE",
"941 -28 OFFCURVE",
"996 -28 CURVE SMOOTH",
"1053 -28 OFFCURVE",
"1090 4 OFFCURVE",
"1108 69 CURVE SMOOTH",
"1198 394 LINE",
"1520 394 LINE SMOOTH",
"1578 394 OFFCURVE",
"1607 425 OFFCURVE",
"1607 486 CURVE SMOOTH",
"1607 526 OFFCURVE",
"1590 553 OFFCURVE",
"1555 566 CURVE SMOOTH",
"1535 573 OFFCURVE",
"1501 577 OFFCURVE",
"1452 577 CURVE SMOOTH",
"1248 577 LINE",
"1354 992 LINE",
"1500 992 LINE SMOOTH",
"1510 992 OFFCURVE",
"1526 991 OFFCURVE",
"1547 990 CURVE SMOOTH",
"1568 989 OFFCURVE",
"1583 988 OFFCURVE",
"1593 988 CURVE SMOOTH",
"1668 988 OFFCURVE",
"1706 1023 OFFCURVE",
"1706 1093 CURVE SMOOTH",
"1706 1143 OFFCURVE",
"1672 1168 OFFCURVE",
"1604 1168 CURVE SMOOTH",
"1409 1168 LINE",
"1464 1343 OFFCURVE",
"1492 1453 OFFCURVE",
"1492 1498 CURVE SMOOTH",
"1492 1550 OFFCURVE",
"1464 1576 OFFCURVE",
"1408 1576 CURVE SMOOTH",
"1360 1576 OFFCURVE",
"1327 1548 OFFCURVE",
"1310 1491 CURVE SMOOTH",
"1271 1356 OFFCURVE",
"1240 1249 OFFCURVE",
"1217 1168 CURVE",
"732 1168 LINE",
"737 1189 OFFCURVE",
"754 1253 OFFCURVE",
"783 1359 CURVE SMOOTH",
"800 1420 OFFCURVE",
"809 1464 OFFCURVE",
"809 1491 CURVE SMOOTH",
"809 1512 OFFCURVE",
"802 1532 OFFCURVE",
"788 1550 CURVE",
"773 1567 OFFCURVE",
"755 1576 OFFCURVE",
"733 1576 CURVE SMOOTH",
"674 1576 OFFCURVE",
"635 1545 OFFCURVE",
"616 1484 CURVE",
"581 1351 OFFCURVE",
"554 1245 OFFCURVE",
"537 1168 CURVE",
"273 1168 LINE SMOOTH",
"174 1168 OFFCURVE",
"125 1143 OFFCURVE",
"125 1092 CURVE SMOOTH",
"125 1025 OFFCURVE",
"157 992 OFFCURVE",
"220 992 CURVE SMOOTH",
"487 992 LINE"
);
}
);
width = 1726;
}
);
note = numbersign;
unicode = 0023;
},
{
glyphname = dollar;
lastChange = "2018-09-24 13:43:15 +0000";
layers = (
{
hints = (
{
horizontal = 1;
place = "{-53, 188}";
type = Stem;
},
{
horizontal = 1;
place = "{1278, 189}";
type = Stem;
},
{
place = "{227, 217}";
type = Stem;
},
{
place = "{643, 178}";
type = Stem;
},
{
place = "{1077, 204}";
type = Stem;
}
);
layerId = "10ADC4BD-3987-48B4-8AAC-8E23B2BCD4A9";
paths = (
{
closed = 1;
nodes = (
"643 887 LINE",
"510 907 OFFCURVE",
"444 949 OFFCURVE",
"444 1014 CURVE SMOOTH",
"444 1119 OFFCURVE",
"510 1196 OFFCURVE",
"643 1246 CURVE"
);
},
{
closed = 1;
nodes = (
"821 676 LINE",
"992 631 OFFCURVE",
"1077 551 OFFCURVE",
"1077 435 CURVE SMOOTH",
"1077 373 OFFCURVE",
"1051 315 OFFCURVE",
"998 262 CURVE SMOOTH",
"951 215 OFFCURVE",
"892 180 OFFCURVE",
"821 156 CURVE"
);
},
{
closed = 1;
nodes = (
"821 1636 LINE SMOOTH",
"821 1693 OFFCURVE",
"792 1721 OFFCURVE",
"735 1721 CURVE SMOOTH",
"709 1721 OFFCURVE",
"687 1712 OFFCURVE",
"670 1695 CURVE SMOOTH",
"652 1678 OFFCURVE",
"643 1656 OFFCURVE",
"643 1630 CURVE SMOOTH",
"643 1438 LINE",
"530 1404 OFFCURVE",
"434 1350 OFFCURVE",
"355 1275 CURVE SMOOTH",
"270 1194 OFFCURVE",
"227 1108 OFFCURVE",
"227 1017 CURVE SMOOTH",
"227 915 OFFCURVE",
"274 835 OFFCURVE",
"367 778 CURVE SMOOTH",
"442 731 OFFCURVE",
"532 706 OFFCURVE",
"635 702 CURVE",
"643 702 LINE",
"643 135 LINE",
"551 139 OFFCURVE",
"478 154 OFFCURVE",
"425 181 CURVE SMOOTH",
"403 192 OFFCURVE",
"371 216 OFFCURVE",
"328 253 CURVE SMOOTH",
"299 278 OFFCURVE",
"269 290 OFFCURVE",
"238 290 CURVE SMOOTH",
"183 290 OFFCURVE",
"155 260 OFFCURVE",
"155 200 CURVE SMOOTH",
"155 36 OFFCURVE",
"318 -48 OFFCURVE",
"643 -53 CURVE",
"643 -308 LINE SMOOTH",
"643 -367 OFFCURVE",
"672 -396 OFFCURVE",
"731 -396 CURVE SMOOTH",
"757 -396 OFFCURVE",
"779 -388 OFFCURVE",
"796 -371 CURVE SMOOTH",
"813 -354 OFFCURVE",
"821 -332 OFFCURVE",
"821 -306 CURVE SMOOTH",
"821 -40 LINE",
"953 -15 OFFCURVE",
"1060 36 OFFCURVE",
"1142 113 CURVE SMOOTH",
"1235 201 OFFCURVE",
"1281 312 OFFCURVE",
"1281 446 CURVE SMOOTH",
"1281 555 OFFCURVE",
"1243 649 OFFCURVE",
"1167 726 CURVE SMOOTH",
"1084 809 OFFCURVE",
"968 858 OFFCURVE",
"821 871 CURVE",
"821 1278 LINE",
"857 1279 OFFCURVE",
"909 1272 OFFCURVE",
"976 1258 CURVE SMOOTH",
"1043 1243 OFFCURVE",
"1089 1236 OFFCURVE",
"1116 1236 CURVE SMOOTH",
"1175 1236 OFFCURVE",
"1205 1265 OFFCURVE",
"1205 1324 CURVE SMOOTH",
"1205 1369 OFFCURVE",
"1151 1405 OFFCURVE",
"1044 1434 CURVE SMOOTH",
"962 1456 OFFCURVE",
"889 1467 OFFCURVE",
"825 1467 CURVE SMOOTH",
"821 1467 LINE"
);
}
);
width = 1420;
}
);
note = dollar;
unicode = 0024;
},
{
glyphname = percent;
lastChange = "2018-09-24 13:43:15 +0000";
layers = (
{
hints = (
{
horizontal = 1;
place = "{-19, 167}";
type = Stem;
},
{
horizontal = 1;
place = "{464, 168}";
type = Stem;
},
{
horizontal = 1;
place = "{1041, 168}";
type = Stem;
},
{
horizontal = 1;
place = "{1474, 168}";
type = Stem;
},
{
place = "{147, 167}";
type = Stem;
},
{
place = "{591, 168}";
type = Stem;
},
{
place = "{940, 168}";
type = Stem;
},
{
place = "{1441, 168}";
type = Stem;
}
);
layerId = "10ADC4BD-3987-48B4-8AAC-8E23B2BCD4A9";
paths = (
{
closed = 1;
nodes = (
"525 1041 OFFCURVE",
"596 1064 OFFCURVE",
"657 1110 CURVE SMOOTH",
"725 1160 OFFCURVE",
"759 1226 OFFCURVE",
"759 1307 CURVE SMOOTH",
"759 1404 OFFCURVE",
"732 1484 OFFCURVE",
"677 1546 CURVE SMOOTH",
"620 1610 OFFCURVE",
"543 1642 OFFCURVE",
"446 1642 CURVE SMOOTH",
"380 1642 OFFCURVE",
"314 1614 OFFCURVE",
"249 1557 CURVE SMOOTH",
"181 1498 OFFCURVE",
"147 1435 OFFCURVE",
"147 1370 CURVE SMOOTH",
"147 1276 OFFCURVE",
"172 1199 OFFCURVE",
"222 1138 CURVE SMOOTH",
"276 1073 OFFCURVE",
"350 1041 OFFCURVE",
"443 1041 CURVE SMOOTH"
);
},
{
closed = 1;
nodes = (
"1246 1487 OFFCURVE",
"1252 1503 OFFCURVE",
"1252 1518 CURVE SMOOTH",
"1252 1541 OFFCURVE",
"1243 1561 OFFCURVE",
"1226 1578 CURVE SMOOTH",
"1208 1595 OFFCURVE",
"1188 1603 OFFCURVE",
"1165 1603 CURVE SMOOTH",
"1143 1603 OFFCURVE",
"1122 1592 OFFCURVE",
"1101 1569 CURVE SMOOTH",
"1071 1536 OFFCURVE",
"1038 1476 OFFCURVE",
"1002 1387 CURVE",
"732 787 LINE SMOOTH",
"706 726 OFFCURVE",
"650 609 OFFCURVE",
"564 438 CURVE SMOOTH",
"491 293 OFFCURVE",
"439 175 OFFCURVE",
"406 85 CURVE SMOOTH",
"402 73 OFFCURVE",
"400 62 OFFCURVE",
"400 52 CURVE SMOOTH",
"400 29 OFFCURVE",
"409 9 OFFCURVE",
"427 -7 CURVE SMOOTH",
"444 -22 OFFCURVE",
"464 -30 OFFCURVE",
"486 -30 CURVE SMOOTH",
"517 -30 OFFCURVE",
"542 -12 OFFCURVE",
"561 23 CURVE",
"608 123 OFFCURVE",
"641 199 OFFCURVE",
"662 250 CURVE",
"886 722 LINE",
"1084 1147 LINE",
"1155 1309 LINE SMOOTH",
"1183 1375 OFFCURVE",
"1209 1428 OFFCURVE",
"1234 1468 CURVE SMOOTH"
);
},
{
closed = 1;
nodes = (
"1362 -19 OFFCURVE",
"1446 15 OFFCURVE",
"1511 83 CURVE SMOOTH",
"1576 151 OFFCURVE",
"1609 236 OFFCURVE",
"1609 338 CURVE SMOOTH",
"1609 427 OFFCURVE",
"1571 499 OFFCURVE",
"1496 556 CURVE SMOOTH",
"1428 607 OFFCURVE",
"1349 632 OFFCURVE",
"1258 632 CURVE SMOOTH",
"1161 632 OFFCURVE",
"1083 597 OFFCURVE",
"1024 528 CURVE SMOOTH",
"968 463 OFFCURVE",
"940 382 OFFCURVE",
"940 283 CURVE SMOOTH",
"940 192 OFFCURVE",
"971 119 OFFCURVE",
"1034 62 CURVE SMOOTH",
"1094 8 OFFCURVE",
"1169 -19 OFFCURVE",
"1260 -19 CURVE SMOOTH"
);
},
{
closed = 1;
nodes = (
"492 1474 OFFCURVE",
"529 1460 OFFCURVE",
"554 1433 CURVE SMOOTH",
"579 1405 OFFCURVE",
"591 1363 OFFCURVE",
"591 1307 CURVE SMOOTH",
"591 1276 OFFCURVE",
"574 1252 OFFCURVE",
"541 1233 CURVE SMOOTH",
"512 1217 OFFCURVE",
"479 1209 OFFCURVE",
"443 1209 CURVE SMOOTH",
"400 1209 OFFCURVE",
"368 1223 OFFCURVE",
"347 1250 CURVE SMOOTH",
"325 1277 OFFCURVE",
"314 1317 OFFCURVE",
"314 1370 CURVE SMOOTH",
"314 1397 OFFCURVE",
"328 1422 OFFCURVE",
"357 1444 CURVE SMOOTH",
"384 1464 OFFCURVE",
"412 1474 OFFCURVE",
"443 1474 CURVE SMOOTH"
);
},
{
closed = 1;
nodes = (
"1303 464 OFFCURVE",
"1343 454 OFFCURVE",
"1379 433 CURVE SMOOTH",
"1420 408 OFFCURVE",
"1441 377 OFFCURVE",
"1441 338 CURVE SMOOTH",
"1441 275 OFFCURVE",
"1428 227 OFFCURVE",
"1402 196 CURVE SMOOTH",
"1375 164 OFFCURVE",
"1335 148 OFFCURVE",
"1282 148 CURVE SMOOTH",
"1224 148 OFFCURVE",
"1181 159 OFFCURVE",
"1152 182 CURVE SMOOTH",
"1123 205 OFFCURVE",
"1108 238 OFFCURVE",
"1108 283 CURVE SMOOTH",
"1108 334 OFFCURVE",
"1120 377 OFFCURVE",
"1145 410 CURVE SMOOTH",
"1172 446 OFFCURVE",
"1210 464 OFFCURVE",
"1258 464 CURVE SMOOTH"
);
}
);
width = 1680;
}
);
note = percent;
unicode = 0025;
},
{
glyphname = ampersand;
lastChange = "2018-09-24 13:43:15 +0000";
layers = (
{
hints = (
{
horizontal = 1;
place = "{-40, 178}";
type = Stem;
},
{
horizontal = 1;
place = "{1385, 179}";
type = Stem;
},
{
place = "{75, 178}";
type = Stem;
},
{
place = "{481, 178}";
type = Stem;
},
{
place = "{812, 178}";
type = Stem;
}
);
layerId = "10ADC4BD-3987-48B4-8AAC-8E23B2BCD4A9";
paths = (
{
closed = 1;
nodes = (
"667 1141 OFFCURVE",
"659 1192 OFFCURVE",
"659 1237 CURVE SMOOTH",
"659 1251 OFFCURVE",
"671 1279 OFFCURVE",
"696 1322 CURVE SMOOTH",
"720 1364 OFFCURVE",
"738 1385 OFFCURVE",
"750 1385 CURVE SMOOTH",
"771 1385 OFFCURVE",
"786 1378 OFFCURVE",
"797 1363 CURVE",
"807 1348 OFFCURVE",
"812 1325 OFFCURVE",
"812 1294 CURVE SMOOTH",
"812 1225 OFFCURVE",
"769 1155 OFFCURVE",
"684 1084 CURVE"
);
},
{
closed = 1;
nodes = (
"740 552 OFFCURVE",
"831 384 OFFCURVE",
"882 309 CURVE",
"784 195 OFFCURVE",
"668 138 OFFCURVE",
"533 138 CURVE SMOOTH",
"458 138 OFFCURVE",
"394 159 OFFCURVE",
"340 201 CURVE SMOOTH",
"282 247 OFFCURVE",
"253 306 OFFCURVE",
"253 379 CURVE SMOOTH",
"253 468 OFFCURVE",
"293 553 OFFCURVE",
"374 634 CURVE SMOOTH",
"415 675 OFFCURVE",
"493 734 OFFCURVE",
"608 811 CURVE"
);
},
{
closed = 1;
nodes = (
"481 1152 OFFCURVE",
"498 1064 OFFCURVE",
"532 974 CURVE",
"382 874 OFFCURVE",
"279 793 OFFCURVE",
"222 732 CURVE SMOOTH",
"124 626 OFFCURVE",
"75 508 OFFCURVE",
"75 379 CURVE SMOOTH",
"75 256 OFFCURVE",
"121 155 OFFCURVE",
"214 75 CURVE SMOOTH",
"302 -2 OFFCURVE",
"408 -40 OFFCURVE",
"533 -40 CURVE SMOOTH",
"699 -40 OFFCURVE",
"849 25 OFFCURVE",
"983 156 CURVE",
"1098 -43 LINE SMOOTH",
"1119 -77 OFFCURVE",
"1145 -94 OFFCURVE",
"1175 -94 CURVE SMOOTH",
"1199 -94 OFFCURVE",
"1221 -86 OFFCURVE",
"1240 -69 CURVE SMOOTH",
"1259 -52 OFFCURVE",
"1268 -31 OFFCURVE",
"1268 -7 CURVE SMOOTH",
"1268 26 OFFCURVE",
"1212 129 OFFCURVE",
"1101 304 CURVE",
"1170 419 OFFCURVE",
"1205 545 OFFCURVE",
"1205 680 CURVE SMOOTH",
"1205 711 OFFCURVE",
"1198 738 OFFCURVE",
"1185 763 CURVE SMOOTH",
"1169 793 OFFCURVE",
"1147 808 OFFCURVE",
"1119 808 CURVE SMOOTH",
"1083 808 OFFCURVE",
"1056 781 OFFCURVE",
"1039 726 CURVE SMOOTH",
"1034 709 OFFCURVE",
"1027 667 OFFCURVE",
"1016 599 CURVE SMOOTH",
"1009 560 OFFCURVE",
"999 522 OFFCURVE",
"986 485 CURVE",
"879 656 OFFCURVE",
"800 797 OFFCURVE",
"749 910 CURVE",
"910 1031 OFFCURVE",
"990 1159 OFFCURVE",
"990 1294 CURVE SMOOTH",
"990 1372 OFFCURVE",
"970 1435 OFFCURVE",
"929 1484 CURVE SMOOTH",
"886 1537 OFFCURVE",
"826 1564 OFFCURVE",
"750 1564 CURVE SMOOTH",
"685 1564 OFFCURVE",
"623 1525 OFFCURVE",
"564 1447 CURVE SMOOTH",
"509 1374 OFFCURVE",
"481 1304 OFFCURVE",
"481 1237 CURVE SMOOTH"
);
}
);
width = 1340;
}
);
note = ampersand;
unicode = 0026;
},
{
glyphname = quotesingle;
lastChange = "2018-09-24 13:43:15 +0000";
layers = (
{
hints = (
{
horizontal = 1;
place = "{1140, 520}";
type = Stem;
},
{
place = "{295, 177}";
type = Stem;
},
{
place = "{284, 178}";
type = Stem;
}
);
layerId = "10ADC4BD-3987-48B4-8AAC-8E23B2BCD4A9";
paths = (
{
closed = 1;
nodes = (
"462 1460 OFFCURVE",
"463 1481 OFFCURVE",
"466 1510 CURVE SMOOTH",
"469 1538 OFFCURVE",
"470 1559 OFFCURVE",
"470 1573 CURVE SMOOTH",
"470 1598 OFFCURVE",
"461 1619 OFFCURVE",
"444 1636 CURVE SMOOTH",
"427 1652 OFFCURVE",
"405 1660 OFFCURVE",
"380 1660 CURVE SMOOTH",
"335 1660 OFFCURVE",
"305 1634 OFFCURVE",
"292 1581 CURVE SMOOTH",
"287 1558 OFFCURVE",
"284 1513 OFFCURVE",
"284 1446 CURVE SMOOTH",
"284 1427 OFFCURVE",
"286 1400 OFFCURVE",
"290 1363 CURVE SMOOTH",
"293 1326 OFFCURVE",
"295 1298 OFFCURVE",
"295 1279 CURVE SMOOTH",
"295 1231 OFFCURVE",
"298 1199 OFFCURVE",
"303 1184 CURVE",
"314 1155 OFFCURVE",
"341 1140 OFFCURVE",
"382 1140 CURVE SMOOTH",
"442 1140 OFFCURVE",
"472 1183 OFFCURVE",
"472 1268 CURVE SMOOTH",
"472 1288 OFFCURVE",
"470 1318 OFFCURVE",
"467 1357 CURVE SMOOTH",
"464 1396 OFFCURVE",
"462 1426 OFFCURVE",
"462 1446 CURVE SMOOTH"
);
}
);
width = 795;
}
);
note = quotesingle;
unicode = 0027;
},
{
glyphname = parenleft;
lastChange = "2018-09-24 13:43:15 +0000";
layers = (
{
hints = (
{
horizontal = 1;
place = "{-432, 2000}";
type = Stem;
},
{
place = "{114, 200}";
type = Stem;
}
);
layerId = "10ADC4BD-3987-48B4-8AAC-8E23B2BCD4A9";
paths = (
{
closed = 1;
nodes = (
"696 1537 OFFCURVE",
"687 1559 OFFCURVE",
"669 1578 CURVE SMOOTH",
"651 1597 OFFCURVE",
"630 1606 OFFCURVE",
"606 1606 CURVE SMOOTH",
"591 1606 OFFCURVE",
"570 1597 OFFCURVE",
"543 1578 CURVE SMOOTH",
"411 1485 OFFCURVE",
"304 1336 OFFCURVE",
"223 1130 CURVE SMOOTH",
"150 945 OFFCURVE",
"114 762 OFFCURVE",
"114 581 CURVE SMOOTH",
"114 79 OFFCURVE",
"255 -251 OFFCURVE",
"537 -409 CURVE SMOOTH",
"565 -424 OFFCURVE",
"589 -432 OFFCURVE",
"609 -432 CURVE SMOOTH",
"632 -432 OFFCURVE",
"652 -424 OFFCURVE",
"669 -408 CURVE SMOOTH",
"686 -391 OFFCURVE",
"695 -372 OFFCURVE",
"695 -350 CURVE SMOOTH",
"695 -320 OFFCURVE",
"676 -290 OFFCURVE",
"637 -259 CURVE SMOOTH",
"606 -235 OFFCURVE",
"575 -211 OFFCURVE",
"544 -187 CURVE",
"391 -29 OFFCURVE",
"314 219 OFFCURVE",
"314 558 CURVE SMOOTH",
"314 689 OFFCURVE",
"332 823 OFFCURVE",
"369 959 CURVE SMOOTH",
"411 1115 OFFCURVE",
"469 1235 OFFCURVE",
"543 1319 CURVE",
"573 1350 OFFCURVE",
"603 1380 OFFCURVE",
"634 1411 CURVE",
"675 1456 OFFCURVE",
"696 1490 OFFCURVE",
"696 1513 CURVE SMOOTH"
);
}
);
width = 750;
}
);
note = parenleft;
unicode = 0028;
},
{
glyphname = parenright;
lastChange = "2018-09-24 13:43:15 +0000";
layers = (
{
hints = (
{
horizontal = 1;
place = "{-432, 2000}";
type = Stem;
},
{
place = "{496, 200}";
type = Stem;
}
);
layerId = "10ADC4BD-3987-48B4-8AAC-8E23B2BCD4A9";
paths = (
{
closed = 1;
nodes = (
"696 762 OFFCURVE",
"660 945 OFFCURVE",
"587 1130 CURVE SMOOTH",
"506 1336 OFFCURVE",
"399 1485 OFFCURVE",
"267 1578 CURVE SMOOTH",
"240 1597 OFFCURVE",
"218 1606 OFFCURVE",
"203 1606 CURVE SMOOTH",
"179 1606 OFFCURVE",
"158 1597 OFFCURVE",
"141 1578 CURVE SMOOTH",
"123 1559 OFFCURVE",
"114 1537 OFFCURVE",
"114 1513 CURVE SMOOTH",
"114 1490 OFFCURVE",
"135 1456 OFFCURVE",
"176 1411 CURVE SMOOTH",
"206 1380 OFFCURVE",
"236 1350 OFFCURVE",
"267 1319 CURVE",
"340 1235 OFFCURVE",
"398 1115 OFFCURVE",
"441 959 CURVE SMOOTH",
"478 823 OFFCURVE",
"496 689 OFFCURVE",
"496 558 CURVE SMOOTH",
"496 219 OFFCURVE",
"419 -29 OFFCURVE",
"266 -187 CURVE",
"235 -211 OFFCURVE",
"204 -235 OFFCURVE",
"173 -259 CURVE SMOOTH",
"134 -290 OFFCURVE",
"115 -320 OFFCURVE",
"115 -350 CURVE SMOOTH",
"115 -372 OFFCURVE",
"124 -391 OFFCURVE",
"141 -408 CURVE SMOOTH",
"158 -424 OFFCURVE",
"178 -432 OFFCURVE",
"201 -432 CURVE SMOOTH",
"221 -432 OFFCURVE",
"245 -424 OFFCURVE",
"272 -409 CURVE SMOOTH",
"555 -251 OFFCURVE",
"696 79 OFFCURVE",
"696 581 CURVE SMOOTH"
);
}
);
width = 750;
}
);
note = parenright;
unicode = 0029;
},
{
glyphname = asterisk;
lastChange = "2018-09-24 13:43:15 +0000";
layers = (
{
hints = (
{
horizontal = 1;
place = "{781, 813}";
type = Stem;
},
{
place = "{398, 179}";
type = Stem;
}
);
layerId = "10ADC4BD-3987-48B4-8AAC-8E23B2BCD4A9";
paths = (
{
closed = 1;
nodes = (
"47 1280 OFFCURVE",
"66 1254 OFFCURVE",
"104 1237 CURVE",
"209 1196 OFFCURVE",
"289 1167 OFFCURVE",
"344 1150 CURVE",
"263 1071 OFFCURVE",
"201 1013 OFFCURVE",
"158 977 CURVE",
"137 956 OFFCURVE",
"126 934 OFFCURVE",
"126 911 CURVE SMOOTH",
"126 887 OFFCURVE",
"135 866 OFFCURVE",
"154 847 CURVE SMOOTH",
"172 828 OFFCURVE",
"193 819 OFFCURVE",
"217 819 CURVE SMOOTH",
"266 819 OFFCURVE",
"359 897 OFFCURVE",
"496 1052 CURVE",
"588 950 OFFCURVE",
"654 872 OFFCURVE",
"695 817 CURVE",
"716 793 OFFCURVE",
"739 781 OFFCURVE",
"764 781 CURVE SMOOTH",
"788 781 OFFCURVE",
"809 790 OFFCURVE",
"828 808 CURVE SMOOTH",
"847 825 OFFCURVE",
"856 846 OFFCURVE",
"856 870 CURVE SMOOTH",
"856 899 OFFCURVE",
"826 950 OFFCURVE",
"767 1023 CURVE SMOOTH",
"722 1078 OFFCURVE",
"680 1124 OFFCURVE",
"641 1159 CURVE",
"759 1173 OFFCURVE",
"841 1185 OFFCURVE",
"888 1195 CURVE SMOOTH",
"938 1206 OFFCURVE",
"963 1234 OFFCURVE",
"963 1281 CURVE SMOOTH",
"963 1306 OFFCURVE",
"955 1328 OFFCURVE",
"939 1346 CURVE",
"922 1363 OFFCURVE",
"902 1372 OFFCURVE",
"877 1372 CURVE SMOOTH",
"841 1372 OFFCURVE",
"743 1360 OFFCURVE",
"583 1336 CURVE",
"579 1412 OFFCURVE",
"577 1468 OFFCURVE",
"577 1505 CURVE SMOOTH",
"577 1531 OFFCURVE",
"569 1552 OFFCURVE",
"552 1569 CURVE SMOOTH",
"535 1586 OFFCURVE",
"513 1594 OFFCURVE",
"487 1594 CURVE SMOOTH",
"462 1594 OFFCURVE",
"441 1586 OFFCURVE",
"424 1569 CURVE SMOOTH",
"407 1552 OFFCURVE",
"398 1531 OFFCURVE",
"398 1505 CURVE SMOOTH",
"398 1470 OFFCURVE",
"401 1406 OFFCURVE",
"406 1313 CURVE",
"241 1378 OFFCURVE",
"151 1410 OFFCURVE",
"135 1410 CURVE SMOOTH",
"111 1410 OFFCURVE",
"90 1400 OFFCURVE",
"73 1381 CURVE SMOOTH",
"56 1362 OFFCURVE",
"47 1340 OFFCURVE",
"47 1315 CURVE SMOOTH"
);
}
);
width = 1085;
}
);
note = asterisk;
unicode = 002A;
},
{
glyphname = plus;
lastChange = "2018-09-24 13:43:15 +0000";
layers = (
{
hints = (
{
horizontal = 1;
place = "{557, 175}";
type = Stem;
},
{
place = "{376, 178}";
type = Stem;
},
{
place = "{373, 178}";
type = Stem;
},
{
horizontal = 1;
place = "{546, 178}";
type = Stem;
}
);
layerId = "10ADC4BD-3987-48B4-8AAC-8E23B2BCD4A9";
paths = (
{
closed = 1;
nodes = (
"913 706 OFFCURVE",
"858 737 OFFCURVE",
"749 737 CURVE SMOOTH",
"736 737 OFFCURVE",
"715 736 OFFCURVE",
"688 735 CURVE",
"661 733 OFFCURVE",
"640 732 OFFCURVE",
"627 732 CURVE",
"552 735 LINE",
"551 849 LINE",
"551 862 OFFCURVE",
"552 880 OFFCURVE",
"555 905 CURVE",
"557 930 OFFCURVE",
"558 948 OFFCURVE",
"558 959 CURVE SMOOTH",
"558 984 OFFCURVE",
"549 1005 OFFCURVE",
"532 1022 CURVE",
"514 1038 OFFCURVE",
"492 1046 OFFCURVE",
"467 1046 CURVE SMOOTH",
"445 1046 OFFCURVE",
"427 1040 OFFCURVE",
"413 1028 CURVE SMOOTH",
"399 1016 OFFCURVE",
"389 998 OFFCURVE",
"382 974 CURVE SMOOTH",
"376 951 OFFCURVE",
"373 909 OFFCURVE",
"373 848 CURVE SMOOTH",
"374 731 LINE",
"293 726 OFFCURVE",
"236 724 OFFCURVE",
"203 724 CURVE SMOOTH",
"149 724 OFFCURVE",
"116 722 OFFCURVE",
"103 719 CURVE",
"66 708 OFFCURVE",
"48 681 OFFCURVE",
"48 638 CURVE SMOOTH",
"48 577 OFFCURVE",
"100 546 OFFCURVE",
"203 546 CURVE SMOOTH",
"236 546 OFFCURVE",
"293 548 OFFCURVE",
"374 553 CURVE",
"375 437 LINE",
"376 322 LINE SMOOTH",
"376 292 OFFCURVE",
"384 270 OFFCURVE",
"399 255 CURVE SMOOTH",
"414 240 OFFCURVE",
"436 232 OFFCURVE",
"465 232 CURVE SMOOTH",
"524 232 OFFCURVE",
"554 262 OFFCURVE",
"554 322 CURVE SMOOTH",
"554 557 LINE",
"580 556 OFFCURVE",
"613 556 OFFCURVE",
"654 557 CURVE SMOOTH",
"754 559 LINE SMOOTH",
"763 559 OFFCURVE",
"775 558 OFFCURVE",
"791 555 CURVE SMOOTH",
"807 552 OFFCURVE",
"819 551 OFFCURVE",
"827 551 CURVE SMOOTH",
"852 551 OFFCURVE",
"872 560 OFFCURVE",
"889 579 CURVE SMOOTH",
"905 597 OFFCURVE",
"913 618 OFFCURVE",
"913 643 CURVE SMOOTH"
);
}
);
width = 984;
}
);
note = plus;
unicode = 002B;
},
{
glyphname = comma;
lastChange = "2018-09-24 13:43:15 +0000";
layers = (
{
hints = (
{
horizontal = 1;
place = "{-344, 486}";
type = Stem;
},
{
place = "{198, 301}";
type = Stem;
}
);
layerId = "10ADC4BD-3987-48B4-8AAC-8E23B2BCD4A9";
paths = (
{
closed = 1;
nodes = (
"318 -344 OFFCURVE",
"342 -326 OFFCURVE",
"357 -290 CURVE SMOOTH",
"452 -78 OFFCURVE",
"499 36 OFFCURVE",
"499 52 CURVE SMOOTH",
"499 75 OFFCURVE",
"491 96 OFFCURVE",
"474 115 CURVE SMOOTH",
"457 133 OFFCURVE",
"436 142 OFFCURVE",
"412 142 CURVE SMOOTH",
"383 142 OFFCURVE",
"360 126 OFFCURVE",
"343 94 CURVE SMOOTH",
"324 59 OFFCURVE",
"296 0 OFFCURVE",
"260 -83 CURVE SMOOTH",
"219 -178 OFFCURVE",
"198 -236 OFFCURVE",
"198 -255 CURVE SMOOTH",
"198 -278 OFFCURVE",
"207 -299 OFFCURVE",
"224 -317 CURVE SMOOTH",
"241 -335 OFFCURVE",
"262 -344 OFFCURVE",
"285 -344 CURVE SMOOTH"
);
}
);
width = 567;
}
);
note = comma;
unicode = 002C;
},
{
glyphname = hyphen;
lastChange = "2018-09-24 13:43:15 +0000";
layers = (
{
hints = (
{
horizontal = 1;
place = "{461, 156}";
type = Stem;
},
{
place = "{111, 647}";
type = Stem;
}
);
layerId = "10ADC4BD-3987-48B4-8AAC-8E23B2BCD4A9";
paths = (
{
closed = 1;
nodes = (
"732 481 OFFCURVE",
"758 507 OFFCURVE",
"758 553 CURVE SMOOTH",
"758 605 OFFCURVE",
"728 631 OFFCURVE",
"669 631 CURVE SMOOTH",
"616 631 OFFCURVE",
"537 629 OFFCURVE",
"432 624 CURVE SMOOTH",
"327 619 OFFCURVE",
"248 617 OFFCURVE",
"195 617 CURVE SMOOTH",
"139 617 OFFCURVE",
"111 591 OFFCURVE",
"111 539 CURVE SMOOTH",
"111 487 OFFCURVE",
"139 461 OFFCURVE",
"195 461 CURVE SMOOTH",
"427 461 OFFCURVE",
"588 466 OFFCURVE",
"679 475 CURVE SMOOTH"
);
}
);
width = 853;
}
);
note = hyphen;
unicode = 002D;
},
{
glyphname = period;
lastChange = "2018-09-24 13:43:15 +0000";
layers = (
{
hints = (
{
horizontal = 1;
place = "{-93, 248}";
type = Stem;
},
{
place = "{143, 248}";
type = Stem;
}
);
layerId = "10ADC4BD-3987-48B4-8AAC-8E23B2BCD4A9";
paths = (
{
closed = 1;
nodes = (
"301 -93 OFFCURVE",
"330 -81 OFFCURVE",
"355 -57 CURVE SMOOTH",
"379 -33 OFFCURVE",
"391 -4 OFFCURVE",
"391 31 CURVE SMOOTH",
"391 65 OFFCURVE",
"379 94 OFFCURVE",
"355 119 CURVE",
"330 143 OFFCURVE",
"301 155 OFFCURVE",
"267 155 CURVE SMOOTH",
"232 155 OFFCURVE",
"203 143 OFFCURVE",
"179 119 CURVE SMOOTH",
"155 94 OFFCURVE",
"143 65 OFFCURVE",
"143 31 CURVE SMOOTH",
"143 -4 OFFCURVE",
"155 -33 OFFCURVE",
"179 -57 CURVE SMOOTH",
"203 -81 OFFCURVE",
"232 -93 OFFCURVE",
"267 -93 CURVE SMOOTH"
);
}
);
width = 510;
}
);
note = period;
unicode = 002E;
},
{
glyphname = slash;
lastChange = "2018-09-24 13:43:15 +0000";
layers = (
{
hints = (
{
horizontal = 1;
place = "{-90, 1716}";
type = Stem;
},
{
place = "{84, 887}";
type = Stem;
}
);
layerId = "10ADC4BD-3987-48B4-8AAC-8E23B2BCD4A9";
paths = (
{
closed = 1;
nodes = (
"213 -90 OFFCURVE",
"240 -70 OFFCURVE",
"258 -31 CURVE SMOOTH",
"439 370 LINE",
"657 784 LINE SMOOTH",
"740 945 OFFCURVE",
"803 1088 OFFCURVE",
"848 1211 CURVE",
"960 1483 LINE",
"967 1504 OFFCURVE",
"971 1523 OFFCURVE",
"971 1538 CURVE SMOOTH",
"971 1562 OFFCURVE",
"962 1583 OFFCURVE",
"943 1600 CURVE SMOOTH",
"924 1617 OFFCURVE",
"903 1625 OFFCURVE",
"878 1626 CURVE SMOOTH",
"833 1628 OFFCURVE",
"767 1510 OFFCURVE",
"680 1271 CURVE SMOOTH",
"627 1127 OFFCURVE",
"529 920 OFFCURVE",
"385 651 CURVE SMOOTH",
"241 381 OFFCURVE",
"143 174 OFFCURVE",
"91 31 CURVE",
"86 19 OFFCURVE",
"84 8 OFFCURVE",
"84 -3 CURVE SMOOTH",
"84 -28 OFFCURVE",
"93 -48 OFFCURVE",
"112 -65 CURVE SMOOTH",
"131 -82 OFFCURVE",
"152 -90 OFFCURVE",
"177 -90 CURVE SMOOTH"
);
}
);
width = 1048;
}
);
note = slash;
unicode = 002F;
},
{
glyphname = zero;
lastChange = "2018-09-24 13:43:15 +0000";
layers = (
{
hints = (
{
horizontal = 1;
place = "{-39, 192}";
type = Stem;
},
{
horizontal = 1;
place = "{1362, 193}";
type = Stem;
},
{
place = "{61, 194}";
type = Stem;
},
{
place = "{979, 200}";
type = Stem;
}
);
layerId = "10ADC4BD-3987-48B4-8AAC-8E23B2BCD4A9";
paths = (
{
closed = 1;
nodes = (
"800 -39 OFFCURVE",
"942 36 OFFCURVE",
"1037 186 CURVE SMOOTH",
"1132 335 OFFCURVE",
"1179 559 OFFCURVE",
"1179 858 CURVE SMOOTH",
"1179 1044 OFFCURVE",
"1137 1202 OFFCURVE",
"1052 1331 CURVE SMOOTH",
"954 1480 OFFCURVE",
"817 1555 OFFCURVE",
"642 1555 CURVE SMOOTH",
"455 1555 OFFCURVE",
"308 1471 OFFCURVE",
"199 1302 CURVE SMOOTH",
"107 1158 OFFCURVE",
"61 989 OFFCURVE",
"61 796 CURVE SMOOTH",
"61 567 OFFCURVE",
"96 382 OFFCURVE",
"167 239 CURVE SMOOTH",
"260 54 OFFCURVE",
"408 -39 OFFCURVE",
"611 -39 CURVE SMOOTH"
);
},
{
closed = 1;
nodes = (
"754 1362 OFFCURVE",
"838 1317 OFFCURVE",
"895 1227 CURVE SMOOTH",
"951 1137 OFFCURVE",
"979 1002 OFFCURVE",
"979 821 CURVE SMOOTH",
"979 649 OFFCURVE",
"958 507 OFFCURVE",
"915 395 CURVE SMOOTH",
"854 234 OFFCURVE",
"752 153 OFFCURVE",
"611 153 CURVE SMOOTH",
"492 153 OFFCURVE",
"403 208 OFFCURVE",
"344 318 CURVE SMOOTH",
"285 428 OFFCURVE",
"255 593 OFFCURVE",
"255 812 CURVE SMOOTH",
"255 947 OFFCURVE",
"285 1068 OFFCURVE",
"346 1173 CURVE SMOOTH",
"419 1299 OFFCURVE",
"517 1362 OFFCURVE",
"641 1362 CURVE SMOOTH"
);
}
);
width = 1250;
}
);
note = zero;
unicode = 0030;
},
{
glyphname = one;
lastChange = "2018-09-24 13:43:15 +0000";
layers = (
{
hints = (
{
horizontal = 1;
place = "{-1, 192}";
type = Stem;
},
{
place = "{387, 195}";
type = Stem;
},
{
place = "{404, 195}";
type = Stem;
},
{
place = "{431, 199}";
type = Stem;
}
);
layerId = "10ADC4BD-3987-48B4-8AAC-8E23B2BCD4A9";
paths = (
{
closed = 1;
nodes = (
"704 -1 LINE SMOOTH",
"732 -1 OFFCURVE",
"755 8 OFFCURVE",
"774 26 CURVE SMOOTH",
"792 44 OFFCURVE",
"801 67 OFFCURVE",
"801 95 CURVE SMOOTH",
"801 122 OFFCURVE",
"792 145 OFFCURVE",
"774 164 CURVE",
"755 182 OFFCURVE",
"732 191 OFFCURVE",
"704 191 CURVE SMOOTH",
"599 189 LINE",
"598 224 OFFCURVE",
"595 270 OFFCURVE",
"590 325 CURVE SMOOTH",
"585 380 OFFCURVE",
"582 427 OFFCURVE",
"582 466 CURVE SMOOTH",
"582 541 OFFCURVE",
"590 654 OFFCURVE",
"606 805 CURVE SMOOTH",
"622 956 OFFCURVE",
"630 1069 OFFCURVE",
"630 1145 CURVE SMOOTH",
"630 1167 OFFCURVE",
"629 1200 OFFCURVE",
"627 1245 CURVE SMOOTH",
"624 1290 OFFCURVE",
"623 1323 OFFCURVE",
"623 1345 CURVE SMOOTH",
"623 1360 OFFCURVE",
"625 1383 OFFCURVE",
"629 1414 CURVE SMOOTH",
"633 1444 OFFCURVE",
"635 1467 OFFCURVE",
"635 1482 CURVE SMOOTH",
"635 1533 OFFCURVE",
"613 1559 OFFCURVE",
"568 1559 CURVE SMOOTH",
"515 1559 OFFCURVE",
"459 1529 OFFCURVE",
"400 1470 CURVE",
"334 1414 OFFCURVE",
"283 1373 OFFCURVE",
"247 1348 CURVE",
"190 1303 OFFCURVE",
"161 1265 OFFCURVE",
"161 1234 CURVE SMOOTH",
"161 1208 OFFCURVE",
"171 1185 OFFCURVE",
"191 1165 CURVE SMOOTH",
"210 1145 OFFCURVE",
"233 1135 OFFCURVE",
"260 1135 CURVE SMOOTH",
"285 1135 OFFCURVE",
"342 1170 OFFCURVE",
"431 1239 CURVE",
"432 1151 OFFCURVE",
"425 1022 OFFCURVE",
"410 852 CURVE SMOOTH",
"395 679 OFFCURVE",
"387 551 OFFCURVE",
"387 466 CURVE SMOOTH",
"387 435 OFFCURVE",
"390 388 OFFCURVE",
"396 325 CURVE SMOOTH",
"401 262 OFFCURVE",
"404 215 OFFCURVE",
"404 183 CURVE",
"363 185 LINE",
"315 186 LINE SMOOTH",
"210 186 OFFCURVE",
"158 152 OFFCURVE",
"158 85 CURVE SMOOTH",
"158 46 OFFCURVE",
"175 21 OFFCURVE",
"209 9 CURVE SMOOTH",
"228 3 OFFCURVE",
"260 0 OFFCURVE",
"307 0 CURVE SMOOTH",
"505 -1 LINE"
);
}
);
width = 922;
}
);
note = one;
unicode = 0031;
},
{
glyphname = two;
lastChange = "2018-09-24 13:43:15 +0000";
layers = (
{
hints = (
{
horizontal = 1;
place = "{29, 192}";
type = Stem;
},
{
horizontal = 1;
place = "{1344, 192}";
type = Stem;
},
{
place = "{164, 195}";
type = Stem;
},
{
place = "{881, 205}";
type = Stem;
}
);
layerId = "10ADC4BD-3987-48B4-8AAC-8E23B2BCD4A9";
paths = (
{
closed = 1;
nodes = (
"1035 -2 OFFCURVE",
"1057 8 OFFCURVE",
"1075 29 CURVE SMOOTH",
"1093 49 OFFCURVE",
"1102 72 OFFCURVE",
"1102 98 CURVE SMOOTH",
"1102 139 OFFCURVE",
"1072 172 OFFCURVE",
"1012 195 CURVE SMOOTH",
"967 212 OFFCURVE",
"919 221 OFFCURVE",
"868 221 CURVE SMOOTH",
"807 221 OFFCURVE",
"706 217 OFFCURVE",
"565 209 CURVE",
"359 190 LINE",
"358 299 OFFCURVE",
"394 392 OFFCURVE",
"468 469 CURVE SMOOTH",
"507 510 OFFCURVE",
"590 569 OFFCURVE",
"715 648 CURVE SMOOTH",
"834 722 OFFCURVE",
"919 789 OFFCURVE",
"969 849 CURVE SMOOTH",
"1008 896 OFFCURVE",
"1038 949 OFFCURVE",
"1057 1006 CURVE SMOOTH",
"1076 1063 OFFCURVE",
"1086 1126 OFFCURVE",
"1086 1194 CURVE SMOOTH",
"1086 1297 OFFCURVE",
"1039 1382 OFFCURVE",
"944 1448 CURVE SMOOTH",
"859 1507 OFFCURVE",
"763 1536 OFFCURVE",
"655 1536 CURVE SMOOTH",
"570 1536 OFFCURVE",
"487 1513 OFFCURVE",
"406 1467 CURVE SMOOTH",
"349 1434 OFFCURVE",
"281 1381 OFFCURVE",
"203 1308 CURVE SMOOTH",
"178 1285 OFFCURVE",
"165 1258 OFFCURVE",
"165 1227 CURVE SMOOTH",
"165 1172 OFFCURVE",
"199 1145 OFFCURVE",
"268 1145 CURVE SMOOTH",
"285 1145 OFFCURVE",
"308 1156 OFFCURVE",
"337 1179 CURVE SMOOTH",
"480 1291 LINE",
"535 1326 OFFCURVE",
"594 1344 OFFCURVE",
"655 1344 CURVE SMOOTH",
"702 1344 OFFCURVE",
"749 1329 OFFCURVE",
"798 1299 CURVE SMOOTH",
"853 1266 OFFCURVE",
"881 1228 OFFCURVE",
"881 1185 CURVE SMOOTH",
"881 1099 OFFCURVE",
"852 1024 OFFCURVE",
"795 960 CURVE SMOOTH",
"763 923 OFFCURVE",
"699 872 OFFCURVE",
"604 807 CURVE SMOOTH",
"434 690 OFFCURVE",
"330 610 OFFCURVE",
"291 567 CURVE SMOOTH",
"206 472 OFFCURVE",
"164 347 OFFCURVE",
"164 192 CURVE SMOOTH",
"164 135 OFFCURVE",
"168 95 OFFCURVE",
"176 72 CURVE SMOOTH",
"190 27 OFFCURVE",
"220 5 OFFCURVE",
"266 5 CURVE SMOOTH",
"273 5 OFFCURVE",
"284 4 OFFCURVE",
"298 1 CURVE SMOOTH",
"312 -2 OFFCURVE",
"323 -3 OFFCURVE",
"330 -3 CURVE SMOOTH",
"356 -3 OFFCURVE",
"395 0 OFFCURVE",
"446 7 CURVE SMOOTH",
"497 14 OFFCURVE",
"535 17 OFFCURVE",
"561 17 CURVE SMOOTH",
"596 17 OFFCURVE",
"647 19 OFFCURVE",
"715 23 CURVE SMOOTH",
"783 27 OFFCURVE",
"834 29 OFFCURVE",
"868 29 CURVE SMOOTH",
"884 29 OFFCURVE",
"907 24 OFFCURVE",
"938 14 CURVE",
"968 3 OFFCURVE",
"991 -2 OFFCURVE",
"1008 -2 CURVE SMOOTH"
);
}
);
width = 1250;
}
);
note = two;
unicode = 0032;
},
{
glyphname = three;
lastChange = "2018-09-24 13:43:15 +0000";
layers = (
{
hints = (
{
horizontal = 1;
place = "{-46, 192}";
type = Stem;
},
{
horizontal = 1;
place = "{1334, 192}";
type = Stem;
},
{
place = "{867, 180}";
type = Stem;
},
{
place = "{883, 200}";
type = Stem;
}
);
layerId = "10ADC4BD-3987-48B4-8AAC-8E23B2BCD4A9";
paths = (
{
closed = 1;
nodes = (
"738 -46 OFFCURVE",
"851 0 OFFCURVE",
"944 92 CURVE SMOOTH",
"1037 183 OFFCURVE",
"1083 295 OFFCURVE",
"1083 426 CURVE SMOOTH",
"1083 523 OFFCURVE",
"1061 605 OFFCURVE",
"1017 670 CURVE SMOOTH",
"973 735 OFFCURVE",
"907 783 OFFCURVE",
"818 816 CURVE",
"833 821 OFFCURVE",
"846 825 OFFCURVE",
"857 830 CURVE",
"984 880 OFFCURVE",
"1047 983 OFFCURVE",
"1047 1140 CURVE SMOOTH",
"1047 1266 OFFCURVE",
"1002 1363 OFFCURVE",
"912 1431 CURVE SMOOTH",
"828 1494 OFFCURVE",
"714 1526 OFFCURVE",
"571 1526 CURVE SMOOTH",
"514 1526 OFFCURVE",
"441 1504 OFFCURVE",
"352 1461 CURVE SMOOTH",
"250 1412 OFFCURVE",
"199 1362 OFFCURVE",
"199 1309 CURVE SMOOTH",
"199 1283 OFFCURVE",
"209 1260 OFFCURVE",
"228 1240 CURVE SMOOTH",
"247 1219 OFFCURVE",
"269 1209 OFFCURVE",
"296 1209 CURVE SMOOTH",
"309 1209 OFFCURVE",
"327 1216 OFFCURVE",
"349 1230 CURVE SMOOTH",
"462 1301 LINE",
"505 1323 OFFCURVE",
"549 1334 OFFCURVE",
"594 1334 CURVE SMOOTH",
"682 1334 OFFCURVE",
"750 1315 OFFCURVE",
"799 1278 CURVE SMOOTH",
"846 1242 OFFCURVE",
"868 1195 OFFCURVE",
"867 1136 CURVE SMOOTH",
"866 1095 OFFCURVE",
"854 1061 OFFCURVE",
"831 1033 CURVE SMOOTH",
"808 1004 OFFCURVE",
"773 982 OFFCURVE",
"727 965 CURVE",
"488 906 LINE",
"430 885 OFFCURVE",
"401 855 OFFCURVE",
"401 816 CURVE SMOOTH",
"401 763 OFFCURVE",
"438 733 OFFCURVE",
"512 726 CURVE SMOOTH",
"620 715 OFFCURVE",
"707 683 OFFCURVE",
"772 631 CURVE SMOOTH",
"846 571 OFFCURVE",
"883 491 OFFCURVE",
"883 390 CURVE SMOOTH",
"883 321 OFFCURVE",
"854 262 OFFCURVE",
"796 214 CURVE SMOOTH",
"741 169 OFFCURVE",
"678 146 OFFCURVE",
"605 146 CURVE SMOOTH",
"548 146 OFFCURVE",
"500 154 OFFCURVE",
"459 171 CURVE SMOOTH",
"418 187 OFFCURVE",
"386 211 OFFCURVE",
"362 244 CURVE",
"316 313 LINE",
"297 338 OFFCURVE",
"274 350 OFFCURVE",
"247 350 CURVE SMOOTH",
"220 350 OFFCURVE",
"197 341 OFFCURVE",
"177 324 CURVE SMOOTH",
"156 306 OFFCURVE",
"146 284 OFFCURVE",
"146 257 CURVE SMOOTH",
"146 246 OFFCURVE",
"148 234 OFFCURVE",
"152 222 CURVE SMOOTH",
"183 134 OFFCURVE",
"244 66 OFFCURVE",
"334 17 CURVE SMOOTH",
"414 -25 OFFCURVE",
"504 -46 OFFCURVE",
"605 -46 CURVE SMOOTH"
);
}
);
width = 1250;
}
);
note = three;
unicode = 0033;
},
{
glyphname = four;
lastChange = "2018-09-24 13:43:15 +0000";
layers = (
{
hints = (
{
horizontal = 1;
place = "{437, 195}";
type = Stem;
},
{
place = "{770, 194}";
type = Stem;
},
{
horizontal = 1;
place = "{453, 187}";
type = Stem;
}
);
layerId = "10ADC4BD-3987-48B4-8AAC-8E23B2BCD4A9";
paths = (
{
closed = 1;
nodes = (
"964 437 LINE",
"1041 434 OFFCURVE",
"1090 436 OFFCURVE",
"1113 442 CURVE SMOOTH",
"1164 455 OFFCURVE",
"1189 485 OFFCURVE",
"1189 533 CURVE SMOOTH",
"1189 599 OFFCURVE",
"1128 632 OFFCURVE",
"1005 632 CURVE SMOOTH",
"989 632 OFFCURVE",
"975 632 OFFCURVE",
"964 631 CURVE",
"964 1462 LINE SMOOTH",
"964 1527 OFFCURVE",
"926 1560 OFFCURVE",
"851 1560 CURVE SMOOTH",
"782 1560 OFFCURVE",
"726 1529 OFFCURVE",
"681 1467 CURVE SMOOTH",
"189 749 LINE",
"103 647 LINE SMOOTH",
"66 601 OFFCURVE",
"48 563 OFFCURVE",
"48 533 CURVE SMOOTH",
"48 496 OFFCURVE",
"78 472 OFFCURVE",
"139 462 CURVE SMOOTH",
"174 456 OFFCURVE",
"238 453 OFFCURVE",
"329 453 CURVE SMOOTH",
"770 442 LINE",
"771 215 LINE SMOOTH",
"771 207 OFFCURVE",
"770 192 OFFCURVE",
"769 170 CURVE SMOOTH",
"768 148 OFFCURVE",
"767 131 OFFCURVE",
"767 119 CURVE SMOOTH",
"767 22 OFFCURVE",
"802 -26 OFFCURVE",
"873 -26 CURVE SMOOTH",
"934 -26 OFFCURVE",
"964 5 OFFCURVE",
"964 67 CURVE SMOOTH"
);
},
{
closed = 1;
nodes = (
"770 635 LINE",
"353 645 LINE",
"453 786 OFFCURVE",
"592 999 OFFCURVE",
"770 1283 CURVE"
);
}
);
width = 1250;
}
);
note = four;
unicode = 0034;
},
{
glyphname = five;
lastChange = "2018-09-24 13:43:15 +0000";
layers = (
{
hints = (
{
horizontal = 1;
place = "{-63, 192}";
type = Stem;
},
{
horizontal = 1;
place = "{916, 192}";
type = Stem;
},
{
horizontal = 1;
place = "{1334.5, 194.5}";
type = Stem;
},
{
place = "{190, 201}";
type = Stem;
},
{
place = "{958, 195}";
type = Stem;
}
);
layerId = "10ADC4BD-3987-48B4-8AAC-8E23B2BCD4A9";
paths = (
{
closed = 1;
nodes = (
"741 -63 OFFCURVE",
"886 -2 OFFCURVE",
"995 119 CURVE SMOOTH",
"1100 236 OFFCURVE",
"1153 384 OFFCURVE",
"1153 564 CURVE SMOOTH",
"1153 715 OFFCURVE",
"1120 839 OFFCURVE",
"1055 936 CURVE SMOOTH",
"978 1051 OFFCURVE",
"866 1108 OFFCURVE",
"719 1108 CURVE SMOOTH",
"567 1108 OFFCURVE",
"445 1072 OFFCURVE",
"354 999 CURVE",
"379 1191 OFFCURVE",
"391 1302 OFFCURVE",
"391 1332 CURVE",
"560 1337 LINE",
"729 1340 LINE SMOOTH",
"736 1340 OFFCURVE",
"755 1339 OFFCURVE",
"786 1338 CURVE SMOOTH",
"817 1337 OFFCURVE",
"843 1336 OFFCURVE",
"864 1336 CURVE SMOOTH",
"1022 1336 OFFCURVE",
"1101 1373 OFFCURVE",
"1101 1448 CURVE SMOOTH",
"1101 1473 OFFCURVE",
"1091 1496 OFFCURVE",
"1071 1515 CURVE SMOOTH",
"1051 1534 OFFCURVE",
"1028 1544 OFFCURVE",
"1002 1544 CURVE SMOOTH",
"990 1544 OFFCURVE",
"972 1542 OFFCURVE",
"948 1537 CURVE SMOOTH",
"924 1532 OFFCURVE",
"906 1529 OFFCURVE",
"893 1529 CURVE SMOOTH",
"875 1529 OFFCURVE",
"848 1530 OFFCURVE",
"811 1531 CURVE SMOOTH",
"774 1532 OFFCURVE",
"747 1533 OFFCURVE",
"729 1533 CURVE SMOOTH",
"690 1533 OFFCURVE",
"632 1532 OFFCURVE",
"555 1529 CURVE SMOOTH",
"478 1526 OFFCURVE",
"420 1525 OFFCURVE",
"381 1525 CURVE SMOOTH",
"368 1525 OFFCURVE",
"348 1526 OFFCURVE",
"321 1529 CURVE",
"294 1531 OFFCURVE",
"273 1532 OFFCURVE",
"260 1532 CURVE SMOOTH",
"190 1532 OFFCURVE",
"155 1512 OFFCURVE",
"155 1471 CURVE SMOOTH",
"155 1458 OFFCURVE",
"161 1437 OFFCURVE",
"173 1410 CURVE",
"184 1382 OFFCURVE",
"190 1356 OFFCURVE",
"190 1333 CURVE SMOOTH",
"190 1267 OFFCURVE",
"179 1129 OFFCURVE",
"156 919 CURVE SMOOTH",
"145 814 OFFCURVE",
"140 754 OFFCURVE",
"140 741 CURVE SMOOTH",
"140 714 OFFCURVE",
"149 692 OFFCURVE",
"168 673 CURVE SMOOTH",
"187 654 OFFCURVE",
"209 644 OFFCURVE",
"236 644 CURVE SMOOTH",
"267 644 OFFCURVE",
"297 659 OFFCURVE",
"326 689 CURVE SMOOTH",
"435 808 LINE",
"472 845 OFFCURVE",
"508 872 OFFCURVE",
"544 887 CURVE SMOOTH",
"589 906 OFFCURVE",
"648 916 OFFCURVE",
"719 916 CURVE SMOOTH",
"805 916 OFFCURVE",
"869 878 OFFCURVE",
"910 801 CURVE SMOOTH",
"942 740 OFFCURVE",
"958 661 OFFCURVE",
"958 564 CURVE SMOOTH",
"958 446 OFFCURVE",
"922 345 OFFCURVE",
"849 261 CURVE SMOOTH",
"773 173 OFFCURVE",
"677 129 OFFCURVE",
"562 129 CURVE SMOOTH",
"487 129 OFFCURVE",
"428 144 OFFCURVE",
"385 173 CURVE SMOOTH",
"367 185 OFFCURVE",
"340 212 OFFCURVE",
"305 255 CURVE SMOOTH",
"280 284 OFFCURVE",
"254 299 OFFCURVE",
"227 299 CURVE SMOOTH",
"201 299 OFFCURVE",
"178 290 OFFCURVE",
"157 271 CURVE SMOOTH",
"136 252 OFFCURVE",
"126 229 OFFCURVE",
"126 203 CURVE SMOOTH",
"126 185 OFFCURVE",
"132 166 OFFCURVE",
"144 147 CURVE SMOOTH",
"233 7 OFFCURVE",
"373 -63 OFFCURVE",
"562 -63 CURVE SMOOTH"
);
}
);
width = 1250;
}
);
note = five;
unicode = 0035;
},
{
glyphname = six;
lastChange = "2018-09-24 13:43:15 +0000";
layers = (
{
hints = (
{
horizontal = 1;
place = "{-72, 174}";
type = Stem;
},
{
horizontal = 1;
place = "{749, 204}";
type = Stem;
},
{
place = "{111, 195}";
type = Stem;
},
{
place = "{914, 195}";
type = Stem;
}
);
layerId = "10ADC4BD-3987-48B4-8AAC-8E23B2BCD4A9";
paths = (
{
closed = 1;
nodes = (
"754 -72 OFFCURVE",
"880 -20 OFFCURVE",
"974 85 CURVE SMOOTH",
"1064 186 OFFCURVE",
"1109 316 OFFCURVE",
"1109 475 CURVE SMOOTH",
"1109 627 OFFCURVE",
"1067 745 OFFCURVE",
"984 828 CURVE SMOOTH",
"901 911 OFFCURVE",
"781 953 OFFCURVE",
"625 953 CURVE SMOOTH",
"597 953 OFFCURVE",
"561 947 OFFCURVE",
"518 934 CURVE SMOOTH",
"475 921 OFFCURVE",
"424 901 OFFCURVE",
"366 874 CURVE",
"405 985 OFFCURVE",
"451 1067 OFFCURVE",
"505 1122 CURVE SMOOTH",
"709 1321 LINE SMOOTH",
"778 1390 OFFCURVE",
"812 1436 OFFCURVE",
"811 1460 CURVE SMOOTH",
"810 1486 OFFCURVE",
"800 1509 OFFCURVE",
"780 1528 CURVE SMOOTH",
"760 1547 OFFCURVE",
"737 1556 OFFCURVE",
"710 1556 CURVE SMOOTH",
"687 1556 OFFCURVE",
"652 1534 OFFCURVE",
"606 1490 CURVE SMOOTH",
"512 1395 LINE",
"245 1153 OFFCURVE",
"111 867 OFFCURVE",
"111 538 CURVE SMOOTH",
"111 363 OFFCURVE",
"145 224 OFFCURVE",
"213 119 CURVE SMOOTH",
"295 -8 OFFCURVE",
"423 -72 OFFCURVE",
"597 -72 CURVE SMOOTH"
);
},
{
closed = 1;
nodes = (
"703 749 OFFCURVE",
"782 726 OFFCURVE",
"835 681 CURVE SMOOTH",
"888 635 OFFCURVE",
"914 566 OFFCURVE",
"914 475 CURVE SMOOTH",
"914 365 OFFCURVE",
"888 277 OFFCURVE",
"837 210 CURVE SMOOTH",
"782 138 OFFCURVE",
"704 102 OFFCURVE",
"603 102 CURVE SMOOTH",
"496 102 OFFCURVE",
"417 150 OFFCURVE",
"366 246 CURVE SMOOTH",
"326 321 OFFCURVE",
"306 419 OFFCURVE",
"306 538 CURVE SMOOTH",
"306 572 OFFCURVE",
"308 607 OFFCURVE",
"312 642 CURVE",
"382 685 OFFCURVE",
"426 711 OFFCURVE",
"443 719 CURVE SMOOTH",
"488 739 OFFCURVE",
"540 749 OFFCURVE",
"597 749 CURVE SMOOTH"
);
}
);
width = 1250;
}
);
note = six;
unicode = 0036;
},
{
glyphname = seven;
lastChange = "2018-09-24 13:43:15 +0000";
layers = (
{
hints = (
{
horizontal = 1;
place = "{1305, 187}";
type = Stem;
},
{
place = "{70, 1144}";
type = Stem;
}
);
layerId = "10ADC4BD-3987-48B4-8AAC-8E23B2BCD4A9";
paths = (
{
closed = 1;
nodes = (
"1154 1306 LINE",
"1194 1357 OFFCURVE",
"1214 1398 OFFCURVE",
"1214 1429 CURVE SMOOTH",
"1214 1471 OFFCURVE",
"1179 1492 OFFCURVE",
"1108 1492 CURVE SMOOTH",
"925 1492 LINE SMOOTH",
"841 1492 OFFCURVE",
"715 1495 OFFCURVE",
"547 1500 CURVE SMOOTH",
"378 1505 OFFCURVE",
"252 1508 OFFCURVE",
"168 1508 CURVE SMOOTH",
"140 1508 OFFCURVE",
"117 1499 OFFCURVE",
"98 1481 CURVE SMOOTH",
"79 1463 OFFCURVE",
"70 1440 OFFCURVE",
"70 1412 CURVE SMOOTH",
"70 1354 OFFCURVE",
"102 1322 OFFCURVE",
"167 1316 CURVE",
"392 1310 LINE",
"894 1300 LINE",
"875 1279 LINE SMOOTH",
"770 1161 OFFCURVE",
"668 993 OFFCURVE",
"569 775 CURVE",
"344 224 LINE SMOOTH",
"301 119 OFFCURVE",
"280 54 OFFCURVE",
"280 29 CURVE SMOOTH",
"280 3 OFFCURVE",
"290 -19 OFFCURVE",
"311 -38 CURVE SMOOTH",
"331 -57 OFFCURVE",
"354 -66 OFFCURVE",
"381 -66 CURVE SMOOTH",
"416 -66 OFFCURVE",
"442 -50 OFFCURVE",
"461 -19 CURVE SMOOTH",
"491 30 OFFCURVE",
"523 103 OFFCURVE",
"558 202 CURVE SMOOTH",
"601 327 OFFCURVE",
"629 404 OFFCURVE",
"642 433 CURVE SMOOTH",
"824 832 LINE",
"897 976 OFFCURVE",
"976 1099 OFFCURVE",
"1063 1200 CURVE SMOOTH"
);
}
);
width = 1250;
}
);
note = seven;
unicode = 0037;
},
{
glyphname = eight;
lastChange = "2018-09-24 13:43:15 +0000";
layers = (
{
hints = (
{
horizontal = 1;
place = "{-54, 175}";
type = Stem;
},
{
horizontal = 1;
place = "{1347, 179}";
type = Stem;
},
{
place = "{122, 193}";
type = Stem;
},
{
place = "{851, 195}";
type = Stem;
},
{
place = "{916, 210}";
type = Stem;
},
{
place = "{171, 195}";
type = Stem;
}
);
layerId = "10ADC4BD-3987-48B4-8AAC-8E23B2BCD4A9";
paths = (
{
closed = 1;
nodes = (
"761 -54 OFFCURVE",
"882 -19 OFFCURVE",
"975 52 CURVE SMOOTH",
"1076 129 OFFCURVE",
"1126 236 OFFCURVE",
"1126 372 CURVE SMOOTH",
"1126 491 OFFCURVE",
"1103 585 OFFCURVE",
"1056 653 CURVE SMOOTH",
"1016 711 OFFCURVE",
"946 765 OFFCURVE",
"847 815 CURVE",
"922 853 OFFCURVE",
"972 890 OFFCURVE",
"998 926 CURVE SMOOTH",
"1030 969 OFFCURVE",
"1046 1031 OFFCURVE",
"1046 1111 CURVE SMOOTH",
"1046 1390 OFFCURVE",
"906 1529 OFFCURVE",
"626 1526 CURVE SMOOTH",
"501 1525 OFFCURVE",
"395 1484 OFFCURVE",
"308 1404 CURVE SMOOTH",
"217 1321 OFFCURVE",
"171 1216 OFFCURVE",
"171 1090 CURVE SMOOTH",
"171 957 OFFCURVE",
"230 855 OFFCURVE",
"349 783 CURVE",
"195 705 OFFCURVE",
"119 558 OFFCURVE",
"122 343 CURVE SMOOTH",
"124 209 OFFCURVE",
"174 107 OFFCURVE",
"273 38 CURVE SMOOTH",
"360 -23 OFFCURVE",
"473 -54 OFFCURVE",
"614 -54 CURVE SMOOTH"
);
},
{
closed = 1;
nodes = (
"700 1347 OFFCURVE",
"755 1332 OFFCURVE",
"790 1302 CURVE SMOOTH",
"831 1265 OFFCURVE",
"851 1202 OFFCURVE",
"851 1111 CURVE SMOOTH",
"851 1048 OFFCURVE",
"823 998 OFFCURVE",
"768 961 CURVE SMOOTH",
"733 938 OFFCURVE",
"676 914 OFFCURVE",
"596 891 CURVE",
"443 930 OFFCURVE",
"367 997 OFFCURVE",
"366 1090 CURVE SMOOTH",
"365 1167 OFFCURVE",
"385 1229 OFFCURVE",
"426 1274 CURVE SMOOTH",
"471 1323 OFFCURVE",
"537 1347 OFFCURVE",
"623 1347 CURVE SMOOTH"
);
},
{
closed = 1;
nodes = (
"699 685 OFFCURVE",
"769 652 OFFCURVE",
"814 615 CURVE SMOOTH",
"882 562 OFFCURVE",
"916 491 OFFCURVE",
"916 404 CURVE SMOOTH",
"916 315 OFFCURVE",
"897 248 OFFCURVE",
"860 204 CURVE SMOOTH",
"813 149 OFFCURVE",
"731 121 OFFCURVE",
"614 121 CURVE SMOOTH",
"545 121 OFFCURVE",
"484 136 OFFCURVE",
"430 165 CURVE SMOOTH",
"356 206 OFFCURVE",
"318 269 OFFCURVE",
"315 352 CURVE SMOOTH",
"312 453 OFFCURVE",
"338 531 OFFCURVE",
"393 586 CURVE SMOOTH",
"428 622 OFFCURVE",
"499 665 OFFCURVE",
"605 714 CURVE"
);
}
);
width = 1250;
}
);
note = eight;
unicode = 0038;
},
{
glyphname = nine;
lastChange = "2018-09-24 13:43:15 +0000";
layers = (
{
hints = (
{
horizontal = 1;
place = "{529, 188}";
type = Stem;
},
{
horizontal = 1;
place = "{1365, 171}";
type = Stem;
},
{
place = "{112, 192}";
type = Stem;
},
{
place = "{960, 195}";
type = Stem;
}
);
layerId = "10ADC4BD-3987-48B4-8AAC-8E23B2BCD4A9";
paths = (
{
closed = 1;
nodes = (
"901 208 OFFCURVE",
"993 337 OFFCURVE",
"1061 509 CURVE SMOOTH",
"1124 668 OFFCURVE",
"1156 833 OFFCURVE",
"1155 1002 CURVE SMOOTH",
"1154 1152 OFFCURVE",
"1103 1280 OFFCURVE",
"1000 1386 CURVE SMOOTH",
"903 1486 OFFCURVE",
"793 1536 OFFCURVE",
"670 1536 CURVE SMOOTH",
"511 1536 OFFCURVE",
"382 1496 OFFCURVE",
"284 1417 CURVE SMOOTH",
"169 1324 OFFCURVE",
"112 1184 OFFCURVE",
"112 998 CURVE SMOOTH",
"112 841 OFFCURVE",
"168 719 OFFCURVE",
"280 634 CURVE SMOOTH",
"372 564 OFFCURVE",
"481 529 OFFCURVE",
"607 529 CURVE SMOOTH",
"644 529 OFFCURVE",
"691 538 OFFCURVE",
"750 556 CURVE SMOOTH",
"809 574 OFFCURVE",
"857 594 OFFCURVE",
"894 615 CURVE",
"851 529 LINE SMOOTH",
"802 428 OFFCURVE",
"747 351 OFFCURVE",
"687 296 CURVE SMOOTH",
"627 241 OFFCURVE",
"545 193 OFFCURVE",
"442 151 CURVE",
"275 94 LINE",
"230 74 OFFCURVE",
"207 44 OFFCURVE",
"207 5 CURVE SMOOTH",
"207 -22 OFFCURVE",
"216 -45 OFFCURVE",
"234 -65 CURVE SMOOTH",
"251 -85 OFFCURVE",
"274 -95 OFFCURVE",
"301 -95 CURVE SMOOTH",
"348 -95 OFFCURVE",
"431 -66 OFFCURVE",
"550 -9 CURVE SMOOTH",
"657 42 OFFCURVE",
"735 85 OFFCURVE",
"784 121 CURVE SMOOTH"
);
},
{
closed = 1;
nodes = (
"714 1365 OFFCURVE",
"785 1325 OFFCURVE",
"855 1246 CURVE SMOOTH",
"924 1167 OFFCURVE",
"959 1085 OFFCURVE",
"960 1002 CURVE SMOOTH",
"960 968 OFFCURVE",
"956 922 OFFCURVE",
"947 864 CURVE",
"878 813 OFFCURVE",
"830 780 OFFCURVE",
"803 765 CURVE SMOOTH",
"745 733 OFFCURVE",
"689 717 OFFCURVE",
"636 717 CURVE SMOOTH",
"544 717 OFFCURVE",
"468 741 OFFCURVE",
"407 788 CURVE SMOOTH",
"338 842 OFFCURVE",
"304 918 OFFCURVE",
"304 1016 CURVE SMOOTH",
"305 1133 OFFCURVE",
"333 1220 OFFCURVE",
"390 1278 CURVE SMOOTH",
"446 1336 OFFCURVE",
"530 1365 OFFCURVE",
"642 1365 CURVE SMOOTH"
);
}
);
width = 1250;
}
);
note = nine;
unicode = 0039;
},
{
glyphname = colon;
lastChange = "2018-09-24 13:43:15 +0000";
layers = (
{
hints = (
{
horizontal = 1;
place = "{123, 1006}";
type = Stem;
},
{
place = "{209, 205}";
type = Stem;
}
);
layerId = "10ADC4BD-3987-48B4-8AAC-8E23B2BCD4A9";
paths = (
{
closed = 1;
nodes = (
"414 365 OFFCURVE",
"377 434 OFFCURVE",
"302 434 CURVE SMOOTH",
"273 434 OFFCURVE",
"249 425 OFFCURVE",
"228 406 CURVE SMOOTH",
"207 387 OFFCURVE",
"196 364 OFFCURVE",
"196 336 CURVE SMOOTH",
"196 324 OFFCURVE",
"198 306 OFFCURVE",
"203 282 CURVE",
"207 257 OFFCURVE",
"209 239 OFFCURVE",
"209 226 CURVE SMOOTH",
"209 196 OFFCURVE",
"219 171 OFFCURVE",
"238 152 CURVE SMOOTH",
"257 133 OFFCURVE",
"281 123 OFFCURVE",
"311 123 CURVE SMOOTH",
"341 123 OFFCURVE",
"366 133 OFFCURVE",
"385 152 CURVE SMOOTH",
"404 171 OFFCURVE",
"414 196 OFFCURVE",
"414 226 CURVE SMOOTH"
);
},
{
closed = 1;
nodes = (
"397 1071 OFFCURVE",
"360 1129 OFFCURVE",
"287 1129 CURVE SMOOTH",
"258 1129 OFFCURVE",
"233 1120 OFFCURVE",
"213 1101 CURVE SMOOTH",
"193 1082 OFFCURVE",
"183 1059 OFFCURVE",
"183 1030 CURVE SMOOTH",
"183 1021 OFFCURVE",
"185 1009 OFFCURVE",
"188 993 CURVE SMOOTH",
"191 976 OFFCURVE",
"192 964 OFFCURVE",
"192 956 CURVE SMOOTH",
"192 926 OFFCURVE",
"202 901 OFFCURVE",
"221 882 CURVE SMOOTH",
"240 863 OFFCURVE",
"265 853 OFFCURVE",
"295 853 CURVE SMOOTH",
"325 853 OFFCURVE",
"350 863 OFFCURVE",
"369 882 CURVE SMOOTH",
"388 901 OFFCURVE",
"397 926 OFFCURVE",
"397 956 CURVE SMOOTH"
);
}
);
width = 612;
}
);
note = colon;
unicode = 003A;
},
{
glyphname = semicolon;
lastChange = "2018-09-24 13:43:15 +0000";
layers = (
{
hints = (
{
horizontal = 1;
place = "{-194, 1318}";
type = Stem;
},
{
place = "{207, 204}";
type = Stem;
}
);
layerId = "10ADC4BD-3987-48B4-8AAC-8E23B2BCD4A9";
paths = (
{
closed = 1;
nodes = (
"411 1066 OFFCURVE",
"374 1124 OFFCURVE",
"301 1124 CURVE SMOOTH",
"272 1124 OFFCURVE",
"248 1115 OFFCURVE",
"228 1096 CURVE SMOOTH",
"207 1077 OFFCURVE",
"197 1053 OFFCURVE",
"197 1024 CURVE SMOOTH",
"197 1016 OFFCURVE",
"199 1004 OFFCURVE",
"202 988 CURVE SMOOTH",
"205 971 OFFCURVE",
"207 959 OFFCURVE",
"207 950 CURVE SMOOTH",
"207 921 OFFCURVE",
"217 896 OFFCURVE",
"236 877 CURVE SMOOTH",
"255 858 OFFCURVE",
"280 848 OFFCURVE",
"309 848 CURVE SMOOTH",
"338 848 OFFCURVE",
"363 858 OFFCURVE",
"382 877 CURVE SMOOTH",
"401 896 OFFCURVE",
"411 921 OFFCURVE",
"411 950 CURVE SMOOTH"
);
},
{
closed = 1;
nodes = (
"223 -194 OFFCURVE",
"252 -166 OFFCURVE",
"259 -109 CURVE SMOOTH",
"262 -83 OFFCURVE",
"288 -41 OFFCURVE",
"336 16 CURVE SMOOTH",
"383 71 OFFCURVE",
"406 110 OFFCURVE",
"406 134 CURVE SMOOTH",
"406 158 OFFCURVE",
"397 179 OFFCURVE",
"378 197 CURVE SMOOTH",
"359 215 OFFCURVE",
"338 224 OFFCURVE",
"314 224 CURVE SMOOTH",
"275 224 OFFCURVE",
"226 180 OFFCURVE",
"167 92 CURVE SMOOTH",
"110 7 OFFCURVE",
"81 -57 OFFCURVE",
"81 -100 CURVE SMOOTH",
"81 -163 OFFCURVE",
"111 -194 OFFCURVE",
"171 -194 CURVE SMOOTH"
);
}
);
width = 612;
}
);
note = semicolon;
unicode = "003B,037E";
},
{
glyphname = less;
lastChange = "2018-09-24 13:43:15 +0000";
layers = (
{
hints = (
{
horizontal = 1;
place = "{194, 867}";
type = Stem;
},
{
place = "{19, 608}";
type = Stem;
}
);
layerId = "10ADC4BD-3987-48B4-8AAC-8E23B2BCD4A9";
paths = (
{
closed = 1;
nodes = (
"433 740 OFFCURVE",
"533 837 OFFCURVE",
"597 905 CURVE SMOOTH",
"617 925 OFFCURVE",
"627 946 OFFCURVE",
"627 969 CURVE SMOOTH",
"627 994 OFFCURVE",
"618 1015 OFFCURVE",
"600 1034 CURVE",
"581 1052 OFFCURVE",
"560 1061 OFFCURVE",
"536 1061 CURVE SMOOTH",
"516 1061 OFFCURVE",
"496 1053 OFFCURVE",
"477 1037 CURVE SMOOTH",
"457 1020 OFFCURVE",
"395 958 OFFCURVE",
"292 850 CURVE SMOOTH",
"218 772 OFFCURVE",
"150 718 OFFCURVE",
"88 688 CURVE SMOOTH",
"42 666 OFFCURVE",
"19 638 OFFCURVE",
"19 605 CURVE SMOOTH",
"19 568 OFFCURVE",
"44 541 OFFCURVE",
"95 522 CURVE SMOOTH",
"157 498 OFFCURVE",
"221 451 OFFCURVE",
"288 381 CURVE SMOOTH",
"375 290 OFFCURVE",
"432 234 OFFCURVE",
"459 215 CURVE SMOOTH",
"478 201 OFFCURVE",
"496 194 OFFCURVE",
"515 194 CURVE SMOOTH",
"539 194 OFFCURVE",
"560 203 OFFCURVE",
"578 222 CURVE SMOOTH",
"596 241 OFFCURVE",
"605 262 OFFCURVE",
"605 287 CURVE SMOOTH",
"605 312 OFFCURVE",
"593 334 OFFCURVE",
"569 355 CURVE SMOOTH",
"545 376 OFFCURVE",
"501 420 OFFCURVE",
"436 487 CURVE SMOOTH",
"381 544 OFFCURVE",
"335 587 OFFCURVE",
"298 614 CURVE"
);
}
);
width = 781;
}
);
note = less;
unicode = 003C;
},
{
glyphname = equal;
lastChange = "2018-09-24 13:43:15 +0000";
layers = (
{
hints = (
{
horizontal = 1;
place = "{383, 178}";
type = Stem;
},
{
horizontal = 1;
place = "{723, 178}";
type = Stem;
},
{
place = "{-119, 1007}";
type = Stem;
}
);
layerId = "10ADC4BD-3987-48B4-8AAC-8E23B2BCD4A9";
paths = (
{
closed = 1;
nodes = (
"324 902 LINE SMOOTH",
"99 903 OFFCURVE",
"-20 903 OFFCURVE",
"-35 902 CURVE",
"-91 891 OFFCURVE",
"-119 862 OFFCURVE",
"-119 814 CURVE SMOOTH",
"-119 789 OFFCURVE",
"-111 767 OFFCURVE",
"-95 750 CURVE SMOOTH",
"-78 733 OFFCURVE",
"-57 724 OFFCURVE",
"-31 724 CURVE SMOOTH",
"-16 724 OFFCURVE",
"6 724 OFFCURVE",
"37 725 CURVE SMOOTH",
"67 725 OFFCURVE",
"162 725 OFFCURVE",
"323 724 CURVE SMOOTH",
"791 723 LINE SMOOTH",
"850 723 OFFCURVE",
"880 753 OFFCURVE",
"880 812 CURVE SMOOTH",
"880 871 OFFCURVE",
"850 901 OFFCURVE",
"791 901 CURVE SMOOTH"
);
},
{
closed = 1;
nodes = (
"208 564 OFFCURVE",
"74 563 OFFCURVE",
"0 558 CURVE SMOOTH",
"-57 554 OFFCURVE",
"-86 524 OFFCURVE",
"-86 469 CURVE SMOOTH",
"-86 410 OFFCURVE",
"-55 380 OFFCURVE",
"6 380 CURVE SMOOTH",
"25 380 OFFCURVE",
"91 381 OFFCURVE",
"204 382 CURVE SMOOTH",
"317 383 OFFCURVE",
"383 383 OFFCURVE",
"403 383 CURVE SMOOTH",
"447 383 OFFCURVE",
"513 382 OFFCURVE",
"601 380 CURVE SMOOTH",
"689 378 OFFCURVE",
"755 377 OFFCURVE",
"799 377 CURVE SMOOTH",
"858 377 OFFCURVE",
"888 407 OFFCURVE",
"888 466 CURVE SMOOTH",
"888 525 OFFCURVE",
"858 555 OFFCURVE",
"799 555 CURVE SMOOTH",
"755 555 OFFCURVE",
"689 556 OFFCURVE",
"601 558 CURVE SMOOTH",
"513 560 OFFCURVE",
"447 561 OFFCURVE",
"403 561 CURVE SMOOTH"
);
}
);
width = 1045;
}
);
note = equal;
unicode = 003D;
},
{
glyphname = greater;
lastChange = "2018-09-24 13:43:15 +0000";
layers = (
{
hints = (
{
horizontal = 1;
place = "{186, 939}";
type = Stem;
},
{
place = "{58, 678}";
type = Stem;
}
);
layerId = "10ADC4BD-3987-48B4-8AAC-8E23B2BCD4A9";
paths = (
{
closed = 1;
nodes = (
"736 694 OFFCURVE",
"716 720 OFFCURVE",
"677 740 CURVE SMOOTH",
"554 804 OFFCURVE",
"416 921 OFFCURVE",
"264 1091 CURVE SMOOTH",
"244 1114 OFFCURVE",
"222 1125 OFFCURVE",
"197 1125 CURVE SMOOTH",
"173 1125 OFFCURVE",
"152 1116 OFFCURVE",
"133 1098 CURVE SMOOTH",
"114 1080 OFFCURVE",
"105 1059 OFFCURVE",
"105 1035 CURVE SMOOTH",
"105 996 OFFCURVE",
"158 927 OFFCURVE",
"265 826 CURVE SMOOTH",
"352 745 OFFCURVE",
"426 684 OFFCURVE",
"485 645 CURVE",
"97 349 LINE SMOOTH",
"71 329 OFFCURVE",
"58 306 OFFCURVE",
"58 279 CURVE SMOOTH",
"58 255 OFFCURVE",
"67 234 OFFCURVE",
"85 215 CURVE SMOOTH",
"102 196 OFFCURVE",
"123 186 OFFCURVE",
"147 186 CURVE SMOOTH",
"164 186 OFFCURVE",
"181 192 OFFCURVE",
"200 204 CURVE SMOOTH",
"374 315 OFFCURVE",
"540 445 OFFCURVE",
"699 592 CURVE SMOOTH",
"724 615 OFFCURVE",
"736 639 OFFCURVE",
"736 663 CURVE SMOOTH"
);
}
);
width = 781;
}
);
note = greater;
unicode = 003E;
},
{
glyphname = question;
lastChange = "2018-09-24 13:43:15 +0000";
layers = (
{
hints = (
{
horizontal = 1;
place = "{1273, 205}";
type = Stem;
},
{
place = "{764, 197}";
type = Stem;
}
);
layerId = "10ADC4BD-3987-48B4-8AAC-8E23B2BCD4A9";
paths = (
{
closed = 1;
nodes = (
"398 308 OFFCURVE",
"423 322 OFFCURVE",
"446 349 CURVE SMOOTH",
"486 395 OFFCURVE",
"557 455 OFFCURVE",
"659 529 CURVE SMOOTH",
"760 601 OFFCURVE",
"830 660 OFFCURVE",
"867 705 CURVE SMOOTH",
"930 780 OFFCURVE",
"961 867 OFFCURVE",
"961 964 CURVE SMOOTH",
"961 1097 OFFCURVE",
"906 1216 OFFCURVE",
"797 1321 CURVE SMOOTH",
"688 1426 OFFCURVE",
"566 1478 OFFCURVE",
"432 1478 CURVE SMOOTH",
"372 1478 OFFCURVE",
"296 1455 OFFCURVE",
"205 1408 CURVE SMOOTH",
"103 1356 OFFCURVE",
"52 1304 OFFCURVE",
"52 1251 CURVE SMOOTH",
"52 1224 OFFCURVE",
"62 1199 OFFCURVE",
"82 1177 CURVE SMOOTH",
"101 1155 OFFCURVE",
"125 1144 OFFCURVE",
"152 1144 CURVE SMOOTH",
"167 1144 OFFCURVE",
"207 1166 OFFCURVE",
"272 1209 CURVE SMOOTH",
"337 1252 OFFCURVE",
"390 1273 OFFCURVE",
"432 1273 CURVE SMOOTH",
"511 1273 OFFCURVE",
"585 1241 OFFCURVE",
"655 1178 CURVE SMOOTH",
"728 1113 OFFCURVE",
"764 1041 OFFCURVE",
"764 964 CURVE SMOOTH",
"764 903 OFFCURVE",
"721 835 OFFCURVE",
"635 761 CURVE",
"396 581 LINE SMOOTH",
"311 514 OFFCURVE",
"268 457 OFFCURVE",
"268 411 CURVE SMOOTH",
"268 384 OFFCURVE",
"278 361 OFFCURVE",
"299 340 CURVE SMOOTH",
"320 319 OFFCURVE",
"344 308 OFFCURVE",
"371 308 CURVE SMOOTH"
);
},
{
closed = 1;
nodes = (
"350 -72 OFFCURVE",
"378 -55 OFFCURVE",
"399 -20 CURVE SMOOTH",
"416 9 OFFCURVE",
"425 42 OFFCURVE",
"425 79 CURVE SMOOTH",
"425 158 OFFCURVE",
"393 197 OFFCURVE",
"329 197 CURVE SMOOTH",
"290 197 OFFCURVE",
"259 178 OFFCURVE",
"234 141 CURVE SMOOTH",
"212 108 OFFCURVE",
"201 70 OFFCURVE",
"201 29 CURVE SMOOTH",
"201 1 OFFCURVE",
"213 -23 OFFCURVE",
"237 -43 CURVE SMOOTH",
"260 -62 OFFCURVE",
"287 -72 OFFCURVE",
"316 -72 CURVE SMOOTH"
);
}
);
width = 1073;
}
);
note = question;
unicode = 003F;
},
{
glyphname = at;
lastChange = "2018-09-24 13:43:15 +0000";
layers = (
{
hints = (
{
horizontal = 1;
place = "{-140, 194}";
type = Stem;
},
{
horizontal = 1;
place = "{412, 205}";
type = Stem;
},
{
horizontal = 1;
place = "{1425, 205}";
type = Stem;
},
{
place = "{110, 206}";
type = Stem;
},
{
place = "{485, 205}";
type = Stem;
},
{
place = "{1548, 205}";
type = Stem;
},
{
horizontal = 1;
place = "{428, 205}";
type = Stem;
}
);
layerId = "10ADC4BD-3987-48B4-8AAC-8E23B2BCD4A9";
paths = (
{
closed = 1;
nodes = (
"1454 412 OFFCURVE",
"1566 454 OFFCURVE",
"1643 537 CURVE SMOOTH",
"1716 618 OFFCURVE",
"1753 733 OFFCURVE",
"1753 883 CURVE SMOOTH",
"1753 1102 OFFCURVE",
"1669 1284 OFFCURVE",
"1500 1427 CURVE SMOOTH",
"1339 1562 OFFCURVE",
"1146 1630 OFFCURVE",
"921 1630 CURVE SMOOTH",
"672 1630 OFFCURVE",
"472 1538 OFFCURVE",
"322 1354 CURVE SMOOTH",
"181 1182 OFFCURVE",
"110 968 OFFCURVE",
"110 712 CURVE SMOOTH",
"110 456 OFFCURVE",
"213 239 OFFCURVE",
"420 60 CURVE SMOOTH",
"490 -1 OFFCURVE",
"574 -49 OFFCURVE",
"673 -86 CURVE SMOOTH",
"771 -122 OFFCURVE",
"867 -140 OFFCURVE",
"961 -140 CURVE SMOOTH",
"1054 -140 OFFCURVE",
"1155 -125 OFFCURVE",
"1262 -96 CURVE SMOOTH",
"1404 -57 OFFCURVE",
"1475 -5 OFFCURVE",
"1475 58 CURVE SMOOTH",
"1475 87 OFFCURVE",
"1465 112 OFFCURVE",
"1445 134 CURVE SMOOTH",
"1425 155 OFFCURVE",
"1401 166 OFFCURVE",
"1374 166 CURVE SMOOTH",
"1365 166 OFFCURVE",
"1346 161 OFFCURVE",
"1317 150 CURVE SMOOTH",
"1142 85 LINE",
"1074 64 OFFCURVE",
"1013 54 OFFCURVE",
"959 54 CURVE SMOOTH",
"768 54 OFFCURVE",
"612 119 OFFCURVE",
"491 250 CURVE SMOOTH",
"374 375 OFFCURVE",
"316 529 OFFCURVE",
"316 712 CURVE SMOOTH",
"316 910 OFFCURVE",
"366 1074 OFFCURVE",
"465 1205 CURVE SMOOTH",
"575 1352 OFFCURVE",
"727 1425 OFFCURVE",
"921 1425 CURVE SMOOTH",
"1088 1425 OFFCURVE",
"1231 1378 OFFCURVE",
"1351 1283 CURVE SMOOTH",
"1482 1180 OFFCURVE",
"1548 1046 OFFCURVE",
"1548 883 CURVE SMOOTH",
"1548 790 OFFCURVE",
"1531 724 OFFCURVE",
"1498 684 CURVE SMOOTH",
"1461 639 OFFCURVE",
"1397 617 OFFCURVE",
"1306 617 CURVE SMOOTH",
"1257 617 OFFCURVE",
"1226 619 OFFCURVE",
"1211 624 CURVE SMOOTH",
"1174 635 OFFCURVE",
"1155 663 OFFCURVE",
"1155 706 CURVE SMOOTH",
"1155 719 OFFCURVE",
"1157 739 OFFCURVE",
"1162 766 CURVE",
"1166 793 OFFCURVE",
"1168 813 OFFCURVE",
"1168 826 CURVE SMOOTH",
"1168 856 OFFCURVE",
"1159 881 OFFCURVE",
"1142 902 CURVE SMOOTH",
"1125 923 OFFCURVE",
"1102 933 OFFCURVE",
"1074 933 CURVE SMOOTH",
"1039 933 OFFCURVE",
"1000 887 OFFCURVE",
"955 795 CURVE SMOOTH",
"906 690 OFFCURVE",
"852 636 OFFCURVE",
"794 633 CURVE SMOOTH",
"763 632 OFFCURVE",
"738 641 OFFCURVE",
"717 661 CURVE SMOOTH",
"699 679 OFFCURVE",
"690 698 OFFCURVE",
"690 717 CURVE SMOOTH",
"690 809 OFFCURVE",
"717 879 OFFCURVE",
"771 926 CURVE SMOOTH",
"808 959 OFFCURVE",
"870 988 OFFCURVE",
"959 1013 CURVE SMOOTH",
"1026 1032 OFFCURVE",
"1059 1062 OFFCURVE",
"1059 1102 CURVE SMOOTH",
"1059 1131 OFFCURVE",
"1050 1156 OFFCURVE",
"1031 1177 CURVE SMOOTH",
"1012 1198 OFFCURVE",
"989 1208 OFFCURVE",
"961 1208 CURVE SMOOTH",
"838 1208 OFFCURVE",
"728 1157 OFFCURVE",
"631 1055 CURVE SMOOTH",
"534 953 OFFCURVE",
"485 840 OFFCURVE",
"485 717 CURVE SMOOTH",
"485 645 OFFCURVE",
"518 579 OFFCURVE",
"584 519 CURVE SMOOTH",
"649 458 OFFCURVE",
"719 428 OFFCURVE",
"793 428 CURVE SMOOTH",
"826 428 OFFCURVE",
"859 437 OFFCURVE",
"894 455 CURVE SMOOTH",
"928 473 OFFCURVE",
"963 500 OFFCURVE",
"999 535 CURVE",
"1030 494 OFFCURVE",
"1072 464 OFFCURVE",
"1123 443 CURVE SMOOTH",
"1174 422 OFFCURVE",
"1235 412 OFFCURVE",
"1306 412 CURVE SMOOTH"
);
}
);
width = 1907;
}
);
note = at;
unicode = 0040;
},
{
glyphname = A;
lastChange = "2018-09-24 13:43:15 +0000";
layers = (
{
hints = (
{
horizontal = 1;
place = "{-30, 1508}";
type = Stem;
},
{
place = "{131, 1221}";
type = Stem;
}
);
layerId = "10ADC4BD-3987-48B4-8AAC-8E23B2BCD4A9";
paths = (
{
closed = 1;
nodes = (
"1277 -30 OFFCURVE",
"1300 -20 OFFCURVE",
"1321 -1 CURVE SMOOTH",
"1342 18 OFFCURVE",
"1352 42 OFFCURVE",
"1352 71 CURVE SMOOTH",
"1352 89 OFFCURVE",
"1342 125 OFFCURVE",
"1323 179 CURVE SMOOTH",
"1266 337 LINE",
"1117 1032 LINE",
"1054 1368 LINE",
"1035 1441 OFFCURVE",
"999 1478 OFFCURVE",
"946 1478 CURVE SMOOTH",
"907 1478 OFFCURVE",
"809 1352 OFFCURVE",
"651 1099 CURVE SMOOTH",
"535 914 OFFCURVE",
"439 750 OFFCURVE",
"363 607 CURVE",
"298 592 OFFCURVE",
"265 557 OFFCURVE",
"265 503 CURVE SMOOTH",
"265 480 OFFCURVE",
"271 460 OFFCURVE",
"282 443 CURVE",
"181 232 OFFCURVE",
"131 110 OFFCURVE",
"131 78 CURVE SMOOTH",
"131 49 OFFCURVE",
"142 25 OFFCURVE",
"163 6 CURVE SMOOTH",
"184 -13 OFFCURVE",
"207 -23 OFFCURVE",
"234 -23 CURVE SMOOTH",
"271 -23 OFFCURVE",
"300 -4 OFFCURVE",
"321 33 CURVE",
"402 201 OFFCURVE",
"459 329 OFFCURVE",
"492 416 CURVE",
"758 471 LINE SMOOTH",
"868 495 OFFCURVE",
"957 512 OFFCURVE",
"1025 521 CURVE",
"1051 371 OFFCURVE",
"1073 266 OFFCURVE",
"1090 206 CURVE SMOOTH",
"1135 49 OFFCURVE",
"1189 -30 OFFCURVE",
"1250 -30 CURVE SMOOTH"
);
},
{
closed = 1;
nodes = (
"897 1113 LINE",
"978 727 LINE",
"814 698 OFFCURVE",
"692 673 OFFCURVE",
"611 652 CURVE"
);
}
);
width = 1498;
}
);
note = A;
unicode = 0041;
},
{
glyphname = B;
lastChange = "2018-09-24 13:43:15 +0000";
layers = (
{
hints = (
{
horizontal = 1;
place = "{-48, 205}";
type = Stem;
},
{
horizontal = 1;
place = "{1367, 204}";
type = Stem;
},
{
place = "{191, 198}";
type = Stem;
},
{
place = "{1011, 197}";
type = Stem;
},
{
place = "{242, 188}";
type = Stem;
},
{
place = "{911, 198}";
type = Stem;
},
{
place = "{231, 188}";
type = Stem;
}
);
layerId = "10ADC4BD-3987-48B4-8AAC-8E23B2BCD4A9";
paths = (
{
closed = 1;
nodes = (
"953 66 OFFCURVE",
"1016 106 OFFCURVE",
"1077 159 CURVE SMOOTH",
"1164 234 OFFCURVE",
"1208 312 OFFCURVE",
"1208 393 CURVE SMOOTH",
"1208 454 OFFCURVE",
"1183 511 OFFCURVE",
"1134 563 CURVE SMOOTH",
"1084 615 OFFCURVE",
"1009 662 OFFCURVE",
"909 705 CURVE",
"1042 804 OFFCURVE",
"1109 939 OFFCURVE",
"1109 1110 CURVE SMOOTH",
"1109 1245 OFFCURVE",
"1047 1359 OFFCURVE",
"922 1451 CURVE SMOOTH",
"814 1531 OFFCURVE",
"701 1571 OFFCURVE",
"584 1571 CURVE SMOOTH",
"469 1571 OFFCURVE",
"366 1557 OFFCURVE",
"275 1529 CURVE",
"258 1518 OFFCURVE",
"247 1496 OFFCURVE",
"242 1463 CURVE",
"234 1342 OFFCURVE",
"230 1250 OFFCURVE",
"231 1189 CURVE SMOOTH",
"230 1104 OFFCURVE",
"222 966 OFFCURVE",
"209 775 CURVE SMOOTH",
"197 598 OFFCURVE",
"191 462 OFFCURVE",
"191 367 CURVE SMOOTH",
"191 76 LINE SMOOTH",
"191 47 OFFCURVE",
"204 20 OFFCURVE",
"230 -8 CURVE SMOOTH",
"255 -35 OFFCURVE",
"282 -48 OFFCURVE",
"311 -48 CURVE SMOOTH",
"544 -48 OFFCURVE",
"736 -19 OFFCURVE",
"886 40 CURVE SMOOTH"
);
},
{
closed = 1;
nodes = (
"662 1367 OFFCURVE",
"736 1340 OFFCURVE",
"806 1286 CURVE SMOOTH",
"876 1232 OFFCURVE",
"911 1173 OFFCURVE",
"911 1110 CURVE SMOOTH",
"911 1017 OFFCURVE",
"877 940 OFFCURVE",
"808 881 CURVE SMOOTH",
"744 826 OFFCURVE",
"662 795 OFFCURVE",
"561 787 CURVE",
"554 786 OFFCURVE",
"504 790 OFFCURVE",
"409 798 CURVE",
"429 1185 LINE",
"431 1360 LINE",
"460 1365 OFFCURVE",
"511 1367 OFFCURVE",
"584 1367 CURVE SMOOTH"
);
},
{
closed = 1;
nodes = (
"696 566 LINE",
"757 551 OFFCURVE",
"819 529 OFFCURVE",
"883 499 CURVE SMOOTH",
"968 460 OFFCURVE",
"1011 424 OFFCURVE",
"1011 393 CURVE SMOOTH",
"1011 376 OFFCURVE",
"991 350 OFFCURVE",
"950 315 CURVE SMOOTH",
"907 277 OFFCURVE",
"863 249 OFFCURVE",
"816 231 CURVE SMOOTH",
"706 188 OFFCURVE",
"564 163 OFFCURVE",
"389 157 CURVE",
"389 364 LINE SMOOTH",
"389 430 OFFCURVE",
"391 505 OFFCURVE",
"395 589 CURVE",
"436 583 OFFCURVE",
"474 580 OFFCURVE",
"510 580 CURVE SMOOTH",
"519 580 OFFCURVE",
"533 581 OFFCURVE",
"551 582 CURVE SMOOTH",
"568 583 OFFCURVE",
"581 583 OFFCURVE",
"590 583 CURVE"
);
}
);
width = 1291;
}
);
note = B;
unicode = 0042;
},
{
glyphname = C;
lastChange = "2018-09-24 13:43:15 +0000";
layers = (
{
hints = (
{
horizontal = 1;
place = "{-24, 205}";
type = Stem;
},
{
horizontal = 1;
place = "{1286, 205}";
type = Stem;
},
{
place = "{90, 200}";
type = Stem;
}
);
layerId = "10ADC4BD-3987-48B4-8AAC-8E23B2BCD4A9";
paths = (
{
closed = 1;
nodes = (
"1137 1122 OFFCURVE",
"1163 1135 OFFCURVE",
"1181 1161 CURVE SMOOTH",
"1196 1182 OFFCURVE",
"1203 1206 OFFCURVE",
"1203 1233 CURVE SMOOTH",
"1203 1312 OFFCURVE",
"1198 1378 OFFCURVE",
"1187 1432 CURVE SMOOTH",
"1175 1493 OFFCURVE",
"1146 1523 OFFCURVE",
"1100 1523 CURVE SMOOTH",
"1063 1523 OFFCURVE",
"1032 1506 OFFCURVE",
"1009 1472 CURVE",
"989 1479 OFFCURVE",
"966 1484 OFFCURVE",
"940 1487 CURVE SMOOTH",
"914 1490 OFFCURVE",
"885 1491 OFFCURVE",
"852 1491 CURVE SMOOTH",
"691 1491 OFFCURVE",
"532 1392 OFFCURVE",
"374 1194 CURVE SMOOTH",
"185 957 OFFCURVE",
"90 725 OFFCURVE",
"90 499 CURVE SMOOTH",
"90 359 OFFCURVE",
"136 238 OFFCURVE",
"228 135 CURVE SMOOTH",
"323 29 OFFCURVE",
"440 -24 OFFCURVE",
"578 -24 CURVE SMOOTH",
"758 -24 OFFCURVE",
"936 54 OFFCURVE",
"1112 210 CURVE SMOOTH",
"1137 233 OFFCURVE",
"1150 259 OFFCURVE",
"1150 289 CURVE SMOOTH",
"1150 316 OFFCURVE",
"1140 340 OFFCURVE",
"1121 362 CURVE SMOOTH",
"1102 383 OFFCURVE",
"1078 394 OFFCURVE",
"1049 394 CURVE SMOOTH",
"1030 394 OFFCURVE",
"1001 380 OFFCURVE",
"963 352 CURVE SMOOTH",
"883 293 OFFCURVE",
"824 254 OFFCURVE",
"785 234 CURVE SMOOTH",
"716 199 OFFCURVE",
"647 181 OFFCURVE",
"578 181 CURVE SMOOTH",
"498 181 OFFCURVE",
"430 213 OFFCURVE",
"373 277 CURVE SMOOTH",
"318 339 OFFCURVE",
"290 413 OFFCURVE",
"290 499 CURVE SMOOTH",
"290 677 OFFCURVE",
"370 865 OFFCURVE",
"530 1064 CURVE SMOOTH",
"648 1212 OFFCURVE",
"755 1286 OFFCURVE",
"852 1286 CURVE SMOOTH",
"907 1286 OFFCURVE",
"942 1282 OFFCURVE",
"956 1275 CURVE",
"972 1266 OFFCURVE",
"989 1240 OFFCURVE",
"1008 1197 CURVE SMOOTH",
"1029 1147 OFFCURVE",
"1061 1122 OFFCURVE",
"1104 1122 CURVE SMOOTH"
);
}
);
width = 1234;
}
);
note = C;
unicode = 0043;
},
{
glyphname = D;
lastChange = "2018-09-24 13:43:15 +0000";
layers = (
{
hints = (
{
horizontal = 1;
place = "{-99, 201}";
type = Stem;
},
{
place = "{202, 199.5}";
type = Stem;
},
{
place = "{1174, 202}";
type = Stem;
}
);
layerId = "10ADC4BD-3987-48B4-8AAC-8E23B2BCD4A9";
paths = (
{
closed = 1;
nodes = (
"1169 70 OFFCURVE",
"1242 154 OFFCURVE",
"1296 259 CURVE SMOOTH",
"1349 364 OFFCURVE",
"1376 473 OFFCURVE",
"1376 587 CURVE SMOOTH",
"1376 776 OFFCURVE",
"1298 950 OFFCURVE",
"1141 1108 CURVE SMOOTH",
"1008 1242 OFFCURVE",
"846 1341 OFFCURVE",
"657 1406 CURVE SMOOTH",
"641 1411 OFFCURVE",
"582 1439 OFFCURVE",
"479 1489 CURVE SMOOTH",
"388 1534 OFFCURVE",
"335 1556 OFFCURVE",
"319 1556 CURVE SMOOTH",
"291 1556 OFFCURVE",
"263 1541 OFFCURVE",
"235 1511 CURVE SMOOTH",
"207 1481 OFFCURVE",
"193 1452 OFFCURVE",
"193 1425 CURVE SMOOTH",
"193 1347 OFFCURVE",
"195 1231 OFFCURVE",
"198 1076 CURVE SMOOTH",
"201 921 OFFCURVE",
"202 804 OFFCURVE",
"202 726 CURVE SMOOTH",
"202 656 OFFCURVE",
"199 551 OFFCURVE",
"193 412 CURVE SMOOTH",
"186 272 OFFCURVE",
"183 167 OFFCURVE",
"183 97 CURVE SMOOTH",
"183 68 OFFCURVE",
"193 44 OFFCURVE",
"212 24 CURVE SMOOTH",
"231 4 OFFCURVE",
"255 -6 OFFCURVE",
"284 -6 CURVE SMOOTH",
"294 -6 LINE",
"332 -35 OFFCURVE",
"389 -58 OFFCURVE",
"464 -76 CURVE SMOOTH",
"527 -91 OFFCURVE",
"582 -99 OFFCURVE",
"631 -99 CURVE SMOOTH",
"824 -99 OFFCURVE",
"973 -64 OFFCURVE",
"1076 7 CURVE SMOOTH"
);
},
{
closed = 1;
nodes = (
"1071 931 OFFCURVE",
"1174 770 OFFCURVE",
"1174 582 CURVE SMOOTH",
"1174 501 OFFCURVE",
"1155 424 OFFCURVE",
"1117 350 CURVE SMOOTH",
"1078 275 OFFCURVE",
"1027 216 OFFCURVE",
"962 172 CURVE SMOOTH",
"893 125 OFFCURVE",
"782 102 OFFCURVE",
"630 102 CURVE SMOOTH",
"541 102 OFFCURVE",
"467 122 OFFCURVE",
"408 161 CURVE",
"399 168 OFFCURVE",
"392 172 OFFCURVE",
"387 174 CURVE",
"403 720 LINE",
"400 1007 LINE",
"395 1295 LINE",
"641 1186 OFFCURVE",
"798 1110 OFFCURVE",
"866 1065 CURVE SMOOTH"
);
}
);
width = 1478;
}
);
note = D;
unicode = 0044;
},
{
glyphname = E;
lastChange = "2018-09-24 13:43:15 +0000";
layers = (
{
hints = (
{
horizontal = 1;
place = "{-99, 204}";
type = Stem;
},
{
horizontal = 1;
place = "{1399, 206}";
type = Stem;
},
{
place = "{140, 200}";
type = Stem;
},
{
place = "{179, 200}";
type = Stem;
},
{
place = "{151, 198}";
type = Stem;
}
);
layerId = "10ADC4BD-3987-48B4-8AAC-8E23B2BCD4A9";
paths = (
{
closed = 1;
nodes = (
"1144 1346 OFFCURVE",
"1168 1357 OFFCURVE",
"1187 1380 CURVE SMOOTH",
"1204 1401 OFFCURVE",
"1213 1424 OFFCURVE",
"1213 1451 CURVE SMOOTH",
"1213 1497 OFFCURVE",
"1191 1529 OFFCURVE",
"1146 1547 CURVE SMOOTH",
"1049 1586 OFFCURVE",
"920 1605 OFFCURVE",
"758 1605 CURVE SMOOTH",
"695 1605 OFFCURVE",
"629 1600 OFFCURVE",
"558 1589 CURVE SMOOTH",
"487 1578 OFFCURVE",
"411 1562 OFFCURVE",
"331 1541 CURVE",
"311 1560 OFFCURVE",
"287 1570 OFFCURVE",
"259 1570 CURVE SMOOTH",
"192 1570 OFFCURVE",
"159 1530 OFFCURVE",
"159 1451 CURVE SMOOTH",
"159 1426 OFFCURVE",
"162 1390 OFFCURVE",
"169 1343 CURVE SMOOTH",
"176 1295 OFFCURVE",
"179 1259 OFFCURVE",
"179 1234 CURVE SMOOTH",
"179 1142 OFFCURVE",
"172 1000 OFFCURVE",
"159 807 CURVE",
"146 789 OFFCURVE",
"140 769 OFFCURVE",
"140 746 CURVE SMOOTH",
"140 729 OFFCURVE",
"144 712 OFFCURVE",
"151 697 CURVE",
"148 638 OFFCURVE",
"145 584 OFFCURVE",
"143 533 CURVE SMOOTH",
"141 482 OFFCURVE",
"140 436 OFFCURVE",
"140 393 CURVE SMOOTH",
"140 179 OFFCURVE",
"172 42 OFFCURVE",
"236 -17 CURVE SMOOTH",
"295 -72 OFFCURVE",
"427 -99 OFFCURVE",
"634 -99 CURVE SMOOTH",
"843 -99 OFFCURVE",
"978 -93 OFFCURVE",
"1041 -80 CURVE SMOOTH",
"1098 -69 OFFCURVE",
"1126 -35 OFFCURVE",
"1126 21 CURVE SMOOTH",
"1126 90 OFFCURVE",
"1091 125 OFFCURVE",
"1020 125 CURVE SMOOTH",
"1007 125 OFFCURVE",
"988 123 OFFCURVE",
"962 119 CURVE",
"936 114 OFFCURVE",
"916 112 OFFCURVE",
"903 112 CURVE SMOOTH",
"861 112 OFFCURVE",
"799 111 OFFCURVE",
"716 109 CURVE SMOOTH",
"633 106 OFFCURVE",
"570 105 OFFCURVE",
"529 105 CURVE SMOOTH",
"440 105 OFFCURVE",
"388 114 OFFCURVE",
"372 133 CURVE SMOOTH",
"351 159 OFFCURVE",
"340 246 OFFCURVE",
"340 393 CURVE SMOOTH",
"340 430 OFFCURVE",
"341 469 OFFCURVE",
"343 512 CURVE SMOOTH",
"344 554 OFFCURVE",
"346 599 OFFCURVE",
"349 646 CURVE",
"811 688 LINE",
"1049 709 LINE SMOOTH",
"1110 716 OFFCURVE",
"1141 750 OFFCURVE",
"1141 811 CURVE SMOOTH",
"1141 842 OFFCURVE",
"1131 867 OFFCURVE",
"1111 886 CURVE SMOOTH",
"1091 905 OFFCURVE",
"1066 914 OFFCURVE",
"1037 914 CURVE SMOOTH",
"1008 914 OFFCURVE",
"929 907 OFFCURVE",
"800 894 CURVE SMOOTH",
"362 852 LINE",
"373 1014 OFFCURVE",
"379 1141 OFFCURVE",
"379 1234 CURVE SMOOTH",
"379 1260 OFFCURVE",
"376 1295 OFFCURVE",
"370 1338 CURVE",
"445 1359 OFFCURVE",
"514 1374 OFFCURVE",
"579 1384 CURVE SMOOTH",
"644 1394 OFFCURVE",
"703 1399 OFFCURVE",
"758 1399 CURVE SMOOTH",
"863 1399 OFFCURVE",
"971 1383 OFFCURVE",
"1084 1351 CURVE SMOOTH",
"1095 1348 OFFCURVE",
"1106 1346 OFFCURVE",
"1115 1346 CURVE SMOOTH"
);
}
);
width = 1279;
}
);
note = E;
unicode = 0045;
},
{
glyphname = F;
lastChange = "2018-09-24 13:43:15 +0000";
layers = (
{
hints = (
{
horizontal = 1;
place = "{742, 206}";
type = Stem;
},
{
horizontal = 1;
place = "{1368, 205}";
type = Stem;
},
{
place = "{173, 199}";
type = Stem;
},
{
place = "{188, 198}";
type = Stem;
}
);
layerId = "10ADC4BD-3987-48B4-8AAC-8E23B2BCD4A9";
paths = (
{
closed = 1;
nodes = (
"1135 1314 OFFCURVE",
"1159 1326 OFFCURVE",
"1178 1349 CURVE SMOOTH",
"1195 1370 OFFCURVE",
"1204 1393 OFFCURVE",
"1204 1420 CURVE SMOOTH",
"1204 1469 OFFCURVE",
"1137 1509 OFFCURVE",
"1003 1540 CURVE SMOOTH",
"904 1562 OFFCURVE",
"817 1573 OFFCURVE",
"740 1573 CURVE SMOOTH",
"690 1573 OFFCURVE",
"632 1570 OFFCURVE",
"566 1563 CURVE SMOOTH",
"500 1556 OFFCURVE",
"426 1545 OFFCURVE",
"343 1530 CURVE",
"326 1542 OFFCURVE",
"306 1548 OFFCURVE",
"284 1548 CURVE SMOOTH",
"255 1548 OFFCURVE",
"231 1538 OFFCURVE",
"213 1518 CURVE SMOOTH",
"194 1498 OFFCURVE",
"185 1473 OFFCURVE",
"185 1444 CURVE SMOOTH",
"185 1415 OFFCURVE",
"186 1371 OFFCURVE",
"187 1312 CURVE SMOOTH",
"188 1253 OFFCURVE",
"188 1208 OFFCURVE",
"188 1179 CURVE SMOOTH",
"188 1048 OFFCURVE",
"186 851 OFFCURVE",
"181 588 CURVE SMOOTH",
"176 325 OFFCURVE",
"173 127 OFFCURVE",
"173 -4 CURVE SMOOTH",
"173 -33 OFFCURVE",
"183 -57 OFFCURVE",
"202 -77 CURVE SMOOTH",
"221 -96 OFFCURVE",
"244 -106 OFFCURVE",
"273 -106 CURVE SMOOTH",
"302 -106 OFFCURVE",
"325 -96 OFFCURVE",
"344 -77 CURVE SMOOTH",
"363 -57 OFFCURVE",
"372 -33 OFFCURVE",
"372 -4 CURVE SMOOTH",
"381 684 LINE",
"532 723 OFFCURVE",
"630 742 OFFCURVE",
"675 742 CURVE SMOOTH",
"710 742 OFFCURVE",
"762 739 OFFCURVE",
"831 733 CURVE SMOOTH",
"900 727 OFFCURVE",
"952 724 OFFCURVE",
"987 724 CURVE SMOOTH",
"1016 724 OFFCURVE",
"1040 734 OFFCURVE",
"1059 754 CURVE SMOOTH",
"1078 773 OFFCURVE",
"1088 798 OFFCURVE",
"1088 828 CURVE SMOOTH",
"1088 889 OFFCURVE",
"1057 923 OFFCURVE",
"994 930 CURVE SMOOTH",
"884 942 OFFCURVE",
"778 948 OFFCURVE",
"675 948 CURVE SMOOTH",
"610 948 OFFCURVE",
"514 931 OFFCURVE",
"385 897 CURVE",
"387 1329 LINE",
"460 1342 OFFCURVE",
"527 1352 OFFCURVE",
"586 1359 CURVE SMOOTH",
"645 1365 OFFCURVE",
"696 1368 OFFCURVE",
"740 1368 CURVE SMOOTH",
"876 1368 OFFCURVE",
"985 1353 OFFCURVE",
"1068 1322 CURVE SMOOTH",
"1081 1317 OFFCURVE",
"1094 1314 OFFCURVE",
"1106 1314 CURVE SMOOTH"
);
}
);
width = 1243;
}
);
note = F;
unicode = 0046;
},
{
glyphname = G;
lastChange = "2018-09-24 13:43:15 +0000";
layers = (
{
hints = (
{
horizontal = 1;
place = "{-69, 205}";
type = Stem;
},
{
horizontal = 1;
place = "{592, 208}";
type = Stem;
},
{
horizontal = 1;
place = "{1365, 206}";
type = Stem;
},
{
place = "{79, 202}";
type = Stem;
}
);
layerId = "10ADC4BD-3987-48B4-8AAC-8E23B2BCD4A9";
paths = (
{
closed = 1;
nodes = (
"1337 624 OFFCURVE",
"1355 655 OFFCURVE",
"1355 698 CURVE SMOOTH",
"1355 727 OFFCURVE",
"1345 752 OFFCURVE",
"1326 771 CURVE SMOOTH",
"1307 790 OFFCURVE",
"1283 800 OFFCURVE",
"1254 800 CURVE SMOOTH",
"901 800 OFFCURVE",
"653 756 OFFCURVE",
"509 668 CURVE SMOOTH",
"474 646 OFFCURVE",
"456 617 OFFCURVE",
"456 580 CURVE SMOOTH",
"456 553 OFFCURVE",
"465 529 OFFCURVE",
"483 508 CURVE SMOOTH",
"502 485 OFFCURVE",
"527 474 OFFCURVE",
"556 474 CURVE SMOOTH",
"571 474 OFFCURVE",
"586 478 OFFCURVE",
"601 485 CURVE SMOOTH",
"733 547 OFFCURVE",
"891 583 OFFCURVE",
"1076 592 CURVE",
"1039 443 OFFCURVE",
"975 329 OFFCURVE",
"882 249 CURVE SMOOTH",
"794 174 OFFCURVE",
"690 136 OFFCURVE",
"571 136 CURVE SMOOTH",
"458 136 OFFCURVE",
"381 163 OFFCURVE",
"339 218 CURVE SMOOTH",
"300 268 OFFCURVE",
"281 356 OFFCURVE",
"281 481 CURVE SMOOTH",
"281 720 OFFCURVE",
"358 941 OFFCURVE",
"512 1145 CURVE SMOOTH",
"563 1214 OFFCURVE",
"603 1261 OFFCURVE",
"630 1287 CURVE SMOOTH",
"685 1339 OFFCURVE",
"737 1365 OFFCURVE",
"787 1365 CURVE SMOOTH",
"857 1365 OFFCURVE",
"943 1334 OFFCURVE",
"1045 1272 CURVE SMOOTH",
"1072 1255 OFFCURVE",
"1092 1247 OFFCURVE",
"1107 1247 CURVE SMOOTH",
"1135 1247 OFFCURVE",
"1159 1258 OFFCURVE",
"1179 1279 CURVE SMOOTH",
"1199 1300 OFFCURVE",
"1209 1325 OFFCURVE",
"1209 1352 CURVE SMOOTH",
"1209 1410 OFFCURVE",
"1148 1463 OFFCURVE",
"1027 1511 CURVE SMOOTH",
"928 1551 OFFCURVE",
"848 1571 OFFCURVE",
"787 1571 CURVE SMOOTH",
"692 1571 OFFCURVE",
"601 1533 OFFCURVE",
"516 1458 CURVE SMOOTH",
"388 1345 OFFCURVE",
"283 1198 OFFCURVE",
"202 1015 CURVE SMOOTH",
"120 832 OFFCURVE",
"79 654 OFFCURVE",
"79 481 CURVE SMOOTH",
"79 298 OFFCURVE",
"120 160 OFFCURVE",
"202 69 CURVE SMOOTH",
"284 -23 OFFCURVE",
"407 -69 OFFCURVE",
"571 -69 CURVE SMOOTH",
"751 -69 OFFCURVE",
"907 -8 OFFCURVE",
"1040 115 CURVE SMOOTH",
"1172 237 OFFCURVE",
"1259 400 OFFCURVE",
"1300 605 CURVE"
);
}
);
width = 1392;
}
);
note = G;
unicode = 0047;
},
{
glyphname = H;
lastChange = "2018-09-24 13:43:15 +0000";
layers = (
{
hints = (
{
horizontal = 1;
place = "{-83, 1637}";
type = Stem;
},
{
place = "{187, 183}";
type = Stem;
},
{
place = "{1249, 192}";
type = Stem;
},
{
horizontal = 1;
place = "{660, 195}";
type = Stem;
},
{
place = "{199, 192}";
type = Stem;
},
{
place = "{152, 192}";
type = Stem;
},
{
place = "{1218, 192}";
type = Stem;
},
{
place = "{1240, 192}";
type = Stem;
}
);
layerId = "10ADC4BD-3987-48B4-8AAC-8E23B2BCD4A9";
paths = (
{
closed = 1;
nodes = (
"1462 1426 OFFCURVE",
"1465 1440 OFFCURVE",
"1465 1450 CURVE SMOOTH",
"1465 1478 OFFCURVE",
"1455 1501 OFFCURVE",
"1435 1520 CURVE SMOOTH",
"1415 1538 OFFCURVE",
"1392 1547 OFFCURVE",
"1367 1547 CURVE SMOOTH",
"1327 1547 OFFCURVE",
"1296 1511 OFFCURVE",
"1274 1440 CURVE SMOOTH",
"1257 1388 OFFCURVE",
"1249 1337 OFFCURVE",
"1249 1286 CURVE SMOOTH",
"1249 1094 OFFCURVE",
"1245 950 OFFCURVE",
"1238 855 CURVE",
"1121 854 OFFCURVE",
"976 837 OFFCURVE",
"805 805 CURVE SMOOTH",
"376 724 LINE",
"370 977 LINE",
"370 1030 OFFCURVE",
"374 1110 OFFCURVE",
"381 1217 CURVE SMOOTH",
"388 1323 OFFCURVE",
"391 1403 OFFCURVE",
"391 1456 CURVE SMOOTH",
"391 1484 OFFCURVE",
"382 1507 OFFCURVE",
"364 1526 CURVE SMOOTH",
"345 1545 OFFCURVE",
"322 1554 OFFCURVE",
"295 1554 CURVE SMOOTH",
"268 1554 OFFCURVE",
"245 1545 OFFCURVE",
"227 1526 CURVE SMOOTH",
"208 1507 OFFCURVE",
"199 1484 OFFCURVE",
"199 1456 CURVE SMOOTH",
"199 1403 OFFCURVE",
"196 1324 OFFCURVE",
"189 1219 CURVE SMOOTH",
"182 1113 OFFCURVE",
"179 1034 OFFCURVE",
"179 981 CURVE SMOOTH",
"179 944 OFFCURVE",
"180 888 OFFCURVE",
"183 814 CURVE SMOOTH",
"186 740 OFFCURVE",
"187 685 OFFCURVE",
"187 648 CURVE SMOOTH",
"187 577 OFFCURVE",
"181 472 OFFCURVE",
"170 332 CURVE SMOOTH",
"158 191 OFFCURVE",
"152 86 OFFCURVE",
"152 15 CURVE SMOOTH",
"152 -12 OFFCURVE",
"161 -36 OFFCURVE",
"180 -55 CURVE SMOOTH",
"198 -74 OFFCURVE",
"221 -83 OFFCURVE",
"248 -83 CURVE SMOOTH",
"275 -83 OFFCURVE",
"298 -74 OFFCURVE",
"317 -55 CURVE SMOOTH",
"335 -36 OFFCURVE",
"344 -12 OFFCURVE",
"344 15 CURVE SMOOTH",
"344 76 OFFCURVE",
"350 161 OFFCURVE",
"362 272 CURVE SMOOTH",
"374 382 OFFCURVE",
"380 467 OFFCURVE",
"380 527 CURVE",
"800 609 LINE SMOOTH",
"968 641 OFFCURVE",
"1109 658 OFFCURVE",
"1223 660 CURVE",
"1220 610 OFFCURVE",
"1218 561 OFFCURVE",
"1218 512 CURVE SMOOTH",
"1218 461 OFFCURVE",
"1222 385 OFFCURVE",
"1229 284 CURVE SMOOTH",
"1236 183 OFFCURVE",
"1240 106 OFFCURVE",
"1240 55 CURVE SMOOTH",
"1240 28 OFFCURVE",
"1249 5 OFFCURVE",
"1268 -14 CURVE SMOOTH",
"1287 -33 OFFCURVE",
"1309 -42 OFFCURVE",
"1336 -42 CURVE SMOOTH",
"1363 -42 OFFCURVE",
"1386 -33 OFFCURVE",
"1405 -14 CURVE SMOOTH",
"1423 5 OFFCURVE",
"1432 28 OFFCURVE",
"1432 55 CURVE SMOOTH",
"1432 106 OFFCURVE",
"1428 183 OFFCURVE",
"1421 284 CURVE SMOOTH",
"1414 385 OFFCURVE",
"1410 461 OFFCURVE",
"1410 512 CURVE SMOOTH",
"1410 579 OFFCURVE",
"1416 678 OFFCURVE",
"1428 810 CURVE SMOOTH",
"1439 942 OFFCURVE",
"1445 1041 OFFCURVE",
"1445 1108 CURVE SMOOTH",
"1445 1128 OFFCURVE",
"1444 1158 OFFCURVE",
"1443 1197 CURVE SMOOTH",
"1442 1236 OFFCURVE",
"1441 1266 OFFCURVE",
"1441 1286 CURVE SMOOTH",
"1441 1340 OFFCURVE",
"1446 1381 OFFCURVE",
"1456 1409 CURVE SMOOTH"
);
}
);
width = 1573;
}
);
note = H;
unicode = 0048;
},
{
glyphname = I;
lastChange = "2018-09-24 13:43:15 +0000";
layers = (
{
hints = (
{
horizontal = 1;
place = "{6, 205}";
type = Stem;
},
{
horizontal = 1;
place = "{1286, 208}";
type = Stem;
},
{
place = "{408, 204}";
type = Stem;
},
{
horizontal = 1;
place = "{-36, 205}";
type = Stem;
},
{
place = "{421, 199}";
type = Stem;
}
);
layerId = "10ADC4BD-3987-48B4-8AAC-8E23B2BCD4A9";
paths = (
{
closed = 1;
nodes = (
"983 1246 OFFCURVE",
"1006 1254 OFFCURVE",
"1026 1269 CURVE",
"1049 1288 OFFCURVE",
"1060 1313 OFFCURVE",
"1060 1344 CURVE SMOOTH",
"1060 1407 OFFCURVE",
"1030 1442 OFFCURVE",
"971 1451 CURVE SMOOTH",
"771 1480 OFFCURVE",
"605 1494 OFFCURVE",
"472 1494 CURVE SMOOTH",
"324 1494 OFFCURVE",
"223 1491 OFFCURVE",
"169 1486 CURVE SMOOTH",
"106 1480 OFFCURVE",
"75 1446 OFFCURVE",
"75 1384 CURVE SMOOTH",
"75 1354 OFFCURVE",
"85 1329 OFFCURVE",
"104 1310 CURVE SMOOTH",
"123 1291 OFFCURVE",
"147 1281 OFFCURVE",
"176 1281 CURVE SMOOTH",
"306 1284 LINE",
"436 1288 LINE",
"417 1057 OFFCURVE",
"408 865 OFFCURVE",
"408 711 CURVE SMOOTH",
"408 666 OFFCURVE",
"410 610 OFFCURVE",
"415 544 CURVE SMOOTH",
"419 477 OFFCURVE",
"421 421 OFFCURVE",
"421 375 CURVE SMOOTH",
"421 306 OFFCURVE",
"418 244 OFFCURVE",
"411 190 CURVE",
"311 176 OFFCURVE",
"239 169 OFFCURVE",
"196 169 CURVE SMOOTH",
"168 169 OFFCURVE",
"145 159 OFFCURVE",
"126 139 CURVE SMOOTH",
"107 119 OFFCURVE",
"97 95 OFFCURVE",
"97 66 CURVE SMOOTH",
"97 37 OFFCURVE",
"107 13 OFFCURVE",
"126 -7 CURVE SMOOTH",
"145 -26 OFFCURVE",
"168 -36 OFFCURVE",
"196 -36 CURVE SMOOTH",
"241 -36 OFFCURVE",
"307 -30 OFFCURVE",
"395 -18 CURVE SMOOTH",
"482 -5 OFFCURVE",
"548 1 OFFCURVE",
"592 1 CURVE SMOOTH",
"629 1 OFFCURVE",
"685 2 OFFCURVE",
"760 4 CURVE SMOOTH",
"835 5 OFFCURVE",
"891 6 OFFCURVE",
"928 6 CURVE SMOOTH",
"956 6 OFFCURVE",
"980 16 OFFCURVE",
"999 36 CURVE SMOOTH",
"1018 55 OFFCURVE",
"1027 80 OFFCURVE",
"1027 109 CURVE SMOOTH",
"1027 138 OFFCURVE",
"1018 162 OFFCURVE",
"999 182 CURVE SMOOTH",
"980 201 OFFCURVE",
"956 211 OFFCURVE",
"928 211 CURVE SMOOTH",
"613 207 LINE",
"618 258 OFFCURVE",
"620 315 OFFCURVE",
"620 378 CURVE SMOOTH",
"620 425 OFFCURVE",
"619 482 OFFCURVE",
"616 551 CURVE SMOOTH",
"613 620 OFFCURVE",
"612 677 OFFCURVE",
"612 724 CURVE SMOOTH",
"612 901 OFFCURVE",
"620 1086 OFFCURVE",
"635 1280 CURVE",
"796 1259 LINE SMOOTH",
"861 1250 OFFCURVE",
"914 1246 OFFCURVE",
"957 1246 CURVE SMOOTH"
);
}
);
width = 1119;
}
);
note = I;
unicode = 0049;
},
{
glyphname = J;
lastChange = "2018-09-24 13:43:15 +0000";
layers = (
{
hints = (
{
horizontal = 1;
place = "{-120, 206}";
type = Stem;
},
{
horizontal = 1;
place = "{1309, 206}";
type = Stem;
},
{
place = "{757, 201}";
type = Stem;
},
{
horizontal = 1;
place = "{1294, 206}";
type = Stem;
},
{
place = "{94, 202}";
type = Stem;
}
);
layerId = "10ADC4BD-3987-48B4-8AAC-8E23B2BCD4A9";
paths = (
{
closed = 1;
nodes = (
"1226 1294 OFFCURVE",
"1250 1305 OFFCURVE",
"1269 1328 CURVE SMOOTH",
"1287 1349 OFFCURVE",
"1296 1372 OFFCURVE",
"1296 1399 CURVE SMOOTH",
"1296 1476 OFFCURVE",
"1220 1515 OFFCURVE",
"1068 1515 CURVE SMOOTH",
"1026 1515 OFFCURVE",
"963 1513 OFFCURVE",
"880 1508 CURVE SMOOTH",
"796 1503 OFFCURVE",
"733 1500 OFFCURVE",
"691 1500 CURVE SMOOTH",
"669 1500 OFFCURVE",
"636 1501 OFFCURVE",
"591 1503 CURVE SMOOTH",
"546 1505 OFFCURVE",
"513 1506 OFFCURVE",
"490 1506 CURVE SMOOTH",
"397 1506 OFFCURVE",
"351 1472 OFFCURVE",
"351 1403 CURVE SMOOTH",
"351 1371 OFFCURVE",
"361 1346 OFFCURVE",
"381 1327 CURVE SMOOTH",
"401 1308 OFFCURVE",
"426 1299 OFFCURVE",
"455 1299 CURVE SMOOTH",
"482 1299 OFFCURVE",
"521 1298 OFFCURVE",
"574 1297 CURVE SMOOTH",
"626 1295 OFFCURVE",
"665 1294 OFFCURVE",
"691 1294 CURVE SMOOTH",
"752 1295 LINE",
"755 1242 OFFCURVE",
"757 1206 OFFCURVE",
"757 1187 CURVE SMOOTH",
"757 947 OFFCURVE",
"752 748 OFFCURVE",
"742 589 CURVE SMOOTH",
"721 254 OFFCURVE",
"683 86 OFFCURVE",
"628 86 CURVE SMOOTH",
"561 86 OFFCURVE",
"489 112 OFFCURVE",
"414 164 CURVE SMOOTH",
"335 219 OFFCURVE",
"296 274 OFFCURVE",
"296 329 CURVE SMOOTH",
"296 410 OFFCURVE",
"262 450 OFFCURVE",
"195 450 CURVE SMOOTH",
"128 450 OFFCURVE",
"94 409 OFFCURVE",
"94 327 CURVE SMOOTH",
"94 206 OFFCURVE",
"157 99 OFFCURVE",
"283 6 CURVE SMOOTH",
"397 -78 OFFCURVE",
"512 -120 OFFCURVE",
"628 -120 CURVE SMOOTH",
"738 -120 OFFCURVE",
"815 -45 OFFCURVE",
"859 104 CURVE SMOOTH",
"925 330 OFFCURVE",
"958 691 OFFCURVE",
"958 1187 CURVE",
"953 1306 LINE",
"997 1308 OFFCURVE",
"1035 1309 OFFCURVE",
"1068 1309 CURVE SMOOTH",
"1084 1309 OFFCURVE",
"1107 1307 OFFCURVE",
"1136 1302 CURVE SMOOTH",
"1165 1297 OFFCURVE",
"1185 1294 OFFCURVE",
"1197 1294 CURVE SMOOTH"
);
}
);
width = 1362;
}
);
note = J;
unicode = 004A;
},
{
glyphname = K;
lastChange = "2018-09-24 13:43:15 +0000";
layers = (
{
hints = (
{
horizontal = 1;
place = "{-110, 1641}";
type = Stem;
},
{
place = "{214, 206}";
type = Stem;
},
{
place = "{242, 199}";
type = Stem;
}
);
layerId = "10ADC4BD-3987-48B4-8AAC-8E23B2BCD4A9";
paths = (
{
closed = 1;
nodes = (
"1182 -41 OFFCURVE",
"1205 -28 OFFCURVE",
"1222 -3 CURVE SMOOTH",
"1236 18 OFFCURVE",
"1243 39 OFFCURVE",
"1243 62 CURVE SMOOTH",
"1243 111 OFFCURVE",
"1217 144 OFFCURVE",
"1164 161 CURVE SMOOTH",
"1120 176 OFFCURVE",
"1079 198 OFFCURVE",
"1041 227 CURVE",
"936 315 LINE",
"765 472 OFFCURVE",
"640 593 OFFCURVE",
"560 677 CURVE",
"687 802 OFFCURVE",
"809 929 OFFCURVE",
"928 1059 CURVE SMOOTH",
"1100 1250 OFFCURVE",
"1186 1367 OFFCURVE",
"1186 1411 CURVE SMOOTH",
"1186 1440 OFFCURVE",
"1176 1464 OFFCURVE",
"1155 1484 CURVE SMOOTH",
"1134 1504 OFFCURVE",
"1111 1514 OFFCURVE",
"1084 1514 CURVE SMOOTH",
"1056 1514 OFFCURVE",
"1031 1501 OFFCURVE",
"1008 1475 CURVE SMOOTH",
"721 1142 LINE SMOOTH",
"608 1014 OFFCURVE",
"507 908 OFFCURVE",
"418 823 CURVE",
"417 893 OFFCURVE",
"421 994 OFFCURVE",
"429 1126 CURVE SMOOTH",
"437 1263 OFFCURVE",
"441 1363 OFFCURVE",
"441 1428 CURVE SMOOTH",
"441 1457 OFFCURVE",
"432 1481 OFFCURVE",
"413 1501 CURVE SMOOTH",
"394 1521 OFFCURVE",
"370 1531 OFFCURVE",
"341 1531 CURVE SMOOTH",
"313 1531 OFFCURVE",
"290 1521 OFFCURVE",
"271 1501 CURVE SMOOTH",
"252 1481 OFFCURVE",
"242 1457 OFFCURVE",
"242 1428 CURVE SMOOTH",
"242 1273 OFFCURVE",
"237 1040 OFFCURVE",
"228 729 CURVE SMOOTH",
"219 418 OFFCURVE",
"214 185 OFFCURVE",
"214 29 CURVE SMOOTH",
"214 -3 OFFCURVE",
"223 -33 OFFCURVE",
"242 -60 CURVE SMOOTH",
"265 -93 OFFCURVE",
"295 -110 OFFCURVE",
"333 -110 CURVE SMOOTH",
"391 -110 OFFCURVE",
"420 -77 OFFCURVE",
"420 -11 CURVE SMOOTH",
"421 513 LINE",
"421 527 LINE",
"720 226 LINE SMOOTH",
"907 48 OFFCURVE",
"1052 -41 OFFCURVE",
"1153 -41 CURVE SMOOTH"
);
}
);
width = 1251;
}
);
note = K;
unicode = 004B;
},
{
glyphname = L;
lastChange = "2018-09-24 13:43:15 +0000";
layers = (
{
hints = (
{
horizontal = 1;
place = "{-93, 205}";
type = Stem;
},
{
place = "{147, 199}";
type = Stem;
},
{
place = "{101, 199}";
type = Stem;
}
);
layerId = "10ADC4BD-3987-48B4-8AAC-8E23B2BCD4A9";
paths = (
{
closed = 1;
nodes = (
"1068 61 OFFCURVE",
"1089 92 OFFCURVE",
"1089 135 CURVE SMOOTH",
"1089 162 OFFCURVE",
"1081 185 OFFCURVE",
"1064 206 CURVE SMOOTH",
"1045 229 OFFCURVE",
"1021 240 OFFCURVE",
"992 240 CURVE SMOOTH",
"982 240 OFFCURVE",
"971 238 OFFCURVE",
"960 235 CURVE",
"694 151 OFFCURVE",
"474 110 OFFCURVE",
"300 112 CURVE",
"299 155 OFFCURVE",
"301 204 OFFCURVE",
"306 259 CURVE SMOOTH",
"319 411 LINE SMOOTH",
"337 720 OFFCURVE",
"346 1062 OFFCURVE",
"346 1439 CURVE SMOOTH",
"346 1468 OFFCURVE",
"337 1492 OFFCURVE",
"318 1512 CURVE SMOOTH",
"299 1532 OFFCURVE",
"275 1542 OFFCURVE",
"246 1542 CURVE SMOOTH",
"218 1542 OFFCURVE",
"195 1532 OFFCURVE",
"176 1512 CURVE SMOOTH",
"157 1492 OFFCURVE",
"147 1468 OFFCURVE",
"147 1439 CURVE SMOOTH",
"147 1067 OFFCURVE",
"138 728 OFFCURVE",
"121 423 CURVE SMOOTH",
"101 92 LINE",
"101 17 OFFCURVE",
"121 -34 OFFCURVE",
"161 -62 CURVE SMOOTH",
"190 -83 OFFCURVE",
"239 -93 OFFCURVE",
"306 -93 CURVE SMOOTH",
"400 -93 OFFCURVE",
"521 -80 OFFCURVE",
"670 -54 CURVE SMOOTH",
"831 -26 OFFCURVE",
"950 6 OFFCURVE",
"1025 41 CURVE SMOOTH"
);
}
);
width = 1128;
}
);
note = L;
unicode = 004C;
},
{
glyphname = M;
lastChange = "2018-09-24 13:43:15 +0000";
layers = (
{
hints = (
{
horizontal = 1;
place = "{-83, 1617}";
type = Stem;
},
{
place = "{112, 1619}";
type = Stem;
}
);
layerId = "10ADC4BD-3987-48B4-8AAC-8E23B2BCD4A9";
paths = (
{
closed = 1;
nodes = (
"1652 -83 OFFCURVE",
"1677 -73 OFFCURVE",
"1699 -54 CURVE SMOOTH",
"1720 -35 OFFCURVE",
"1731 -11 OFFCURVE",
"1731 18 CURVE SMOOTH",
"1731 39 OFFCURVE",
"1718 96 OFFCURVE",
"1693 188 CURVE SMOOTH",
"1644 360 LINE SMOOTH",
"1585 573 OFFCURVE",
"1536 831 OFFCURVE",
"1497 1132 CURVE SMOOTH",
"1482 1251 OFFCURVE",
"1469 1330 OFFCURVE",
"1458 1368 CURVE SMOOTH",
"1428 1479 OFFCURVE",
"1384 1534 OFFCURVE",
"1327 1534 CURVE SMOOTH",
"1282 1534 OFFCURVE",
"1246 1509 OFFCURVE",
"1220 1460 CURVE SMOOTH",
"1201 1424 OFFCURVE",
"1185 1377 OFFCURVE",
"1173 1318 CURVE SMOOTH",
"1143 1172 LINE",
"1071 894 OFFCURVE",
"986 627 OFFCURVE",
"887 370 CURVE",
"812 625 OFFCURVE",
"757 863 OFFCURVE",
"722 1082 CURVE SMOOTH",
"692 1265 OFFCURVE",
"664 1386 OFFCURVE",
"638 1445 CURVE SMOOTH",
"617 1494 OFFCURVE",
"584 1519 OFFCURVE",
"541 1519 CURVE SMOOTH",
"502 1519 OFFCURVE",
"469 1500 OFFCURVE",
"442 1461 CURVE SMOOTH",
"409 1416 OFFCURVE",
"378 1319 OFFCURVE",
"349 1172 CURVE SMOOTH",
"291 857 LINE",
"181 454 LINE SMOOTH",
"135 292 OFFCURVE",
"112 155 OFFCURVE",
"112 44 CURVE SMOOTH",
"112 15 OFFCURVE",
"120 -10 OFFCURVE",
"137 -30 CURVE SMOOTH",
"156 -53 OFFCURVE",
"182 -65 OFFCURVE",
"215 -65 CURVE SMOOTH",
"261 -65 OFFCURVE",
"294 -39 OFFCURVE",
"314 13 CURVE",
"342 134 OFFCURVE",
"359 226 OFFCURVE",
"364 288 CURVE",
"493 816 LINE",
"529 995 LINE",
"580 726 OFFCURVE",
"640 474 OFFCURVE",
"707 239 CURVE SMOOTH",
"736 128 LINE SMOOTH",
"748 85 OFFCURVE",
"761 49 OFFCURVE",
"776 21 CURVE SMOOTH",
"799 -22 OFFCURVE",
"830 -43 OFFCURVE",
"869 -43 CURVE SMOOTH",
"916 -43 OFFCURVE",
"954 -18 OFFCURVE",
"982 33 CURVE SMOOTH",
"1008 81 OFFCURVE",
"1033 143 OFFCURVE",
"1057 218 CURVE SMOOTH",
"1116 408 LINE",
"1316 1011 LINE",
"1375 647 OFFCURVE",
"1419 412 OFFCURVE",
"1446 305 CURVE",
"1482 133 LINE SMOOTH",
"1498 58 OFFCURVE",
"1516 5 OFFCURVE",
"1536 -27 CURVE SMOOTH",
"1559 -64 OFFCURVE",
"1589 -83 OFFCURVE",
"1625 -83 CURVE SMOOTH"
);
}
);
width = 1808;
}
);
note = M;
unicode = 004D;
},
{
glyphname = N;
lastChange = "2018-09-24 13:43:15 +0000";
layers = (
{
hints = (
{
horizontal = 1;
place = "{-79, 1630}";
type = Stem;
},
{
place = "{153, 192}";
type = Stem;
},
{
place = "{1348, 199}";
type = Stem;
}
);
layerId = "10ADC4BD-3987-48B4-8AAC-8E23B2BCD4A9";
paths = (
{
closed = 1;
nodes = (
"1541 296 OFFCURVE",
"1542 407 OFFCURVE",
"1544 554 CURVE SMOOTH",
"1546 701 OFFCURVE",
"1547 811 OFFCURVE",
"1547 885 CURVE SMOOTH",
"1547 1318 OFFCURVE",
"1489 1534 OFFCURVE",
"1373 1534 CURVE SMOOTH",
"1302 1534 OFFCURVE",
"1267 1495 OFFCURVE",
"1267 1418 CURVE SMOOTH",
"1267 1393 OFFCURVE",
"1274 1357 OFFCURVE",
"1287 1312 CURVE SMOOTH",
"1302 1259 OFFCURVE",
"1311 1224 OFFCURVE",
"1314 1207 CURVE",
"1337 1034 OFFCURVE",
"1348 801 OFFCURVE",
"1348 508 CURVE SMOOTH",
"1351 382 LINE SMOOTH",
"1353 326 OFFCURVE",
"1353 284 OFFCURVE",
"1351 255 CURVE",
"1162 433 OFFCURVE",
"989 620 OFFCURVE",
"831 815 CURVE SMOOTH",
"698 980 OFFCURVE",
"549 1186 OFFCURVE",
"383 1435 CURVE SMOOTH",
"331 1512 OFFCURVE",
"287 1551 OFFCURVE",
"252 1551 CURVE SMOOTH",
"219 1551 OFFCURVE",
"189 1538 OFFCURVE",
"163 1513 CURVE SMOOTH",
"136 1488 OFFCURVE",
"123 1460 OFFCURVE",
"123 1429 CURVE SMOOTH",
"123 1387 OFFCURVE",
"127 1325 OFFCURVE",
"135 1242 CURVE SMOOTH",
"143 1159 OFFCURVE",
"147 1096 OFFCURVE",
"147 1054 CURVE SMOOTH",
"147 1010 OFFCURVE",
"148 944 OFFCURVE",
"150 855 CURVE SMOOTH",
"152 766 OFFCURVE",
"153 699 OFFCURVE",
"153 655 CURVE SMOOTH",
"153 614 OFFCURVE",
"152 552 OFFCURVE",
"149 470 CURVE SMOOTH",
"146 387 OFFCURVE",
"145 325 OFFCURVE",
"145 284 CURVE SMOOTH",
"145 256 OFFCURVE",
"143 214 OFFCURVE",
"139 157 CURVE SMOOTH",
"134 100 OFFCURVE",
"132 58 OFFCURVE",
"132 30 CURVE SMOOTH",
"132 1 OFFCURVE",
"142 -23 OFFCURVE",
"161 -44 CURVE SMOOTH",
"182 -67 OFFCURVE",
"211 -79 OFFCURVE",
"248 -79 CURVE SMOOTH",
"317 -79 OFFCURVE",
"352 11 OFFCURVE",
"352 190 CURVE SMOOTH",
"352 246 OFFCURVE",
"351 329 OFFCURVE",
"349 440 CURVE SMOOTH",
"346 551 OFFCURVE",
"345 634 OFFCURVE",
"345 689 CURVE SMOOTH",
"348 917 LINE",
"353 1144 LINE",
"704 660 OFFCURVE",
"1016 290 OFFCURVE",
"1287 33 CURVE SMOOTH",
"1338 -15 OFFCURVE",
"1381 -39 OFFCURVE",
"1418 -39 CURVE SMOOTH",
"1479 -39 OFFCURVE",
"1514 -5 OFFCURVE",
"1525 62 CURVE SMOOTH",
"1536 137 OFFCURVE",
"1541 190 OFFCURVE",
"1541 222 CURVE SMOOTH"
);
}
);
width = 1632;
}
);
note = N;
unicode = 004E;
},
{
glyphname = O;
lastChange = "2018-09-24 13:43:15 +0000";
layers = (
{
hints = (
{
horizontal = 1;
place = "{-61, 205}";
type = Stem;
},
{
horizontal = 1;
place = "{1310, 205}";
type = Stem;
},
{
place = "{116, 204}";
type = Stem;
},
{
place = "{1344, 204}";
type = Stem;
}
);
layerId = "10ADC4BD-3987-48B4-8AAC-8E23B2BCD4A9";
paths = (
{
closed = 1;
nodes = (
"1030 -61 OFFCURVE",
"1216 45 OFFCURVE",
"1360 257 CURVE SMOOTH",
"1485 442 OFFCURVE",
"1548 650 OFFCURVE",
"1548 881 CURVE SMOOTH",
"1548 1102 OFFCURVE",
"1492 1264 OFFCURVE",
"1381 1367 CURVE SMOOTH",
"1274 1466 OFFCURVE",
"1111 1515 OFFCURVE",
"892 1515 CURVE SMOOTH",
"664 1515 OFFCURVE",
"474 1410 OFFCURVE",
"321 1201 CURVE SMOOTH",
"184 1012 OFFCURVE",
"116 803 OFFCURVE",
"116 572 CURVE SMOOTH",
"116 383 OFFCURVE",
"185 228 OFFCURVE",
"324 108 CURVE SMOOTH",
"455 -5 OFFCURVE",
"614 -61 OFFCURVE",
"802 -61 CURVE SMOOTH"
);
},
{
closed = 1;
nodes = (
"1054 1310 OFFCURVE",
"1169 1279 OFFCURVE",
"1237 1217 CURVE SMOOTH",
"1308 1152 OFFCURVE",
"1344 1040 OFFCURVE",
"1344 881 CURVE SMOOTH",
"1344 699 OFFCURVE",
"1297 535 OFFCURVE",
"1203 389 CURVE SMOOTH",
"1098 226 OFFCURVE",
"964 144 OFFCURVE",
"802 144 CURVE SMOOTH",
"667 144 OFFCURVE",
"554 182 OFFCURVE",
"463 258 CURVE SMOOTH",
"368 339 OFFCURVE",
"320 443 OFFCURVE",
"320 572 CURVE SMOOTH",
"320 752 OFFCURVE",
"372 917 OFFCURVE",
"477 1066 CURVE SMOOTH",
"590 1229 OFFCURVE",
"729 1310 OFFCURVE",
"892 1310 CURVE SMOOTH"
);
}
);
width = 1635;
}
);
note = O;
unicode = 004F;
},
{
glyphname = P;
lastChange = "2018-09-24 13:43:15 +0000";
layers = (
{
hints = (
{
horizontal = 1;
place = "{587, 191}";
type = Stem;
},
{
horizontal = 1;
place = "{1381, 190}";
type = Stem;
},
{
place = "{100, 183}";
type = Stem;
},
{
place = "{822, 183}";
type = Stem;
},
{
place = "{140, 185}";
type = Stem;
}
);
layerId = "10ADC4BD-3987-48B4-8AAC-8E23B2BCD4A9";
paths = (
{
closed = 1;
nodes = (
"570 587 OFFCURVE",
"705 631 OFFCURVE",
"817 719 CURVE SMOOTH",
"942 817 OFFCURVE",
"1005 949 OFFCURVE",
"1005 1114 CURVE SMOOTH",
"1005 1243 OFFCURVE",
"946 1354 OFFCURVE",
"829 1446 CURVE SMOOTH",
"722 1529 OFFCURVE",
"608 1571 OFFCURVE",
"486 1571 CURVE SMOOTH",
"429 1571 OFFCURVE",
"380 1569 OFFCURVE",
"341 1566 CURVE SMOOTH",
"302 1563 OFFCURVE",
"271 1558 OFFCURVE",
"250 1551 CURVE",
"200 1559 OFFCURVE",
"167 1534 OFFCURVE",
"152 1475 CURVE SMOOTH",
"144 1445 OFFCURVE",
"140 1397 OFFCURVE",
"140 1331 CURVE SMOOTH",
"140 1193 LINE SMOOTH",
"139 1110 OFFCURVE",
"131 972 OFFCURVE",
"118 779 CURVE SMOOTH",
"106 601 OFFCURVE",
"100 463 OFFCURVE",
"100 365 CURVE SMOOTH",
"100 71 LINE SMOOTH",
"100 44 OFFCURVE",
"109 22 OFFCURVE",
"126 4 CURVE SMOOTH",
"143 -15 OFFCURVE",
"165 -24 OFFCURVE",
"192 -24 CURVE SMOOTH",
"218 -24 OFFCURVE",
"240 -15 OFFCURVE",
"257 4 CURVE SMOOTH",
"274 22 OFFCURVE",
"283 44 OFFCURVE",
"283 71 CURVE SMOOTH",
"283 323 OFFCURVE",
"286 499 OFFCURVE",
"291 600 CURVE",
"354 591 OFFCURVE",
"394 587 OFFCURVE",
"413 587 CURVE SMOOTH"
);
},
{
closed = 1;
nodes = (
"548 1381 OFFCURVE",
"628 1356 OFFCURVE",
"702 1307 CURVE SMOOTH",
"782 1253 OFFCURVE",
"822 1189 OFFCURVE",
"822 1114 CURVE SMOOTH",
"822 1009 OFFCURVE",
"780 925 OFFCURVE",
"696 863 CURVE SMOOTH",
"619 806 OFFCURVE",
"525 778 OFFCURVE",
"413 778 CURVE",
"303 791 LINE",
"324 1189 LINE",
"326 1373 LINE",
"342 1376 OFFCURVE",
"362 1378 OFFCURVE",
"385 1379 CURVE SMOOTH",
"408 1380 OFFCURVE",
"434 1381 OFFCURVE",
"463 1381 CURVE SMOOTH"
);
}
);
width = 1066;
}
);
note = P;
unicode = 0050;
},
{
glyphname = Q;
lastChange = "2018-09-24 13:43:15 +0000";
layers = (
{
hints = (
{
horizontal = 1;
place = "{-116, 207}";
type = Stem;
},
{
horizontal = 1;
place = "{1308, 207}";
type = Stem;
},
{
place = "{77, 205}";
type = Stem;
},
{
place = "{1483, 206}";
type = Stem;
}
);
layerId = "10ADC4BD-3987-48B4-8AAC-8E23B2BCD4A9";
paths = (
{
closed = 1;
nodes = (
"1675 -438 OFFCURVE",
"1699 -427 OFFCURVE",
"1720 -406 CURVE",
"1740 -384 OFFCURVE",
"1750 -359 OFFCURVE",
"1750 -332 CURVE SMOOTH",
"1750 -304 OFFCURVE",
"1737 -278 OFFCURVE",
"1712 -254 CURVE",
"1583 -144 LINE",
"1365 57 LINE",
"1581 208 OFFCURVE",
"1689 393 OFFCURVE",
"1689 614 CURVE SMOOTH",
"1689 868 OFFCURVE",
"1634 1075 OFFCURVE",
"1525 1235 CURVE SMOOTH",
"1396 1422 OFFCURVE",
"1207 1515 OFFCURVE",
"958 1515 CURVE SMOOTH",
"721 1515 OFFCURVE",
"516 1434 OFFCURVE",
"343 1273 CURVE SMOOTH",
"166 1107 OFFCURVE",
"77 905 OFFCURVE",
"77 667 CURVE SMOOTH",
"77 465 OFFCURVE",
"153 284 OFFCURVE",
"306 124 CURVE SMOOTH",
"458 -36 OFFCURVE",
"634 -116 OFFCURVE",
"835 -116 CURVE SMOOTH",
"946 -116 OFFCURVE",
"1057 -93 OFFCURVE",
"1170 -48 CURVE",
"1409 -267 LINE SMOOTH",
"1538 -381 OFFCURVE",
"1617 -438 OFFCURVE",
"1646 -438 CURVE SMOOTH"
);
},
{
closed = 1;
nodes = (
"1135 1308 OFFCURVE",
"1270 1237 OFFCURVE",
"1362 1096 CURVE SMOOTH",
"1443 973 OFFCURVE",
"1483 812 OFFCURVE",
"1483 614 CURVE SMOOTH",
"1483 446 OFFCURVE",
"1388 307 OFFCURVE",
"1198 196 CURVE",
"1115 264 OFFCURVE",
"1040 341 OFFCURVE",
"974 427 CURVE SMOOTH",
"949 459 OFFCURVE",
"921 475 OFFCURVE",
"889 475 CURVE SMOOTH",
"862 475 OFFCURVE",
"838 465 OFFCURVE",
"817 446 CURVE SMOOTH",
"795 427 OFFCURVE",
"784 402 OFFCURVE",
"784 373 CURVE SMOOTH",
"784 308 OFFCURVE",
"848 220 OFFCURVE",
"977 108 CURVE",
"928 97 OFFCURVE",
"881 91 OFFCURVE",
"835 91 CURVE SMOOTH",
"692 91 OFFCURVE",
"564 151 OFFCURVE",
"451 271 CURVE SMOOTH",
"338 389 OFFCURVE",
"282 521 OFFCURVE",
"282 667 CURVE SMOOTH",
"282 847 OFFCURVE",
"350 1000 OFFCURVE",
"486 1125 CURVE SMOOTH",
"618 1247 OFFCURVE",
"775 1308 OFFCURVE",
"958 1308 CURVE SMOOTH"
);
}
);
width = 1795;
}
);
note = Q;
unicode = 0051;
},
{
glyphname = R;
lastChange = "2018-09-24 13:43:15 +0000";
layers = (
{
hints = (
{
horizontal = 1;
place = "{-35, 1571.25}";
type = Stem;
},
{
place = "{132, 200}";
type = Stem;
},
{
place = "{951, 201}";
type = Stem;
},
{
horizontal = 1;
place = "{1317, 209.5}";
type = Stem;
},
{
place = "{157, 201}";
type = Stem;
}
);
layerId = "10ADC4BD-3987-48B4-8AAC-8E23B2BCD4A9";
paths = (
{
closed = 1;
nodes = (
"1153 -11 OFFCURVE",
"1177 -1 OFFCURVE",
"1198 20 CURVE SMOOTH",
"1218 41 OFFCURVE",
"1228 65 OFFCURVE",
"1228 93 CURVE SMOOTH",
"1228 117 OFFCURVE",
"1219 140 OFFCURVE",
"1202 161 CURVE SMOOTH",
"1099 284 OFFCURVE",
"944 402 OFFCURVE",
"737 513 CURVE",
"848 546 OFFCURVE",
"940 593 OFFCURVE",
"1014 656 CURVE SMOOTH",
"1106 734 OFFCURVE",
"1152 824 OFFCURVE",
"1152 925 CURVE SMOOTH",
"1152 1132 OFFCURVE",
"1017 1307 OFFCURVE",
"747 1450 CURVE SMOOTH",
"684 1483 OFFCURVE",
"607 1506 OFFCURVE",
"516 1517 CURVE",
"275 1536 LINE SMOOTH",
"230 1539 OFFCURVE",
"195 1523 OFFCURVE",
"170 1488 CURVE SMOOTH",
"149 1459 OFFCURVE",
"138 1426 OFFCURVE",
"138 1388 CURVE SMOOTH",
"138 1354 OFFCURVE",
"141 1304 OFFCURVE",
"148 1237 CURVE SMOOTH",
"154 1170 OFFCURVE",
"157 1120 OFFCURVE",
"157 1086 CURVE SMOOTH",
"157 1025 OFFCURVE",
"150 934 OFFCURVE",
"137 813 CURVE SMOOTH",
"124 692 OFFCURVE",
"117 600 OFFCURVE",
"117 539 CURVE SMOOTH",
"117 486 OFFCURVE",
"120 408 OFFCURVE",
"125 304 CURVE SMOOTH",
"130 199 OFFCURVE",
"132 121 OFFCURVE",
"132 68 CURVE SMOOTH",
"132 39 OFFCURVE",
"142 14 OFFCURVE",
"161 -6 CURVE SMOOTH",
"180 -25 OFFCURVE",
"203 -35 OFFCURVE",
"232 -35 CURVE SMOOTH",
"261 -35 OFFCURVE",
"285 -25 OFFCURVE",
"304 -6 CURVE SMOOTH",
"323 14 OFFCURVE",
"332 39 OFFCURVE",
"332 68 CURVE",
"327 265 LINE",
"319 461 LINE",
"589 386 OFFCURVE",
"834 239 OFFCURVE",
"1055 21 CURVE SMOOTH",
"1077 0 OFFCURVE",
"1101 -11 OFFCURVE",
"1126 -11 CURVE SMOOTH"
);
},
{
closed = 1;
nodes = (
"489 1311 LINE SMOOTH",
"595 1300 OFFCURVE",
"696 1257 OFFCURVE",
"793 1184 CURVE SMOOTH",
"898 1104 OFFCURVE",
"951 1018 OFFCURVE",
"951 925 CURVE SMOOTH",
"951 899 OFFCURVE",
"933 867 OFFCURVE",
"898 830 CURVE SMOOTH",
"866 797 OFFCURVE",
"831 770 OFFCURVE",
"794 749 CURVE SMOOTH",
"709 704 OFFCURVE",
"582 681 OFFCURVE",
"412 681 CURVE SMOOTH",
"402 681 OFFCURVE",
"387 681 OFFCURVE",
"368 682 CURVE SMOOTH",
"348 683 OFFCURVE",
"333 683 OFFCURVE",
"324 683 CURVE",
"345 882 LINE SMOOTH",
"354 961 OFFCURVE",
"358 1028 OFFCURVE",
"358 1081 CURVE SMOOTH",
"358 1112 OFFCURVE",
"356 1153 OFFCURVE",
"351 1202 CURVE SMOOTH",
"341 1323 LINE"
);
}
);
width = 1287;
}
);
note = R;
unicode = 0052;
},
{
glyphname = S;
lastChange = "2018-09-24 13:43:15 +0000";
layers = (
{
hints = (
{
horizontal = 1;
place = "{-57, 186}";
type = Stem;
},
{
horizontal = 1;
place = "{1278, 189}";
type = Stem;
},
{
place = "{264, 220}";
type = Stem;
},
{
place = "{1117, 204}";
type = Stem;
}
);
layerId = "10ADC4BD-3987-48B4-8AAC-8E23B2BCD4A9";
paths = (
{
closed = 1;
nodes = (
"136 149 OFFCURVE",
"199 70 OFFCURVE",
"323 13 CURVE SMOOTH",
"424 -34 OFFCURVE",
"536 -57 OFFCURVE",
"658 -57 CURVE SMOOTH",
"826 -57 OFFCURVE",
"974 -16 OFFCURVE",
"1101 66 CURVE SMOOTH",
"1248 161 OFFCURVE",
"1321 287 OFFCURVE",
"1321 446 CURVE SMOOTH",
"1321 557 OFFCURVE",
"1282 652 OFFCURVE",
"1203 729 CURVE SMOOTH",
"1117 814 OFFCURVE",
"998 862 OFFCURVE",
"845 873 CURVE SMOOTH",
"740 880 OFFCURVE",
"669 888 OFFCURVE",
"632 897 CURVE SMOOTH",
"533 920 OFFCURVE",
"484 959 OFFCURVE",
"484 1014 CURVE SMOOTH",
"484 1087 OFFCURVE",
"521 1150 OFFCURVE",
"596 1201 CURVE SMOOTH",
"669 1251 OFFCURVE",
"757 1277 OFFCURVE",
"861 1278 CURVE SMOOTH",
"898 1279 OFFCURVE",
"949 1272 OFFCURVE",
"1016 1258 CURVE SMOOTH",
"1083 1243 OFFCURVE",
"1129 1236 OFFCURVE",
"1156 1236 CURVE SMOOTH",
"1216 1236 OFFCURVE",
"1246 1265 OFFCURVE",
"1246 1324 CURVE SMOOTH",
"1246 1369 OFFCURVE",
"1192 1405 OFFCURVE",
"1084 1434 CURVE SMOOTH",
"1003 1456 OFFCURVE",
"930 1467 OFFCURVE",
"865 1467 CURVE SMOOTH",
"728 1467 OFFCURVE",
"595 1421 OFFCURVE",
"466 1328 CURVE SMOOTH",
"331 1230 OFFCURVE",
"264 1122 OFFCURVE",
"264 1003 CURVE SMOOTH",
"264 902 OFFCURVE",
"311 825 OFFCURVE",
"406 771 CURVE SMOOTH",
"480 729 OFFCURVE",
"570 706 OFFCURVE",
"675 702 CURVE SMOOTH",
"794 699 OFFCURVE",
"893 676 OFFCURVE",
"974 634 CURVE SMOOTH",
"1069 585 OFFCURVE",
"1117 519 OFFCURVE",
"1117 435 CURVE SMOOTH",
"1117 333 OFFCURVE",
"1060 253 OFFCURVE",
"947 196 CURVE SMOOTH",
"858 151 OFFCURVE",
"762 129 OFFCURVE",
"659 129 CURVE SMOOTH",
"551 129 OFFCURVE",
"469 148 OFFCURVE",
"412 185 CURVE SMOOTH",
"385 203 OFFCURVE",
"355 237 OFFCURVE",
"321 288 CURVE SMOOTH",
"296 325 OFFCURVE",
"268 344 OFFCURVE",
"235 344 CURVE SMOOTH",
"206 344 OFFCURVE",
"182 335 OFFCURVE",
"163 318 CURVE SMOOTH",
"143 300 OFFCURVE",
"133 277 OFFCURVE",
"134 249 CURVE SMOOTH"
);
}
);
width = 1420;
}
);
note = S;
unicode = 0053;
},
{
glyphname = T;
lastChange = "2018-09-24 13:43:15 +0000";
layers = (
{
hints = (
{
horizontal = 1;
place = "{1263, 205}";
type = Stem;
},
{
place = "{682, 202}";
type = Stem;
},
{
horizontal = 1;
place = "{1280, 205}";
type = Stem;
},
{
place = "{632, 203}";
type = Stem;
},
{
horizontal = 1;
place = "{1285, 205}";
type = Stem;
}
);
layerId = "10ADC4BD-3987-48B4-8AAC-8E23B2BCD4A9";
paths = (
{
closed = 1;
nodes = (
"1391 1263 OFFCURVE",
"1415 1273 OFFCURVE",
"1434 1293 CURVE SMOOTH",
"1453 1312 OFFCURVE",
"1463 1336 OFFCURVE",
"1463 1365 CURVE SMOOTH",
"1463 1394 OFFCURVE",
"1453 1419 OFFCURVE",
"1434 1439 CURVE SMOOTH",
"1415 1458 OFFCURVE",
"1391 1468 OFFCURVE",
"1362 1468 CURVE SMOOTH",
"1311 1468 OFFCURVE",
"1235 1472 OFFCURVE",
"1134 1479 CURVE SMOOTH",
"1033 1486 OFFCURVE",
"956 1490 OFFCURVE",
"905 1490 CURVE SMOOTH",
"865 1490 OFFCURVE",
"804 1489 OFFCURVE",
"723 1488 CURVE SMOOTH",
"642 1486 OFFCURVE",
"581 1485 OFFCURVE",
"541 1485 CURVE SMOOTH",
"500 1485 OFFCURVE",
"446 1489 OFFCURVE",
"379 1497 CURVE SMOOTH",
"296 1508 OFFCURVE",
"242 1514 OFFCURVE",
"219 1515 CURVE SMOOTH",
"188 1517 OFFCURVE",
"162 1506 OFFCURVE",
"142 1483 CURVE",
"125 1462 OFFCURVE",
"116 1438 OFFCURVE",
"116 1411 CURVE SMOOTH",
"116 1359 OFFCURVE",
"143 1326 OFFCURVE",
"197 1312 CURVE SMOOTH",
"280 1291 OFFCURVE",
"395 1280 OFFCURVE",
"541 1280 CURVE SMOOTH",
"632 1281 LINE",
"634 1200 OFFCURVE",
"643 1066 OFFCURVE",
"659 879 CURVE SMOOTH",
"674 706 OFFCURVE",
"682 572 OFFCURVE",
"682 477 CURVE SMOOTH",
"682 444 OFFCURVE",
"684 394 OFFCURVE",
"689 329 CURVE SMOOTH",
"693 264 OFFCURVE",
"695 215 OFFCURVE",
"695 182 CURVE SMOOTH",
"695 172 OFFCURVE",
"693 157 OFFCURVE",
"690 137 CURVE SMOOTH",
"687 117 OFFCURVE",
"685 102 OFFCURVE",
"685 92 CURVE SMOOTH",
"685 63 OFFCURVE",
"696 39 OFFCURVE",
"717 20 CURVE SMOOTH",
"738 1 OFFCURVE",
"762 -8 OFFCURVE",
"789 -8 CURVE SMOOTH",
"828 -8 OFFCURVE",
"857 14 OFFCURVE",
"876 58 CURVE SMOOTH",
"891 91 OFFCURVE",
"898 130 OFFCURVE",
"898 175 CURVE SMOOTH",
"898 199 OFFCURVE",
"896 235 OFFCURVE",
"891 282 CURVE SMOOTH",
"886 329 OFFCURVE",
"884 365 OFFCURVE",
"884 388 CURVE SMOOTH",
"884 495 OFFCURVE",
"877 644 OFFCURVE",
"862 837 CURVE SMOOTH",
"846 1044 OFFCURVE",
"837 1193 OFFCURVE",
"835 1285 CURVE",
"906 1285 LINE SMOOTH",
"958 1286 OFFCURVE",
"1034 1282 OFFCURVE",
"1134 1275 CURVE SMOOTH",
"1237 1267 OFFCURVE",
"1313 1263 OFFCURVE",
"1362 1263 CURVE SMOOTH"
);
}
);
width = 1392;
}
);
note = T;
unicode = 0054;
},
{
glyphname = U;
lastChange = "2018-09-24 13:43:15 +0000";
layers = (
{
hints = (
{
horizontal = 1;
place = "{-40, 176}";
type = Stem;
},
{
place = "{155, 206}";
type = Stem;
},
{
place = "{1184, 205}";
type = Stem;
}
);
layerId = "10ADC4BD-3987-48B4-8AAC-8E23B2BCD4A9";
paths = (
{
closed = 1;
nodes = (
"1189 -40 OFFCURVE",
"1389 346 OFFCURVE",
"1389 1118 CURVE SMOOTH",
"1389 1145 OFFCURVE",
"1389 1187 OFFCURVE",
"1389 1242 CURVE",
"1388 1297 OFFCURVE",
"1388 1339 OFFCURVE",
"1388 1366 CURVE SMOOTH",
"1388 1457 OFFCURVE",
"1355 1503 OFFCURVE",
"1288 1503 CURVE SMOOTH",
"1251 1503 OFFCURVE",
"1224 1483 OFFCURVE",
"1205 1443 CURVE SMOOTH",
"1190 1412 OFFCURVE",
"1183 1375 OFFCURVE",
"1183 1334 CURVE SMOOTH",
"1183 1321 OFFCURVE",
"1183 1294 OFFCURVE",
"1184 1254 CURVE SMOOTH",
"1184 1214 OFFCURVE",
"1184 1181 OFFCURVE",
"1184 1156 CURVE SMOOTH",
"1184 476 OFFCURVE",
"1051 136 OFFCURVE",
"785 136 CURVE SMOOTH",
"502 136 OFFCURVE",
"361 338 OFFCURVE",
"361 742 CURVE SMOOTH",
"361 1329 LINE SMOOTH",
"361 1442 OFFCURVE",
"330 1498 OFFCURVE",
"269 1498 CURVE SMOOTH",
"226 1498 OFFCURVE",
"196 1474 OFFCURVE",
"179 1425 CURVE SMOOTH",
"171 1401 OFFCURVE",
"165 1359 OFFCURVE",
"161 1298 CURVE SMOOTH",
"157 1241 OFFCURVE",
"155 1165 OFFCURVE",
"155 1072 CURVE SMOOTH",
"155 819 OFFCURVE",
"160 650 OFFCURVE",
"170 565 CURVE SMOOTH",
"191 377 OFFCURVE",
"243 235 OFFCURVE",
"326 139 CURVE SMOOTH",
"428 20 OFFCURVE",
"583 -40 OFFCURVE",
"790 -40 CURVE SMOOTH"
);
}
);
width = 1509;
}
);
note = U;
unicode = 0055;
},
{
glyphname = V;
lastChange = "2018-09-24 13:43:15 +0000";
layers = (
{
hints = (
{
horizontal = 1;
place = "{-80, 1615}";
type = Stem;
},
{
place = "{145, 1181}";
type = Stem;
}
);
layerId = "10ADC4BD-3987-48B4-8AAC-8E23B2BCD4A9";
paths = (
{
closed = 1;
nodes = (
"1319 1391 OFFCURVE",
"1326 1411 OFFCURVE",
"1326 1431 CURVE SMOOTH",
"1326 1460 OFFCURVE",
"1316 1484 OFFCURVE",
"1295 1505 CURVE SMOOTH",
"1274 1525 OFFCURVE",
"1250 1535 OFFCURVE",
"1223 1535 CURVE SMOOTH",
"1193 1535 OFFCURVE",
"1167 1522 OFFCURVE",
"1145 1495 CURVE SMOOTH",
"1102 1444 OFFCURVE",
"1062 1370 OFFCURVE",
"1024 1271 CURVE SMOOTH",
"939 1026 LINE",
"671 300 LINE",
"665 284 LINE",
"604 463 OFFCURVE",
"542 677 OFFCURVE",
"478 925 CURVE SMOOTH",
"382 1265 LINE",
"345 1439 LINE",
"330 1494 OFFCURVE",
"298 1521 OFFCURVE",
"247 1521 CURVE SMOOTH",
"220 1521 OFFCURVE",
"196 1512 OFFCURVE",
"177 1494 CURVE SMOOTH",
"156 1475 OFFCURVE",
"145 1450 OFFCURVE",
"145 1420 CURVE SMOOTH",
"145 1377 OFFCURVE",
"165 1287 OFFCURVE",
"204 1148 CURVE SMOOTH",
"283 873 LINE SMOOTH",
"382 492 OFFCURVE",
"471 201 OFFCURVE",
"552 -2 CURVE SMOOTH",
"573 -54 OFFCURVE",
"609 -80 OFFCURVE",
"660 -80 CURVE SMOOTH",
"699 -80 OFFCURVE",
"729 -60 OFFCURVE",
"750 -20 CURVE SMOOTH",
"792 61 OFFCURVE",
"829 145 OFFCURVE",
"860 230 CURVE SMOOTH",
"1129 957 LINE",
"1205 1176 LINE SMOOTH",
"1231 1244 OFFCURVE",
"1265 1309 OFFCURVE",
"1306 1371 CURVE SMOOTH"
);
}
);
width = 1331;
}
);
note = V;
unicode = 0056;
},
{
glyphname = W;
lastChange = "2018-09-24 13:43:15 +0000";
layers = (
{
hints = (
{
horizontal = 1;
place = "{-96, 1622}";
type = Stem;
},
{
place = "{139, 1957}";
type = Stem;
}
);
layerId = "10ADC4BD-3987-48B4-8AAC-8E23B2BCD4A9";
paths = (
{
closed = 1;
nodes = (
"1471 -96 OFFCURVE",
"1507 -74 OFFCURVE",
"1531 -29 CURVE",
"1598 122 OFFCURVE",
"1645 238 OFFCURVE",
"1672 317 CURVE",
"1969 1039 LINE",
"2024 1217 LINE",
"2064 1325 LINE SMOOTH",
"2085 1380 OFFCURVE",
"2096 1414 OFFCURVE",
"2096 1425 CURVE SMOOTH",
"2096 1492 OFFCURVE",
"2062 1525 OFFCURVE",
"1995 1525 CURVE SMOOTH",
"1956 1525 OFFCURVE",
"1925 1507 OFFCURVE",
"1901 1470 CURVE SMOOTH",
"1873 1427 OFFCURVE",
"1849 1366 OFFCURVE",
"1830 1288 CURVE SMOOTH",
"1804 1182 OFFCURVE",
"1787 1119 OFFCURVE",
"1780 1099 CURVE SMOOTH",
"1646 733 OFFCURVE",
"1534 443 OFFCURVE",
"1445 228 CURVE",
"1359 621 LINE SMOOTH",
"1327 774 OFFCURVE",
"1304 906 OFFCURVE",
"1291 1015 CURVE SMOOTH",
"1266 1231 OFFCURVE",
"1242 1368 OFFCURVE",
"1218 1425 CURVE SMOOTH",
"1199 1472 OFFCURVE",
"1166 1496 OFFCURVE",
"1119 1496 CURVE SMOOTH",
"1062 1496 OFFCURVE",
"1004 1422 OFFCURVE",
"944 1275 CURVE SMOOTH",
"921 1219 OFFCURVE",
"888 1119 OFFCURVE",
"845 974 CURVE SMOOTH",
"774 737 OFFCURVE",
"703 535 OFFCURVE",
"632 370 CURVE",
"535 812 LINE SMOOTH",
"496 982 OFFCURVE",
"456 1127 OFFCURVE",
"417 1248 CURVE SMOOTH",
"380 1362 OFFCURVE",
"356 1431 OFFCURVE",
"344 1455 CURVE SMOOTH",
"321 1502 OFFCURVE",
"287 1526 OFFCURVE",
"244 1526 CURVE SMOOTH",
"174 1526 OFFCURVE",
"139 1495 OFFCURVE",
"139 1433 CURVE SMOOTH",
"139 1421 OFFCURVE",
"141 1408 OFFCURVE",
"146 1393 CURVE SMOOTH",
"251 1084 OFFCURVE",
"325 847 OFFCURVE",
"368 682 CURVE",
"477 192 LINE",
"508 65 LINE",
"508 -16 OFFCURVE",
"553 -56 OFFCURVE",
"643 -56 CURVE SMOOTH",
"674 -56 OFFCURVE",
"701 -47 OFFCURVE",
"725 -29 CURVE SMOOTH",
"752 -10 OFFCURVE",
"765 15 OFFCURVE",
"765 45 CURVE SMOOTH",
"765 60 OFFCURVE",
"761 75 OFFCURVE",
"753 90 CURVE",
"776 190 OFFCURVE",
"827 328 OFFCURVE",
"906 505 CURVE SMOOTH",
"974 658 OFFCURVE",
"1038 844 OFFCURVE",
"1097 1064 CURVE",
"1108 955 OFFCURVE",
"1131 811 OFFCURVE",
"1165 632 CURVE SMOOTH",
"1210 395 OFFCURVE",
"1236 252 OFFCURVE",
"1244 201 CURVE SMOOTH",
"1252 150 OFFCURVE",
"1271 85 OFFCURVE",
"1302 4 CURVE",
"1302 -25 OFFCURVE",
"1315 -50 OFFCURVE",
"1342 -70 CURVE SMOOTH",
"1365 -87 OFFCURVE",
"1392 -96 OFFCURVE",
"1423 -96 CURVE SMOOTH"
);
}
);
width = 2129;
}
);
note = W;
unicode = 0057;
},
{
glyphname = X;
lastChange = "2018-09-24 13:43:15 +0000";
layers = (
{
hints = (
{
horizontal = 1;
place = "{-84, 1605}";
type = Stem;
},
{
place = "{68, 1338}";
type = Stem;
}
);
layerId = "10ADC4BD-3987-48B4-8AAC-8E23B2BCD4A9";
paths = (
{
closed = 1;
nodes = (
"1397 1371 OFFCURVE",
"1406 1394 OFFCURVE",
"1406 1417 CURVE SMOOTH",
"1406 1445 OFFCURVE",
"1396 1469 OFFCURVE",
"1375 1490 CURVE SMOOTH",
"1354 1511 OFFCURVE",
"1330 1521 OFFCURVE",
"1303 1521 CURVE SMOOTH",
"1259 1521 OFFCURVE",
"1163 1418 OFFCURVE",
"1015 1212 CURVE SMOOTH",
"787 894 LINE",
"718 985 OFFCURVE",
"646 1076 OFFCURVE",
"570 1167 CURVE",
"514 1242 OFFCURVE",
"472 1299 OFFCURVE",
"445 1340 CURVE",
"357 1461 OFFCURVE",
"285 1521 OFFCURVE",
"228 1521 CURVE SMOOTH",
"199 1521 OFFCURVE",
"175 1510 OFFCURVE",
"156 1489 CURVE SMOOTH",
"137 1468 OFFCURVE",
"127 1443 OFFCURVE",
"127 1416 CURVE SMOOTH",
"127 1385 OFFCURVE",
"141 1358 OFFCURVE",
"169 1335 CURVE SMOOTH",
"209 1302 OFFCURVE",
"252 1254 OFFCURVE",
"299 1191 CURVE SMOOTH",
"415 1034 LINE",
"498 935 OFFCURVE",
"576 837 OFFCURVE",
"649 739 CURVE",
"274 304 LINE",
"94 103 LINE",
"77 82 OFFCURVE",
"68 59 OFFCURVE",
"68 35 CURVE SMOOTH",
"68 7 OFFCURVE",
"78 -17 OFFCURVE",
"99 -38 CURVE SMOOTH",
"120 -59 OFFCURVE",
"144 -69 OFFCURVE",
"171 -69 CURVE SMOOTH",
"198 -69 OFFCURVE",
"222 -58 OFFCURVE",
"244 -36 CURVE",
"428 170 LINE",
"772 568 LINE",
"929 343 LINE",
"1063 137 LINE SMOOTH",
"1116 57 OFFCURVE",
"1168 -6 OFFCURVE",
"1217 -53 CURVE SMOOTH",
"1239 -74 OFFCURVE",
"1263 -84 OFFCURVE",
"1288 -84 CURVE SMOOTH",
"1316 -84 OFFCURVE",
"1340 -74 OFFCURVE",
"1361 -53 CURVE SMOOTH",
"1381 -32 OFFCURVE",
"1391 -8 OFFCURVE",
"1391 20 CURVE SMOOTH",
"1391 44 OFFCURVE",
"1382 67 OFFCURVE",
"1364 89 CURVE SMOOTH",
"1296 170 OFFCURVE",
"1218 274 OFFCURVE",
"1131 401 CURVE SMOOTH",
"911 723 LINE",
"954 770 OFFCURVE",
"999 829 OFFCURVE",
"1048 898 CURVE SMOOTH",
"1173 1082 LINE SMOOTH",
"1221 1152 OFFCURVE",
"1290 1241 OFFCURVE",
"1379 1349 CURVE SMOOTH"
);
}
);
width = 1482;
}
);
note = X;
unicode = 0058;
},
{
glyphname = Y;
lastChange = "2018-09-24 13:43:15 +0000";
layers = (
{
hints = (
{
horizontal = 1;
place = "{-70, 1591}";
type = Stem;
},
{
place = "{29, 1196}";
type = Stem;
}
);
layerId = "10ADC4BD-3987-48B4-8AAC-8E23B2BCD4A9";
paths = (
{
closed = 1;
nodes = (
"1207 1342 OFFCURVE",
"1225 1389 OFFCURVE",
"1225 1420 CURVE SMOOTH",
"1225 1449 OFFCURVE",
"1215 1473 OFFCURVE",
"1194 1492 CURVE SMOOTH",
"1173 1511 OFFCURVE",
"1149 1520 OFFCURVE",
"1122 1520 CURVE SMOOTH",
"1079 1520 OFFCURVE",
"1048 1497 OFFCURVE",
"1029 1452 CURVE",
"983 1356 OFFCURVE",
"947 1285 OFFCURVE",
"921 1239 CURVE",
"692 681 LINE",
"620 777 OFFCURVE",
"573 853 OFFCURVE",
"551 908 CURVE SMOOTH",
"523 978 OFFCURVE",
"484 1054 OFFCURVE",
"434 1136 CURVE SMOOTH",
"411 1174 OFFCURVE",
"365 1245 OFFCURVE",
"294 1350 CURVE SMOOTH",
"214 1474 LINE",
"192 1505 OFFCURVE",
"165 1521 OFFCURVE",
"132 1521 CURVE SMOOTH",
"105 1521 OFFCURVE",
"82 1511 OFFCURVE",
"61 1492 CURVE SMOOTH",
"40 1472 OFFCURVE",
"29 1448 OFFCURVE",
"29 1419 CURVE SMOOTH",
"29 1401 OFFCURVE",
"34 1383 OFFCURVE",
"44 1365 CURVE SMOOTH",
"61 1335 OFFCURVE",
"117 1248 OFFCURVE",
"213 1104 CURVE SMOOTH",
"283 999 OFFCURVE",
"333 908 OFFCURVE",
"363 833 CURVE SMOOTH",
"398 744 OFFCURVE",
"476 623 OFFCURVE",
"595 469 CURVE",
"472 244 LINE SMOOTH",
"409 125 OFFCURVE",
"378 54 OFFCURVE",
"378 31 CURVE SMOOTH",
"378 2 OFFCURVE",
"389 -22 OFFCURVE",
"410 -41 CURVE SMOOTH",
"431 -60 OFFCURVE",
"455 -70 OFFCURVE",
"481 -70 CURVE SMOOTH",
"518 -70 OFFCURVE",
"548 -51 OFFCURVE",
"570 -12 CURVE",
"623 96 LINE",
"748 319 LINE",
"807 438 OFFCURVE",
"869 578 OFFCURVE",
"936 737 CURVE SMOOTH",
"1108 1162 LINE",
"1135 1215 OFFCURVE",
"1156 1254 OFFCURVE",
"1172 1279 CURVE"
);
}
);
width = 1301;
}
);
note = Y;
unicode = 0059;
},
{
glyphname = Z;
lastChange = "2018-09-24 13:43:15 +0000";
layers = (
{
hints = (
{
horizontal = 1;
place = "{-36, 178}";
type = Stem;
},
{
horizontal = 1;
place = "{1305, 190}";
type = Stem;
},
{
place = "{68, 1314}";
type = Stem;
}
);
layerId = "10ADC4BD-3987-48B4-8AAC-8E23B2BCD4A9";
paths = (
{
closed = 1;
nodes = (
"1266 1251 LINE",
"1343 1308 OFFCURVE",
"1382 1359 OFFCURVE",
"1382 1403 CURVE SMOOTH",
"1382 1468 OFFCURVE",
"1296 1500 OFFCURVE",
"1125 1500 CURVE SMOOTH",
"1073 1500 OFFCURVE",
"996 1497 OFFCURVE",
"894 1490 CURVE SMOOTH",
"791 1483 OFFCURVE",
"714 1480 OFFCURVE",
"663 1480 CURVE SMOOTH",
"617 1480 OFFCURVE",
"549 1485 OFFCURVE",
"458 1495 CURVE SMOOTH",
"367 1504 OFFCURVE",
"298 1509 OFFCURVE",
"252 1509 CURVE SMOOTH",
"201 1509 OFFCURVE",
"165 1504 OFFCURVE",
"143 1495 CURVE SMOOTH",
"107 1480 OFFCURVE",
"89 1450 OFFCURVE",
"89 1405 CURVE SMOOTH",
"89 1336 OFFCURVE",
"124 1302 OFFCURVE",
"195 1302 CURVE SMOOTH",
"202 1302 OFFCURVE",
"212 1303 OFFCURVE",
"227 1304 CURVE SMOOTH",
"241 1305 OFFCURVE",
"252 1305 OFFCURVE",
"259 1305 CURVE SMOOTH",
"663 1305 LINE",
"1013 1325 LINE",
"885 1216 OFFCURVE",
"747 1064 OFFCURVE",
"598 867 CURVE SMOOTH",
"237 365 LINE",
"130 216 LINE",
"89 149 OFFCURVE",
"68 94 OFFCURVE",
"68 50 CURVE SMOOTH",
"68 -17 OFFCURVE",
"106 -51 OFFCURVE",
"183 -51 CURVE SMOOTH",
"284 -51 OFFCURVE",
"437 -49 OFFCURVE",
"640 -44 CURVE SMOOTH",
"843 -39 OFFCURVE",
"995 -36 OFFCURVE",
"1096 -36 CURVE SMOOTH",
"1115 -36 OFFCURVE",
"1144 -37 OFFCURVE",
"1183 -40 CURVE SMOOTH",
"1222 -42 OFFCURVE",
"1251 -43 OFFCURVE",
"1270 -43 CURVE SMOOTH",
"1300 -43 OFFCURVE",
"1325 -35 OFFCURVE",
"1345 -18 CURVE SMOOTH",
"1368 1 OFFCURVE",
"1378 27 OFFCURVE",
"1377 60 CURVE SMOOTH",
"1375 104 OFFCURVE",
"1347 131 OFFCURVE",
"1293 142 CURVE SMOOTH",
"1251 150 OFFCURVE",
"1186 154 OFFCURVE",
"1098 154 CURVE SMOOTH",
"1008 154 OFFCURVE",
"878 150 OFFCURVE",
"708 142 CURVE SMOOTH",
"319 127 LINE",
"335 148 OFFCURVE",
"351 172 OFFCURVE",
"368 197 CURVE SMOOTH",
"719 708 LINE SMOOTH",
"872 915 OFFCURVE",
"1010 1065 OFFCURVE",
"1131 1159 CURVE"
);
}
);
width = 1420;
}
);
note = Z;
unicode = 005A;
},
{
glyphname = bracketleft;
lastChange = "2018-09-24 13:43:15 +0000";
layers = (
{
hints = (
{
horizontal = 1;
place = "{-412, 194}";
type = Stem;
},
{
horizontal = 1;
place = "{1323, 195}";
type = Stem;
},
{
place = "{176, 185}";
type = Stem;
},
{
place = "{205, 177}";
type = Stem;
}
);
layerId = "10ADC4BD-3987-48B4-8AAC-8E23B2BCD4A9";
paths = (
{
closed = 1;
nodes = (
"459 -412 OFFCURVE",
"489 -413 OFFCURVE",
"528 -415 CURVE SMOOTH",
"567 -416 OFFCURVE",
"596 -417 OFFCURVE",
"615 -417 CURVE SMOOTH",
"642 -417 OFFCURVE",
"663 -408 OFFCURVE",
"679 -389 CURVE SMOOTH",
"694 -370 OFFCURVE",
"702 -347 OFFCURVE",
"702 -320 CURVE SMOOTH",
"702 -293 OFFCURVE",
"694 -271 OFFCURVE",
"679 -252 CURVE SMOOTH",
"663 -233 OFFCURVE",
"642 -223 OFFCURVE",
"615 -223 CURVE SMOOTH",
"596 -223 OFFCURVE",
"567 -222 OFFCURVE",
"528 -221 CURVE SMOOTH",
"489 -219 OFFCURVE",
"459 -218 OFFCURVE",
"440 -218 CURVE SMOOTH",
"353 -221 LINE",
"369 449 LINE",
"382 1120 LINE SMOOTH",
"382 1195 OFFCURVE",
"380 1263 OFFCURVE",
"376 1323 CURVE",
"455 1320 OFFCURVE",
"523 1321 OFFCURVE",
"579 1326 CURVE SMOOTH",
"635 1331 OFFCURVE",
"663 1364 OFFCURVE",
"663 1423 CURVE SMOOTH",
"663 1488 OFFCURVE",
"632 1520 OFFCURVE",
"571 1520 CURVE SMOOTH",
"558 1520 OFFCURVE",
"540 1519 OFFCURVE",
"515 1518 CURVE",
"490 1516 OFFCURVE",
"471 1515 OFFCURVE",
"458 1515 CURVE SMOOTH",
"438 1515 OFFCURVE",
"408 1516 OFFCURVE",
"368 1518 CURVE SMOOTH",
"327 1519 OFFCURVE",
"297 1520 OFFCURVE",
"277 1520 CURVE SMOOTH",
"250 1520 OFFCURVE",
"229 1510 OFFCURVE",
"212 1491 CURVE SMOOTH",
"195 1472 OFFCURVE",
"187 1449 OFFCURVE",
"188 1424 CURVE SMOOTH",
"189 1410 LINE",
"205 1107 LINE",
"205 985 OFFCURVE",
"200 751 OFFCURVE",
"191 404 CURVE SMOOTH",
"181 57 OFFCURVE",
"176 -178 OFFCURVE",
"176 -300 CURVE SMOOTH",
"176 -378 OFFCURVE",
"219 -417 OFFCURVE",
"305 -417 CURVE SMOOTH",
"320 -417 OFFCURVE",
"343 -416 OFFCURVE",
"373 -415 CURVE SMOOTH",
"403 -413 OFFCURVE",
"425 -412 OFFCURVE",
"440 -412 CURVE SMOOTH"
);
}
);
width = 771;
}
);
note = bracketleft;
unicode = 005B;
},
{
glyphname = backslash;
lastChange = "2018-09-24 13:43:15 +0000";
layers = (
{
hints = (
{
horizontal = 1;
place = "{-141, 1665}";
type = Stem;
},
{
place = "{177, 838}";
type = Stem;
}
);
layerId = "10ADC4BD-3987-48B4-8AAC-8E23B2BCD4A9";
paths = (
{
closed = 1;
nodes = (
"945 -141 OFFCURVE",
"968 -132 OFFCURVE",
"987 -113 CURVE SMOOTH",
"1006 -94 OFFCURVE",
"1015 -71 OFFCURVE",
"1015 -45 CURVE SMOOTH",
"1015 -30 OFFCURVE",
"1011 -15 OFFCURVE",
"1003 2 CURVE SMOOTH",
"940 136 OFFCURVE",
"873 294 OFFCURVE",
"802 475 CURVE SMOOTH",
"597 990 LINE SMOOTH",
"508 1201 OFFCURVE",
"426 1364 OFFCURVE",
"350 1478 CURVE SMOOTH",
"329 1509 OFFCURVE",
"304 1524 OFFCURVE",
"274 1524 CURVE SMOOTH",
"249 1524 OFFCURVE",
"226 1514 OFFCURVE",
"207 1495 CURVE SMOOTH",
"187 1476 OFFCURVE",
"177 1453 OFFCURVE",
"177 1427 CURVE SMOOTH",
"177 1411 OFFCURVE",
"182 1393 OFFCURVE",
"193 1374 CURVE SMOOTH",
"310 1162 OFFCURVE",
"389 1006 OFFCURVE",
"432 905 CURVE SMOOTH",
"723 160 LINE SMOOTH",
"776 35 OFFCURVE",
"815 -48 OFFCURVE",
"840 -90 CURVE SMOOTH",
"860 -124 OFFCURVE",
"887 -141 OFFCURVE",
"920 -141 CURVE SMOOTH"
);
}
);
width = 1126;
}
);
note = backslash;
unicode = 005C;
},
{
glyphname = bracketright;
lastChange = "2018-09-24 13:43:15 +0000";
layers = (
{
hints = (
{
horizontal = 1;
place = "{-417, 1937}";
type = Stem;
},
{
place = "{176, 526}";
type = Stem;
}
);
layerId = "10ADC4BD-3987-48B4-8AAC-8E23B2BCD4A9";
paths = (
{
closed = 1;
nodes = (
"419 -412 OFFCURVE",
"390 -413 OFFCURVE",
"351 -415 CURVE SMOOTH",
"312 -416 OFFCURVE",
"282 -417 OFFCURVE",
"263 -417 CURVE SMOOTH",
"237 -417 OFFCURVE",
"216 -408 OFFCURVE",
"200 -389 CURVE SMOOTH",
"184 -370 OFFCURVE",
"176 -347 OFFCURVE",
"176 -320 CURVE SMOOTH",
"176 -293 OFFCURVE",
"184 -271 OFFCURVE",
"200 -252 CURVE SMOOTH",
"216 -233 OFFCURVE",
"237 -223 OFFCURVE",
"263 -223 CURVE SMOOTH",
"282 -223 OFFCURVE",
"312 -222 OFFCURVE",
"351 -221 CURVE SMOOTH",
"390 -219 OFFCURVE",
"419 -218 OFFCURVE",
"438 -218 CURVE SMOOTH",
"525 -221 LINE",
"509 449 LINE",
"496 1120 LINE",
"496 1195 OFFCURVE",
"498 1263 OFFCURVE",
"503 1323 CURVE",
"423 1320 OFFCURVE",
"355 1321 OFFCURVE",
"299 1326 CURVE SMOOTH",
"243 1331 OFFCURVE",
"215 1364 OFFCURVE",
"215 1423 CURVE SMOOTH",
"215 1488 OFFCURVE",
"246 1520 OFFCURVE",
"307 1520 CURVE SMOOTH",
"320 1520 OFFCURVE",
"339 1519 OFFCURVE",
"364 1518 CURVE",
"389 1516 OFFCURVE",
"407 1515 OFFCURVE",
"420 1515 CURVE SMOOTH",
"440 1515 OFFCURVE",
"470 1516 OFFCURVE",
"511 1518 CURVE SMOOTH",
"551 1519 OFFCURVE",
"581 1520 OFFCURVE",
"602 1520 CURVE SMOOTH",
"628 1520 OFFCURVE",
"650 1510 OFFCURVE",
"667 1491 CURVE SMOOTH",
"684 1472 OFFCURVE",
"691 1449 OFFCURVE",
"690 1424 CURVE SMOOTH",
"689 1410 LINE",
"673 1107 LINE",
"673 985 OFFCURVE",
"678 751 OFFCURVE",
"688 404 CURVE SMOOTH",
"697 57 OFFCURVE",
"702 -178 OFFCURVE",
"702 -300 CURVE SMOOTH",
"702 -378 OFFCURVE",
"659 -417 OFFCURVE",
"573 -417 CURVE SMOOTH",
"558 -417 OFFCURVE",
"536 -416 OFFCURVE",
"506 -415 CURVE SMOOTH",
"476 -413 OFFCURVE",
"453 -412 OFFCURVE",
"438 -412 CURVE SMOOTH"
);
}
);
width = 771;
}
);
note = bracketright;
unicode = 005D;
},
{
glyphname = asciicircum;
lastChange = "2018-09-24 13:43:15 +0000";
layers = (
{
hints = (
{
horizontal = 1;
place = "{1122, 524}";
type = Stem;
},
{
place = "{198, 823}";
type = Stem;
}
);
layerId = "10ADC4BD-3987-48B4-8AAC-8E23B2BCD4A9";
paths = (
{
closed = 1;
nodes = (
"571 1646 OFFCURVE",
"551 1636 OFFCURVE",
"533 1615 CURVE SMOOTH",
"367 1426 OFFCURVE",
"266 1314 OFFCURVE",
"229 1278 CURVE",
"208 1259 OFFCURVE",
"198 1237 OFFCURVE",
"198 1214 CURVE SMOOTH",
"198 1190 OFFCURVE",
"207 1169 OFFCURVE",
"226 1150 CURVE SMOOTH",
"244 1131 OFFCURVE",
"265 1122 OFFCURVE",
"289 1122 CURVE SMOOTH",
"337 1122 OFFCURVE",
"446 1226 OFFCURVE",
"615 1433 CURVE",
"729 1320 OFFCURVE",
"813 1233 OFFCURVE",
"866 1173 CURVE",
"886 1154 OFFCURVE",
"907 1144 OFFCURVE",
"929 1144 CURVE SMOOTH",
"953 1144 OFFCURVE",
"974 1153 OFFCURVE",
"993 1172 CURVE SMOOTH",
"1012 1190 OFFCURVE",
"1021 1211 OFFCURVE",
"1021 1236 CURVE SMOOTH",
"1021 1257 OFFCURVE",
"1012 1277 OFFCURVE",
"994 1297 CURVE SMOOTH",
"836 1467 LINE SMOOTH",
"779 1527 OFFCURVE",
"742 1564 OFFCURVE",
"726 1578 CURVE SMOOTH",
"675 1623 OFFCURVE",
"631 1646 OFFCURVE",
"594 1646 CURVE SMOOTH"
);
}
);
width = 1190;
}
);
note = asciicircum;
unicode = 005E;
},
{
glyphname = underscore;
lastChange = "2018-09-24 13:43:15 +0000";
layers = (
{
hints = (
{
horizontal = 1;
place = "{-345, 177}";
type = Stem;
},
{
place = "{-35, 1358}";
type = Stem;
},
{
horizontal = 1;
place = "{-335, 175}";
type = Stem;
}
);
layerId = "10ADC4BD-3987-48B4-8AAC-8E23B2BCD4A9";
paths = (
{
closed = 1;
nodes = (
"1323 -345 LINE",
"1323 -160 LINE",
"988 -168 LINE SMOOTH",
"941 -168 OFFCURVE",
"870 -166 OFFCURVE",
"777 -163 CURVE SMOOTH",
"683 -159 OFFCURVE",
"612 -157 OFFCURVE",
"565 -157 CURVE SMOOTH",
"498 -157 OFFCURVE",
"398 -158 OFFCURVE",
"265 -159 CURVE SMOOTH",
"132 -160 OFFCURVE",
"32 -160 OFFCURVE",
"-35 -160 CURVE",
"-35 -345 LINE",
"-20 -345 OFFCURVE",
"2 -343 OFFCURVE",
"33 -340 CURVE SMOOTH",
"64 -337 OFFCURVE",
"87 -335 OFFCURVE",
"102 -335 CURVE SMOOTH",
"547 -335 LINE SMOOTH",
"594 -335 OFFCURVE",
"665 -337 OFFCURVE",
"760 -340 CURVE SMOOTH",
"855 -343 OFFCURVE",
"926 -345 OFFCURVE",
"973 -345 CURVE SMOOTH"
);
}
);
width = 1284;
}
);
note = underscore;
unicode = 005F;
},
{
glyphname = grave;
lastChange = "2018-09-24 13:43:15 +0000";
layers = (
{
hints = (
{
horizontal = 1;
place = "{1178, 483}";
type = Stem;
},
{
place = "{149, 428}";
type = Stem;
}
);
layerId = "10ADC4BD-3987-48B4-8AAC-8E23B2BCD4A9";
paths = (
{
closed = 1;
nodes = (
"577 1310 OFFCURVE",
"531 1386 OFFCURVE",
"440 1495 CURVE SMOOTH",
"347 1606 OFFCURVE",
"279 1661 OFFCURVE",
"238 1661 CURVE SMOOTH",
"214 1661 OFFCURVE",
"193 1652 OFFCURVE",
"176 1633 CURVE SMOOTH",
"158 1614 OFFCURVE",
"149 1592 OFFCURVE",
"149 1568 CURVE SMOOTH",
"149 1541 OFFCURVE",
"162 1517 OFFCURVE",
"188 1497 CURVE SMOOTH",
"235 1460 OFFCURVE",
"277 1418 OFFCURVE",
"312 1369 CURVE SMOOTH",
"412 1220 LINE SMOOTH",
"431 1192 OFFCURVE",
"455 1178 OFFCURVE",
"484 1178 CURVE SMOOTH",
"508 1178 OFFCURVE",
"530 1187 OFFCURVE",
"549 1205 CURVE SMOOTH",
"568 1222 OFFCURVE",
"577 1243 OFFCURVE",
"577 1267 CURVE SMOOTH"
);
}
);
width = 1139;
}
);
note = grave;
unicode = 0060;
},
{
glyphname = a;
lastChange = "2018-09-24 13:43:15 +0000";
layers = (
{
hints = (
{
horizontal = 1;
place = "{-54, 175}";
type = Stem;
},
{
horizontal = 1;
place = "{867, 177}";
type = Stem;
},
{
place = "{51, 197}";
type = Stem;
},
{
place = "{712, 192}";
type = Stem;
}
);
layerId = "10ADC4BD-3987-48B4-8AAC-8E23B2BCD4A9";
paths = (
{
closed = 1;
nodes = (
"945 -66 OFFCURVE",
"966 -57 OFFCURVE",
"985 -40 CURVE SMOOTH",
"1004 -23 OFFCURVE",
"1013 -1 OFFCURVE",
"1013 26 CURVE",
"1007 43 LINE",
"996 66 OFFCURVE",
"989 84 OFFCURVE",
"984 96 CURVE SMOOTH",
"949 184 OFFCURVE",
"928 243 OFFCURVE",
"921 272 CURVE SMOOTH",
"909 320 OFFCURVE",
"903 385 OFFCURVE",
"904 468 CURVE SMOOTH",
"905 559 OFFCURVE",
"907 633 OFFCURVE",
"911 691 CURVE SMOOTH",
"914 749 OFFCURVE",
"919 791 OFFCURVE",
"926 816 CURVE",
"939 830 OFFCURVE",
"946 846 OFFCURVE",
"946 864 CURVE SMOOTH",
"946 917 OFFCURVE",
"901 962 OFFCURVE",
"810 999 CURVE SMOOTH",
"738 1029 OFFCURVE",
"673 1044 OFFCURVE",
"615 1044 CURVE SMOOTH",
"461 1044 OFFCURVE",
"329 987 OFFCURVE",
"218 872 CURVE SMOOTH",
"107 757 OFFCURVE",
"51 619 OFFCURVE",
"51 458 CURVE SMOOTH",
"51 287 OFFCURVE",
"85 161 OFFCURVE",
"152 78 CURVE SMOOTH",
"223 -10 OFFCURVE",
"337 -54 OFFCURVE",
"493 -54 CURVE SMOOTH",
"526 -54 OFFCURVE",
"566 -45 OFFCURVE",
"615 -28 CURVE SMOOTH",
"664 -10 OFFCURVE",
"720 16 OFFCURVE",
"784 51 CURVE",
"799 30 OFFCURVE",
"821 5 OFFCURVE",
"851 -22 CURVE SMOOTH",
"884 -51 OFFCURVE",
"907 -66 OFFCURVE",
"920 -66 CURVE SMOOTH"
);
},
{
closed = 1;
nodes = (
"712 541 OFFCURVE",
"723 409 OFFCURVE",
"744 232 CURVE",
"701 194 OFFCURVE",
"667 169 OFFCURVE",
"643 156 CURVE SMOOTH",
"598 133 OFFCURVE",
"544 121 OFFCURVE",
"480 121 CURVE SMOOTH",
"403 121 OFFCURVE",
"345 148 OFFCURVE",
"306 203 CURVE SMOOTH",
"267 258 OFFCURVE",
"248 340 OFFCURVE",
"248 449 CURVE SMOOTH",
"248 559 OFFCURVE",
"286 656 OFFCURVE",
"361 741 CURVE SMOOTH",
"436 825 OFFCURVE",
"525 867 OFFCURVE",
"628 867 CURVE SMOOTH",
"639 867 OFFCURVE",
"653 864 OFFCURVE",
"671 858 CURVE SMOOTH",
"688 852 OFFCURVE",
"709 843 OFFCURVE",
"734 830 CURVE",
"727 792 OFFCURVE",
"721 756 OFFCURVE",
"718 723 CURVE SMOOTH",
"714 689 OFFCURVE",
"712 658 OFFCURVE",
"712 629 CURVE SMOOTH"
);
}
);
width = 1048;
}
);
note = a;
unicode = 0061;
},
{
glyphname = b;
lastChange = "2018-09-24 13:43:15 +0000";
layers = (
{
hints = (
{
horizontal = 1;
place = "{-42, 190}";
type = Stem;
},
{
horizontal = 1;
place = "{861, 189}";
type = Stem;
},
{
place = "{153, 179}";
type = Stem;
},
{
place = "{937, 182}";
type = Stem;
},
{
place = "{164, 167.5}";
type = Stem;
}
);
layerId = "10ADC4BD-3987-48B4-8AAC-8E23B2BCD4A9";
paths = (
{
closed = 1;
nodes = (
"752 -42 OFFCURVE",
"874 11 OFFCURVE",
"972 117 CURVE SMOOTH",
"1070 223 OFFCURVE",
"1119 352 OFFCURVE",
"1119 504 CURVE SMOOTH",
"1119 655 OFFCURVE",
"1077 782 OFFCURVE",
"993 885 CURVE SMOOTH",
"904 995 OFFCURVE",
"787 1050 OFFCURVE",
"644 1050 CURVE SMOOTH",
"598 1050 OFFCURVE",
"549 1040 OFFCURVE",
"497 1021 CURVE SMOOTH",
"444 1001 OFFCURVE",
"389 971 OFFCURVE",
"331 932 CURVE",
"333 1187 LINE",
"336 1406 LINE SMOOTH",
"336 1415 OFFCURVE",
"338 1429 OFFCURVE",
"341 1447 CURVE SMOOTH",
"344 1465 OFFCURVE",
"346 1479 OFFCURVE",
"346 1488 CURVE SMOOTH",
"346 1546 OFFCURVE",
"321 1575 OFFCURVE",
"271 1575 CURVE SMOOTH",
"232 1575 OFFCURVE",
"202 1555 OFFCURVE",
"180 1514 CURVE SMOOTH",
"163 1482 OFFCURVE",
"155 1446 OFFCURVE",
"155 1406 CURVE SMOOTH",
"155 1357 OFFCURVE",
"155 1264 OFFCURVE",
"154 1129 CURVE SMOOTH",
"153 993 OFFCURVE",
"153 901 OFFCURVE",
"153 852 CURVE SMOOTH",
"153 781 OFFCURVE",
"155 676 OFFCURVE",
"159 535 CURVE SMOOTH",
"162 394 OFFCURVE",
"164 288 OFFCURVE",
"164 217 CURVE SMOOTH",
"164 200 OFFCURVE",
"163 174 OFFCURVE",
"162 140 CURVE SMOOTH",
"160 106 OFFCURVE",
"159 80 OFFCURVE",
"159 63 CURVE SMOOTH",
"159 36 OFFCURVE",
"168 14 OFFCURVE",
"186 -4 CURVE SMOOTH",
"203 -21 OFFCURVE",
"225 -30 OFFCURVE",
"250 -30 CURVE SMOOTH",
"281 -30 OFFCURVE",
"307 -14 OFFCURVE",
"328 18 CURVE",
"411 -22 OFFCURVE",
"504 -42 OFFCURVE",
"606 -42 CURVE SMOOTH"
);
},
{
closed = 1;
nodes = (
"735 861 OFFCURVE",
"808 825 OFFCURVE",
"862 753 CURVE SMOOTH",
"912 686 OFFCURVE",
"937 603 OFFCURVE",
"937 504 CURVE SMOOTH",
"937 403 OFFCURVE",
"906 318 OFFCURVE",
"844 250 CURVE SMOOTH",
"782 182 OFFCURVE",
"703 148 OFFCURVE",
"606 148 CURVE SMOOTH",
"555 148 OFFCURVE",
"508 154 OFFCURVE",
"467 167 CURVE",
"409 190 OFFCURVE",
"364 208 OFFCURVE",
"332 223 CURVE",
"331 387 LINE",
"330 543 LINE",
"332 716 LINE",
"400 767 OFFCURVE",
"448 800 OFFCURVE",
"476 815 CURVE SMOOTH",
"533 846 OFFCURVE",
"589 861 OFFCURVE",
"644 861 CURVE SMOOTH"
);
}
);
width = 1215;
}
);
note = b;
unicode = 0062;
},
{
glyphname = c;
lastChange = "2018-09-24 13:43:15 +0000";
layers = (
{
hints = (
{
horizontal = 1;
place = "{-63, 188}";
type = Stem;
},
{
horizontal = 1;
place = "{875, 188}";
type = Stem;
},
{
place = "{105, 180}";
type = Stem;
}
);
layerId = "10ADC4BD-3987-48B4-8AAC-8E23B2BCD4A9";
paths = (
{
closed = 1;
nodes = (
"650 -63 OFFCURVE",
"725 -43 OFFCURVE",
"815 -3 CURVE SMOOTH",
"918 42 OFFCURVE",
"969 89 OFFCURVE",
"969 138 CURVE SMOOTH",
"969 163 OFFCURVE",
"960 186 OFFCURVE",
"942 206 CURVE SMOOTH",
"924 225 OFFCURVE",
"903 235 OFFCURVE",
"878 235 CURVE SMOOTH",
"869 235 OFFCURVE",
"855 230 OFFCURVE",
"835 219 CURVE SMOOTH",
"719 157 LINE",
"674 136 OFFCURVE",
"631 125 OFFCURVE",
"591 125 CURVE SMOOTH",
"503 125 OFFCURVE",
"431 149 OFFCURVE",
"375 196 CURVE SMOOTH",
"315 247 OFFCURVE",
"285 316 OFFCURVE",
"285 404 CURVE SMOOTH",
"285 485 OFFCURVE",
"315 582 OFFCURVE",
"376 693 CURVE SMOOTH",
"443 814 OFFCURVE",
"510 875 OFFCURVE",
"578 875 CURVE SMOOTH",
"667 875 OFFCURVE",
"732 859 OFFCURVE",
"771 828 CURVE SMOOTH",
"784 817 OFFCURVE",
"798 805 OFFCURVE",
"813 794 CURVE",
"827 782 OFFCURVE",
"844 776 OFFCURVE",
"863 776 CURVE SMOOTH",
"888 776 OFFCURVE",
"908 786 OFFCURVE",
"925 806 CURVE SMOOTH",
"942 825 OFFCURVE",
"950 848 OFFCURVE",
"950 873 CURVE SMOOTH",
"950 930 OFFCURVE",
"899 978 OFFCURVE",
"797 1017 CURVE SMOOTH",
"716 1048 OFFCURVE",
"643 1063 OFFCURVE",
"578 1063 CURVE SMOOTH",
"453 1063 OFFCURVE",
"340 983 OFFCURVE",
"240 823 CURVE SMOOTH",
"150 679 OFFCURVE",
"105 539 OFFCURVE",
"105 404 CURVE SMOOTH",
"105 262 OFFCURVE",
"153 148 OFFCURVE",
"249 61 CURVE SMOOTH",
"340 -22 OFFCURVE",
"454 -63 OFFCURVE",
"591 -63 CURVE SMOOTH"
);
}
);
width = 1052;
}
);
note = c;
unicode = 0063;
},
{
glyphname = d;
lastChange = "2018-09-24 13:43:15 +0000";
layers = (
{
hints = (
{
horizontal = 1;
place = "{-46, 189}";
type = Stem;
},
{
horizontal = 1;
place = "{857, 186}";
type = Stem;
},
{
place = "{103, 177}";
type = Stem;
},
{
place = "{867, 181}";
type = Stem;
}
);
layerId = "10ADC4BD-3987-48B4-8AAC-8E23B2BCD4A9";
paths = (
{
closed = 1;
nodes = (
"1087 1200 OFFCURVE",
"1100 1404 OFFCURVE",
"1100 1497 CURVE SMOOTH",
"1100 1562 OFFCURVE",
"1070 1594 OFFCURVE",
"1009 1594 CURVE SMOOTH",
"957 1594 OFFCURVE",
"927 1564 OFFCURVE",
"918 1505 CURVE SMOOTH",
"905 1408 OFFCURVE",
"894 1219 OFFCURVE",
"885 938 CURVE",
"791 1007 LINE",
"749 1031 OFFCURVE",
"689 1043 OFFCURVE",
"612 1043 CURVE SMOOTH",
"461 1043 OFFCURVE",
"339 989 OFFCURVE",
"245 882 CURVE SMOOTH",
"150 775 OFFCURVE",
"103 632 OFFCURVE",
"103 454 CURVE SMOOTH",
"103 307 OFFCURVE",
"150 186 OFFCURVE",
"243 92 CURVE SMOOTH",
"334 0 OFFCURVE",
"448 -46 OFFCURVE",
"586 -46 CURVE SMOOTH",
"642 -46 OFFCURVE",
"696 -37 OFFCURVE",
"748 -19 CURVE SMOOTH",
"799 -1 OFFCURVE",
"849 26 OFFCURVE",
"897 61 CURVE",
"916 1 OFFCURVE",
"947 -29 OFFCURVE",
"988 -29 CURVE SMOOTH",
"1013 -29 OFFCURVE",
"1034 -20 OFFCURVE",
"1053 -3 CURVE SMOOTH",
"1072 14 OFFCURVE",
"1081 36 OFFCURVE",
"1081 63 CURVE SMOOTH",
"1081 69 OFFCURVE",
"1080 77 OFFCURVE",
"1079 86 CURVE",
"1058 199 OFFCURVE",
"1048 367 OFFCURVE",
"1048 589 CURVE SMOOTH",
"1048 687 OFFCURVE",
"1052 785 OFFCURVE",
"1060 883 CURVE SMOOTH"
);
},
{
closed = 1;
nodes = (
"675 857 OFFCURVE",
"725 844 OFFCURVE",
"767 817 CURVE SMOOTH",
"809 790 OFFCURVE",
"843 749 OFFCURVE",
"868 695 CURVE",
"866 577 LINE",
"865 461 LINE",
"868 288 LINE",
"859 276 OFFCURVE",
"849 266 OFFCURVE",
"839 257 CURVE SMOOTH",
"788 214 OFFCURVE",
"751 186 OFFCURVE",
"728 174 CURVE SMOOTH",
"689 153 OFFCURVE",
"642 143 OFFCURVE",
"586 143 CURVE SMOOTH",
"504 143 OFFCURVE",
"433 174 OFFCURVE",
"372 236 CURVE SMOOTH",
"311 298 OFFCURVE",
"280 372 OFFCURVE",
"280 458 CURVE SMOOTH",
"280 591 OFFCURVE",
"308 691 OFFCURVE",
"364 758 CURVE SMOOTH",
"420 824 OFFCURVE",
"504 857 OFFCURVE",
"616 857 CURVE SMOOTH"
);
}
);
width = 1203;
}
);
note = d;
unicode = 0064;
},
{
glyphname = e;
lastChange = "2018-09-24 13:43:15 +0000";
layers = (
{
hints = (
{
horizontal = 1;
place = "{-46, 181}";
type = Stem;
},
{
horizontal = 1;
place = "{865, 180}";
type = Stem;
},
{
place = "{87, 996}";
type = Stem;
}
);
layerId = "10ADC4BD-3987-48B4-8AAC-8E23B2BCD4A9";
paths = (
{
closed = 1;
nodes = (
"703 -46 OFFCURVE",
"802 -23 OFFCURVE",
"904 22 CURVE SMOOTH",
"1023 75 OFFCURVE",
"1083 139 OFFCURVE",
"1083 213 CURVE SMOOTH",
"1083 236 OFFCURVE",
"1074 257 OFFCURVE",
"1056 275 CURVE",
"1037 292 OFFCURVE",
"1016 301 OFFCURVE",
"993 301 CURVE SMOOTH",
"967 301 OFFCURVE",
"943 283 OFFCURVE",
"920 248 CURVE SMOOTH",
"897 212 OFFCURVE",
"847 183 OFFCURVE",
"768 161 CURVE SMOOTH",
"706 144 OFFCURVE",
"652 135 OFFCURVE",
"606 135 CURVE SMOOTH",
"532 135 OFFCURVE",
"467 149 OFFCURVE",
"412 177 CURVE SMOOTH",
"356 205 OFFCURVE",
"309 247 OFFCURVE",
"272 302 CURVE",
"654 483 LINE SMOOTH",
"762 534 OFFCURVE",
"833 571 OFFCURVE",
"866 595 CURVE SMOOTH",
"941 650 OFFCURVE",
"979 710 OFFCURVE",
"979 777 CURVE SMOOTH",
"979 872 OFFCURVE",
"936 943 OFFCURVE",
"850 989 CURVE SMOOTH",
"780 1026 OFFCURVE",
"690 1045 OFFCURVE",
"579 1045 CURVE SMOOTH",
"426 1045 OFFCURVE",
"304 981 OFFCURVE",
"213 853 CURVE SMOOTH",
"129 736 OFFCURVE",
"87 590 OFFCURVE",
"87 417 CURVE SMOOTH",
"87 267 OFFCURVE",
"138 150 OFFCURVE",
"240 67 CURVE SMOOTH",
"333 -8 OFFCURVE",
"455 -46 OFFCURVE",
"606 -46 CURVE SMOOTH"
);
},
{
closed = 1;
nodes = (
"682 865 OFFCURVE",
"763 838 OFFCURVE",
"820 785 CURVE",
"769 742 OFFCURVE",
"683 691 OFFCURVE",
"562 632 CURVE SMOOTH",
"255 486 LINE",
"282 613 OFFCURVE",
"322 708 OFFCURVE",
"376 771 CURVE SMOOTH",
"430 834 OFFCURVE",
"498 865 OFFCURVE",
"579 865 CURVE SMOOTH"
);
}
);
width = 1122;
}
);
note = e;
unicode = 0065;
},
{
glyphname = f;
lastChange = "2018-09-24 13:43:15 +0000";
layers = (
{
hints = (
{
horizontal = 1;
place = "{829, 191}";
type = Stem;
},
{
horizontal = 1;
place = "{1406, 193}";
type = Stem;
},
{
place = "{334, 186}";
type = Stem;
},
{
horizontal = 1;
place = "{789, 202.5}";
type = Stem;
},
{
place = "{346, 192.5}";
type = Stem;
}
);
layerId = "10ADC4BD-3987-48B4-8AAC-8E23B2BCD4A9";
paths = (
{
closed = 1;
nodes = (
"898 1406 OFFCURVE",
"941 1438 OFFCURVE",
"941 1502 CURVE SMOOTH",
"941 1567 OFFCURVE",
"893 1599 OFFCURVE",
"798 1599 CURVE SMOOTH",
"651 1599 OFFCURVE",
"542 1557 OFFCURVE",
"473 1472 CURVE SMOOTH",
"416 1402 OFFCURVE",
"378 1293 OFFCURVE",
"361 1145 CURVE SMOOTH",
"353 1081 OFFCURVE",
"348 1030 OFFCURVE",
"346 993 CURVE",
"250 990 LINE SMOOTH",
"133 987 OFFCURVE",
"75 952 OFFCURVE",
"75 886 CURVE SMOOTH",
"75 821 OFFCURVE",
"109 789 OFFCURVE",
"176 789 CURVE SMOOTH",
"198 789 OFFCURVE",
"251 792 OFFCURVE",
"334 799 CURVE",
"334 509 LINE",
"337 236 LINE SMOOTH",
"337 134 OFFCURVE",
"330 40 OFFCURVE",
"316 -47 CURVE",
"315 -55 OFFCURVE",
"314 -62 OFFCURVE",
"314 -67 CURVE SMOOTH",
"314 -94 OFFCURVE",
"324 -116 OFFCURVE",
"343 -134 CURVE SMOOTH",
"362 -151 OFFCURVE",
"386 -160 OFFCURVE",
"413 -160 CURVE SMOOTH",
"464 -160 OFFCURVE",
"495 -133 OFFCURVE",
"506 -80 CURVE SMOOTH",
"521 -9 OFFCURVE",
"528 89 OFFCURVE",
"528 216 CURVE SMOOTH",
"528 257 OFFCURVE",
"527 318 OFFCURVE",
"524 401 CURVE SMOOTH",
"521 484 OFFCURVE",
"520 546 OFFCURVE",
"520 587 CURVE",
"528 815 LINE",
"651 825 OFFCURVE",
"728 830 OFFCURVE",
"759 829 CURVE SMOOTH",
"789 828 OFFCURVE",
"815 829 OFFCURVE",
"838 833 CURVE SMOOTH",
"890 842 OFFCURVE",
"916 871 OFFCURVE",
"916 920 CURVE SMOOTH",
"916 987 OFFCURVE",
"863 1020 OFFCURVE",
"757 1020 CURVE SMOOTH",
"724 1020 OFFCURVE",
"650 1016 OFFCURVE",
"537 1008 CURVE",
"540 1070 LINE",
"559 1294 OFFCURVE",
"650 1406 OFFCURVE",
"811 1406 CURVE SMOOTH"
);
}
);
width = 1041;
}
);
note = f;
unicode = 0066;
},
{
glyphname = g;
lastChange = "2018-09-24 13:43:15 +0000";
layers = (
{
hints = (
{
horizontal = 1;
place = "{-564, 178}";
type = Stem;
},
{
horizontal = 1;
place = "{-25, 167}";
type = Stem;
},
{
horizontal = 1;
place = "{864, 160}";
type = Stem;
},
{
place = "{60, 194}";
type = Stem;
}
);
layerId = "10ADC4BD-3987-48B4-8AAC-8E23B2BCD4A9";
paths = (
{
closed = 1;
nodes = (
"962 431 LINE SMOOTH",
"965 464 OFFCURVE",
"974 527 OFFCURVE",
"989 619 CURVE SMOOTH",
"1003 698 OFFCURVE",
"1010 762 OFFCURVE",
"1010 809 CURVE SMOOTH",
"1010 886 OFFCURVE",
"974 926 OFFCURVE",
"903 928 CURVE",
"881 960 OFFCURVE",
"849 984 OFFCURVE",
"807 1000 CURVE SMOOTH",
"765 1016 OFFCURVE",
"713 1024 OFFCURVE",
"651 1024 CURVE SMOOTH",
"467 1024 OFFCURVE",
"322 967 OFFCURVE",
"215 854 CURVE SMOOTH",
"112 744 OFFCURVE",
"60 599 OFFCURVE",
"60 419 CURVE SMOOTH",
"60 288 OFFCURVE",
"98 181 OFFCURVE",
"174 99 CURVE SMOOTH",
"249 16 OFFCURVE",
"347 -25 OFFCURVE",
"468 -25 CURVE SMOOTH",
"532 -25 OFFCURVE",
"589 -8 OFFCURVE",
"639 25 CURVE SMOOTH",
"688 58 OFFCURVE",
"731 108 OFFCURVE",
"767 175 CURVE",
"765 6 OFFCURVE",
"748 -119 OFFCURVE",
"716 -200 CURVE SMOOTH",
"667 -322 OFFCURVE",
"579 -384 OFFCURVE",
"451 -386 CURVE SMOOTH",
"383 -387 OFFCURVE",
"321 -382 OFFCURVE",
"265 -371 CURVE SMOOTH",
"209 -359 OFFCURVE",
"169 -353 OFFCURVE",
"145 -353 CURVE SMOOTH",
"87 -353 OFFCURVE",
"58 -383 OFFCURVE",
"58 -442 CURVE SMOOTH",
"58 -495 OFFCURVE",
"100 -529 OFFCURVE",
"184 -546 CURVE SMOOTH",
"244 -558 OFFCURVE",
"318 -564 OFFCURVE",
"407 -564 CURVE SMOOTH",
"558 -564 OFFCURVE",
"674 -533 OFFCURVE",
"754 -471 CURVE SMOOTH",
"820 -420 OFFCURVE",
"868 -340 OFFCURVE",
"898 -232 CURVE SMOOTH",
"921 -147 OFFCURVE",
"935 -38 OFFCURVE",
"939 95 CURVE"
);
},
{
closed = 1;
nodes = (
"672 864 OFFCURVE",
"701 859 OFFCURVE",
"730 849 CURVE SMOOTH",
"759 839 OFFCURVE",
"786 824 OFFCURVE",
"813 803 CURVE",
"797 649 OFFCURVE",
"782 536 OFFCURVE",
"768 464 CURVE",
"760 395 OFFCURVE",
"727 326 OFFCURVE",
"670 256 CURVE SMOOTH",
"607 180 OFFCURVE",
"541 142 OFFCURVE",
"474 142 CURVE SMOOTH",
"401 142 OFFCURVE",
"346 166 OFFCURVE",
"309 215 CURVE SMOOTH",
"272 264 OFFCURVE",
"254 336 OFFCURVE",
"254 433 CURVE SMOOTH",
"254 554 OFFCURVE",
"285 654 OFFCURVE",
"347 733 CURVE SMOOTH",
"416 820 OFFCURVE",
"514 864 OFFCURVE",
"641 864 CURVE SMOOTH"
);
}
);
width = 1087;
}
);
note = g;
unicode = 0067;
},
{
glyphname = h;
lastChange = "2018-09-24 13:43:15 +0000";
layers = (
{
hints = (
{
horizontal = 1;
place = "{831, 201}";
type = Stem;
},
{
place = "{169.5, 189.5}";
type = Stem;
},
{
place = "{823, 193}";
type = Stem;
}
);
layerId = "10ADC4BD-3987-48B4-8AAC-8E23B2BCD4A9";
paths = (
{
closed = 1;
nodes = (
"1004 -62 OFFCURVE",
"1028 -53 OFFCURVE",
"1048 -35 CURVE SMOOTH",
"1068 -16 OFFCURVE",
"1078 7 OFFCURVE",
"1078 34 CURVE SMOOTH",
"1078 42 OFFCURVE",
"1077 52 OFFCURVE",
"1074 63 CURVE",
"1061 122 OFFCURVE",
"1049 191 OFFCURVE",
"1040 269 CURVE SMOOTH",
"1020 477 LINE",
"1012 668 LINE SMOOTH",
"1008 788 OFFCURVE",
"991 873 OFFCURVE",
"962 924 CURVE SMOOTH",
"921 996 OFFCURVE",
"845 1032 OFFCURVE",
"734 1032 CURVE SMOOTH",
"664 1032 OFFCURVE",
"598 1014 OFFCURVE",
"536 978 CURVE SMOOTH",
"473 941 OFFCURVE",
"415 886 OFFCURVE",
"360 813 CURVE",
"359 901 LINE SMOOTH",
"358 974 OFFCURVE",
"360 1047 OFFCURVE",
"364 1120 CURVE SMOOTH",
"369 1196 OFFCURVE",
"371 1269 OFFCURVE",
"371 1339 CURVE SMOOTH",
"371 1391 OFFCURVE",
"366 1449 OFFCURVE",
"355 1514 CURVE SMOOTH",
"346 1573 OFFCURVE",
"314 1602 OFFCURVE",
"259 1602 CURVE SMOOTH",
"231 1602 OFFCURVE",
"207 1593 OFFCURVE",
"188 1575 CURVE SMOOTH",
"169 1556 OFFCURVE",
"159 1533 OFFCURVE",
"159 1505 CURVE SMOOTH",
"159 1472 OFFCURVE",
"162 1441 OFFCURVE",
"169 1411 CURVE",
"175 1380 OFFCURVE",
"178 1348 OFFCURVE",
"178 1314 CURVE SMOOTH",
"178 1285 OFFCURVE",
"176 1230 OFFCURVE",
"171 1147 CURVE",
"168 412 LINE",
"165 264 LINE SMOOTH",
"163 183 OFFCURVE",
"159 135 OFFCURVE",
"154 118 CURVE SMOOTH",
"148 98 OFFCURVE",
"145 83 OFFCURVE",
"145 74 CURVE SMOOTH",
"145 47 OFFCURVE",
"155 25 OFFCURVE",
"176 6 CURVE SMOOTH",
"197 -13 OFFCURVE",
"221 -22 OFFCURVE",
"248 -22 CURVE SMOOTH",
"287 -22 OFFCURVE",
"316 -1 OFFCURVE",
"335 40 CURVE SMOOTH",
"356 87 OFFCURVE",
"367 237 OFFCURVE",
"367 491 CURVE",
"426 602 OFFCURVE",
"473 677 OFFCURVE",
"507 716 CURVE SMOOTH",
"574 793 OFFCURVE",
"649 831 OFFCURVE",
"734 831 CURVE SMOOTH",
"797 831 OFFCURVE",
"828 768 OFFCURVE",
"828 643 CURVE SMOOTH",
"828 626 OFFCURVE",
"827 599 OFFCURVE",
"826 564 CURVE SMOOTH",
"824 529 OFFCURVE",
"823 502 OFFCURVE",
"823 485 CURVE SMOOTH",
"823 423 OFFCURVE",
"829 344 OFFCURVE",
"841 247 CURVE SMOOTH",
"854 146 OFFCURVE",
"868 69 OFFCURVE",
"883 14 CURVE SMOOTH",
"898 -37 OFFCURVE",
"929 -62 OFFCURVE",
"976 -62 CURVE SMOOTH"
);
}
);
width = 1183;
}
);
note = h;
unicode = 0068;
},
{
glyphname = i;
lastChange = "2018-09-24 13:43:15 +0000";
layers = (
{
hints = (
{
horizontal = 1;
place = "{-5, 1503}";
type = Stem;
},
{
place = "{179, 196}";
type = Stem;
},
{
place = "{199, 196}";
type = Stem;
}
);
layerId = "10ADC4BD-3987-48B4-8AAC-8E23B2BCD4A9";
paths = (
{
closed = 1;
nodes = (
"362 1266 OFFCURVE",
"390 1277 OFFCURVE",
"413 1300 CURVE SMOOTH",
"436 1323 OFFCURVE",
"447 1350 OFFCURVE",
"447 1382 CURVE SMOOTH",
"447 1414 OFFCURVE",
"436 1441 OFFCURVE",
"413 1464 CURVE SMOOTH",
"390 1487 OFFCURVE",
"362 1498 OFFCURVE",
"330 1498 CURVE SMOOTH",
"298 1498 OFFCURVE",
"270 1487 OFFCURVE",
"247 1464 CURVE SMOOTH",
"224 1441 OFFCURVE",
"212 1414 OFFCURVE",
"212 1382 CURVE SMOOTH",
"212 1350 OFFCURVE",
"224 1323 OFFCURVE",
"247 1300 CURVE SMOOTH",
"270 1277 OFFCURVE",
"298 1266 OFFCURVE",
"330 1266 CURVE SMOOTH"
);
},
{
closed = 1;
nodes = (
"375 517 OFFCURVE",
"378 595 OFFCURVE",
"385 689 CURVE SMOOTH",
"392 782 OFFCURVE",
"395 860 OFFCURVE",
"395 923 CURVE SMOOTH",
"395 953 OFFCURVE",
"386 977 OFFCURVE",
"368 996 CURVE SMOOTH",
"349 1015 OFFCURVE",
"326 1024 OFFCURVE",
"297 1024 CURVE SMOOTH",
"268 1024 OFFCURVE",
"245 1015 OFFCURVE",
"227 996 CURVE SMOOTH",
"208 977 OFFCURVE",
"199 953 OFFCURVE",
"199 923 CURVE SMOOTH",
"199 860 OFFCURVE",
"196 782 OFFCURVE",
"189 689 CURVE SMOOTH",
"182 595 OFFCURVE",
"179 517 OFFCURVE",
"179 454 CURVE SMOOTH",
"179 414 OFFCURVE",
"180 354 OFFCURVE",
"183 275 CURVE SMOOTH",
"185 195 OFFCURVE",
"186 135 OFFCURVE",
"186 95 CURVE SMOOTH",
"186 66 OFFCURVE",
"195 42 OFFCURVE",
"214 23 CURVE SMOOTH",
"232 4 OFFCURVE",
"255 -5 OFFCURVE",
"284 -5 CURVE SMOOTH",
"313 -5 OFFCURVE",
"337 4 OFFCURVE",
"355 23 CURVE SMOOTH",
"373 42 OFFCURVE",
"382 66 OFFCURVE",
"382 95 CURVE SMOOTH",
"382 135 OFFCURVE",
"381 195 OFFCURVE",
"379 275 CURVE SMOOTH",
"376 354 OFFCURVE",
"375 414 OFFCURVE",
"375 454 CURVE SMOOTH"
);
}
);
width = 574;
}
);
note = i;
unicode = 0069;
},
{
glyphname = j;
lastChange = "2018-09-24 13:43:15 +0000";
layers = (
{
hints = (
{
horizontal = 1;
place = "{-597, 199}";
type = Stem;
},
{
place = "{459, 197}";
type = Stem;
}
);
layerId = "10ADC4BD-3987-48B4-8AAC-8E23B2BCD4A9";
paths = (
{
closed = 1;
nodes = (
"499 1265 OFFCURVE",
"527 1276 OFFCURVE",
"550 1299 CURVE SMOOTH",
"573 1322 OFFCURVE",
"585 1349 OFFCURVE",
"585 1380 CURVE SMOOTH",
"585 1412 OFFCURVE",
"573 1439 OFFCURVE",
"550 1462 CURVE SMOOTH",
"527 1485 OFFCURVE",
"499 1496 OFFCURVE",
"467 1496 CURVE SMOOTH",
"435 1496 OFFCURVE",
"408 1485 OFFCURVE",
"385 1462 CURVE SMOOTH",
"362 1439 OFFCURVE",
"350 1412 OFFCURVE",
"350 1380 CURVE SMOOTH",
"350 1349 OFFCURVE",
"362 1322 OFFCURVE",
"385 1299 CURVE SMOOTH",
"408 1276 OFFCURVE",
"435 1265 OFFCURVE",
"467 1265 CURVE SMOOTH"
);
},
{
closed = 1;
nodes = (
"455 -265 OFFCURVE",
"445 -299 OFFCURVE",
"429 -332 CURVE SMOOTH",
"408 -376 OFFCURVE",
"383 -398 OFFCURVE",
"354 -398 CURVE SMOOTH",
"320 -398 OFFCURVE",
"290 -381 OFFCURVE",
"264 -348 CURVE",
"237 -305 OFFCURVE",
"219 -273 OFFCURVE",
"208 -250 CURVE SMOOTH",
"165 -163 OFFCURVE",
"124 -120 OFFCURVE",
"85 -120 CURVE SMOOTH",
"58 -120 OFFCURVE",
"35 -130 OFFCURVE",
"14 -149 CURVE SMOOTH",
"-8 -168 OFFCURVE",
"-18 -191 OFFCURVE",
"-18 -218 CURVE SMOOTH",
"-18 -232 OFFCURVE",
"-14 -248 OFFCURVE",
"-6 -266 CURVE SMOOTH",
"91 -487 OFFCURVE",
"211 -597 OFFCURVE",
"354 -597 CURVE SMOOTH",
"440 -597 OFFCURVE",
"513 -556 OFFCURVE",
"573 -474 CURVE SMOOTH",
"628 -399 OFFCURVE",
"656 -315 OFFCURVE",
"656 -222 CURVE",
"629 394 LINE",
"596 970 LINE SMOOTH",
"595 987 OFFCURVE",
"583 1004 OFFCURVE",
"560 1021 CURVE SMOOTH",
"537 1038 OFFCURVE",
"515 1046 OFFCURVE",
"492 1046 CURVE SMOOTH",
"463 1046 OFFCURVE",
"439 1033 OFFCURVE",
"420 1007 CURVE SMOOTH",
"401 981 OFFCURVE",
"391 951 OFFCURVE",
"391 918 CURVE",
"425 367 LINE SMOOTH",
"448 46 OFFCURVE",
"460 -154 OFFCURVE",
"459 -232 CURVE"
);
}
);
width = 826;
}
);
note = j;
unicode = 006A;
},
{
glyphname = k;
lastChange = "2018-09-24 13:43:15 +0000";
layers = (
{
hints = (
{
horizontal = 1;
place = "{-41, 1645}";
type = Stem;
},
{
place = "{186, 196}";
type = Stem;
},
{
place = "{163, 199}";
type = Stem;
}
);
layerId = "10ADC4BD-3987-48B4-8AAC-8E23B2BCD4A9";
paths = (
{
closed = 1;
nodes = (
"999 -41 OFFCURVE",
"1024 -31 OFFCURVE",
"1045 -12 CURVE SMOOTH",
"1066 7 OFFCURVE",
"1076 30 OFFCURVE",
"1076 57 CURVE SMOOTH",
"1076 99 OFFCURVE",
"1025 190 OFFCURVE",
"923 329 CURVE SMOOTH",
"705 626 LINE",
"825 736 OFFCURVE",
"926 839 OFFCURVE",
"1008 935 CURVE SMOOTH",
"1027 957 OFFCURVE",
"1037 979 OFFCURVE",
"1037 1002 CURVE SMOOTH",
"1037 1029 OFFCURVE",
"1027 1053 OFFCURVE",
"1006 1074 CURVE SMOOTH",
"985 1095 OFFCURVE",
"961 1105 OFFCURVE",
"935 1105 CURVE SMOOTH",
"910 1105 OFFCURVE",
"886 1094 OFFCURVE",
"864 1071 CURVE SMOOTH",
"644 844 LINE SMOOTH",
"560 761 OFFCURVE",
"473 685 OFFCURVE",
"382 616 CURVE",
"381 732 OFFCURVE",
"382 848 OFFCURVE",
"385 964 CURVE SMOOTH",
"392 1286 LINE SMOOTH",
"392 1317 OFFCURVE",
"390 1353 OFFCURVE",
"387 1395 CURVE SMOOTH",
"384 1436 OFFCURVE",
"382 1472 OFFCURVE",
"382 1503 CURVE SMOOTH",
"382 1533 OFFCURVE",
"373 1557 OFFCURVE",
"355 1576 CURVE SMOOTH",
"336 1595 OFFCURVE",
"313 1604 OFFCURVE",
"284 1604 CURVE SMOOTH",
"255 1604 OFFCURVE",
"232 1595 OFFCURVE",
"214 1576 CURVE SMOOTH",
"195 1557 OFFCURVE",
"186 1533 OFFCURVE",
"186 1503 CURVE SMOOTH",
"186 1473 OFFCURVE",
"188 1438 OFFCURVE",
"191 1397 CURVE SMOOTH",
"194 1356 OFFCURVE",
"195 1321 OFFCURVE",
"195 1291 CURVE SMOOTH",
"195 1191 OFFCURVE",
"194 1076 OFFCURVE",
"191 946 CURVE SMOOTH",
"188 815 OFFCURVE",
"186 699 OFFCURVE",
"186 598 CURVE SMOOTH",
"186 543 OFFCURVE",
"182 460 OFFCURVE",
"175 350 CURVE SMOOTH",
"167 239 OFFCURVE",
"163 156 OFFCURVE",
"163 101 CURVE SMOOTH",
"163 10 OFFCURVE",
"197 -35 OFFCURVE",
"264 -35 CURVE SMOOTH",
"293 -35 OFFCURVE",
"316 -26 OFFCURVE",
"335 -7 CURVE SMOOTH",
"353 12 OFFCURVE",
"362 36 OFFCURVE",
"362 66 CURVE SMOOTH",
"362 164 OFFCURVE",
"366 265 OFFCURVE",
"373 368 CURVE",
"454 423 OFFCURVE",
"514 466 OFFCURVE",
"553 497 CURVE",
"730 256 LINE SMOOTH",
"800 164 OFFCURVE",
"852 84 OFFCURVE",
"887 17 CURVE SMOOTH",
"907 -22 OFFCURVE",
"935 -41 OFFCURVE",
"972 -41 CURVE SMOOTH"
);
}
);
width = 1106;
}
);
note = k;
unicode = 006B;
},
{
glyphname = l;
lastChange = "2018-09-24 13:43:15 +0000";
layers = (
{
hints = (
{
horizontal = 1;
place = "{-43, 1652}";
type = Stem;
},
{
place = "{196, 197}";
type = Stem;
},
{
place = "{174, 204}";
type = Stem;
}
);
layerId = "10ADC4BD-3987-48B4-8AAC-8E23B2BCD4A9";
paths = (
{
closed = 1;
nodes = (
"393 786 LINE SMOOTH",
"393 891 OFFCURVE",
"395 1012 OFFCURVE",
"398 1148 CURVE SMOOTH",
"401 1283 OFFCURVE",
"403 1404 OFFCURVE",
"403 1509 CURVE SMOOTH",
"403 1576 OFFCURVE",
"370 1609 OFFCURVE",
"304 1609 CURVE SMOOTH",
"239 1609 OFFCURVE",
"206 1576 OFFCURVE",
"206 1509 CURVE SMOOTH",
"206 1404 OFFCURVE",
"204 1283 OFFCURVE",
"201 1148 CURVE SMOOTH",
"198 1012 OFFCURVE",
"196 891 OFFCURVE",
"196 786 CURVE SMOOTH",
"196 705 OFFCURVE",
"192 584 OFFCURVE",
"185 423 CURVE SMOOTH",
"178 261 OFFCURVE",
"174 140 OFFCURVE",
"174 59 CURVE SMOOTH",
"174 -9 OFFCURVE",
"207 -43 OFFCURVE",
"272 -43 CURVE SMOOTH",
"331 -43 OFFCURVE",
"363 -10 OFFCURVE",
"370 57 CURVE",
"375 159 OFFCURVE",
"378 236 OFFCURVE",
"378 289 CURVE SMOOTH"
);
}
);
width = 561;
}
);
note = l;
unicode = 006C;
},
{
glyphname = m;
lastChange = "2018-09-24 13:43:15 +0000";
layers = (
{
hints = (
{
horizontal = 1;
place = "{-124, 1234}";
type = Stem;
},
{
place = "{124, 196}";
type = Stem;
},
{
place = "{680, 193.5}";
type = Stem;
},
{
horizontal = 1;
place = "{849, 198}";
type = Stem;
},
{
place = "{143, 196}";
type = Stem;
},
{
place = "{121, 196}";
type = Stem;
},
{
place = "{729, 196}";
type = Stem;
}
);
layerId = "10ADC4BD-3987-48B4-8AAC-8E23B2BCD4A9";
paths = (
{
closed = 1;
nodes = (
"1438 -83 OFFCURVE",
"1462 -74 OFFCURVE",
"1482 -55 CURVE SMOOTH",
"1502 -36 OFFCURVE",
"1511 -14 OFFCURVE",
"1509 13 CURVE SMOOTH",
"1480 280 OFFCURVE",
"1456 471 OFFCURVE",
"1437 586 CURVE",
"1418 749 OFFCURVE",
"1404 843 OFFCURVE",
"1396 867 CURVE SMOOTH",
"1355 987 OFFCURVE",
"1279 1047 OFFCURVE",
"1168 1047 CURVE SMOOTH",
"1103 1047 OFFCURVE",
"1045 1035 OFFCURVE",
"994 1011 CURVE SMOOTH",
"943 986 OFFCURVE",
"900 950 OFFCURVE",
"863 901 CURVE",
"824 1005 OFFCURVE",
"752 1057 OFFCURVE",
"647 1057 CURVE SMOOTH",
"600 1057 OFFCURVE",
"542 1028 OFFCURVE",
"475 971 CURVE SMOOTH",
"408 913 OFFCURVE",
"357 848 OFFCURVE",
"322 777 CURVE",
"320 882 LINE",
"320 896 OFFCURVE",
"322 916 OFFCURVE",
"325 943 CURVE SMOOTH",
"328 970 OFFCURVE",
"330 989 OFFCURVE",
"330 1002 CURVE SMOOTH",
"330 1029 OFFCURVE",
"319 1053 OFFCURVE",
"298 1076 CURVE SMOOTH",
"276 1099 OFFCURVE",
"252 1110 OFFCURVE",
"226 1110 CURVE SMOOTH",
"158 1110 OFFCURVE",
"124 1034 OFFCURVE",
"124 883 CURVE SMOOTH",
"124 847 OFFCURVE",
"127 794 OFFCURVE",
"134 723 CURVE SMOOTH",
"140 652 OFFCURVE",
"143 599 OFFCURVE",
"143 564 CURVE SMOOTH",
"143 524 OFFCURVE",
"139 464 OFFCURVE",
"132 385 CURVE SMOOTH",
"125 306 OFFCURVE",
"121 246 OFFCURVE",
"121 206 CURVE SMOOTH",
"121 35 OFFCURVE",
"159 -51 OFFCURVE",
"234 -51 CURVE SMOOTH",
"261 -51 OFFCURVE",
"285 -42 OFFCURVE",
"306 -23 CURVE SMOOTH",
"326 -4 OFFCURVE",
"336 19 OFFCURVE",
"336 46 CURVE SMOOTH",
"336 62 OFFCURVE",
"333 88 OFFCURVE",
"327 124 CURVE SMOOTH",
"320 160 OFFCURVE",
"317 188 OFFCURVE",
"317 208 CURVE SMOOTH",
"317 245 OFFCURVE",
"321 303 OFFCURVE",
"328 381 CURVE SMOOTH",
"335 459 OFFCURVE",
"339 518 OFFCURVE",
"339 558 CURVE",
"362 584 OFFCURVE",
"379 605 OFFCURVE",
"390 621 CURVE",
"508 753 LINE",
"556 801 OFFCURVE",
"603 836 OFFCURVE",
"650 857 CURVE",
"670 818 OFFCURVE",
"680 763 OFFCURVE",
"680 692 CURVE SMOOTH",
"680 611 OFFCURVE",
"688 492 OFFCURVE",
"705 335 CURVE SMOOTH",
"721 177 OFFCURVE",
"729 58 OFFCURVE",
"729 -23 CURVE SMOOTH",
"729 -52 OFFCURVE",
"738 -77 OFFCURVE",
"757 -96 CURVE SMOOTH",
"775 -115 OFFCURVE",
"798 -124 OFFCURVE",
"827 -124 CURVE SMOOTH",
"856 -124 OFFCURVE",
"879 -115 OFFCURVE",
"898 -96 CURVE SMOOTH",
"916 -77 OFFCURVE",
"925 -52 OFFCURVE",
"925 -23 CURVE SMOOTH",
"925 46 OFFCURVE",
"919 133 OFFCURVE",
"906 238 CURVE SMOOTH",
"876 505 LINE",
"872 568 OFFCURVE",
"870 630 OFFCURVE",
"871 693 CURVE",
"891 716 OFFCURVE",
"933 747 OFFCURVE",
"997 786 CURVE SMOOTH",
"1064 828 OFFCURVE",
"1110 849 OFFCURVE",
"1135 849 CURVE SMOOTH",
"1162 849 OFFCURVE",
"1186 819 OFFCURVE",
"1209 759 CURVE SMOOTH",
"1225 715 OFFCURVE",
"1236 670 OFFCURVE",
"1243 624 CURVE",
"1277 314 LINE SMOOTH",
"1289 181 OFFCURVE",
"1301 77 OFFCURVE",
"1313 4 CURVE SMOOTH",
"1322 -54 OFFCURVE",
"1354 -83 OFFCURVE",
"1409 -83 CURVE SMOOTH"
);
}
);
width = 1591;
}
);
note = m;
unicode = 006D;
},
{
glyphname = n;
lastChange = "2018-09-24 13:43:15 +0000";
layers = (
{
hints = (
{
horizontal = 1;
place = "{867, 202}";
type = Stem;
},
{
place = "{124, 203}";
type = Stem;
},
{
place = "{774, 190}";
type = Stem;
},
{
place = "{153, 194.5}";
type = Stem;
}
);
layerId = "10ADC4BD-3987-48B4-8AAC-8E23B2BCD4A9";
paths = (
{
closed = 1;
nodes = (
"935 -71 OFFCURVE",
"959 -62 OFFCURVE",
"978 -44 CURVE SMOOTH",
"997 -25 OFFCURVE",
"1006 -1 OFFCURVE",
"1006 28 CURVE SMOOTH",
"1006 83 OFFCURVE",
"999 154 OFFCURVE",
"985 242 CURVE SMOOTH",
"970 329 OFFCURVE",
"963 401 OFFCURVE",
"963 456 CURVE SMOOTH",
"964 549 LINE",
"964 650 LINE",
"961 773 OFFCURVE",
"946 865 OFFCURVE",
"917 928 CURVE SMOOTH",
"875 1022 OFFCURVE",
"801 1069 OFFCURVE",
"694 1069 CURVE SMOOTH",
"576 1069 OFFCURVE",
"461 994 OFFCURVE",
"349 845 CURVE",
"346 962 LINE",
"340 1049 OFFCURVE",
"306 1092 OFFCURVE",
"245 1092 CURVE SMOOTH",
"217 1092 OFFCURVE",
"194 1083 OFFCURVE",
"175 1065 CURVE SMOOTH",
"156 1046 OFFCURVE",
"146 1023 OFFCURVE",
"146 994 CURVE SMOOTH",
"146 973 OFFCURVE",
"147 941 OFFCURVE",
"150 899 CURVE SMOOTH",
"152 857 OFFCURVE",
"153 825 OFFCURVE",
"153 804 CURVE SMOOTH",
"153 735 OFFCURVE",
"148 640 OFFCURVE",
"139 519 CURVE SMOOTH",
"129 397 OFFCURVE",
"124 302 OFFCURVE",
"124 233 CURVE SMOOTH",
"124 213 OFFCURVE",
"126 183 OFFCURVE",
"131 143 CURVE SMOOTH",
"135 103 OFFCURVE",
"137 73 OFFCURVE",
"137 53 CURVE SMOOTH",
"137 23 OFFCURVE",
"146 -1 OFFCURVE",
"164 -20 CURVE SMOOTH",
"182 -39 OFFCURVE",
"206 -48 OFFCURVE",
"235 -48 CURVE SMOOTH",
"264 -48 OFFCURVE",
"287 -39 OFFCURVE",
"306 -20 CURVE SMOOTH",
"324 -1 OFFCURVE",
"333 23 OFFCURVE",
"333 53 CURVE SMOOTH",
"333 73 OFFCURVE",
"331 103 OFFCURVE",
"327 143 CURVE SMOOTH",
"323 183 OFFCURVE",
"321 213 OFFCURVE",
"321 233 CURVE SMOOTH",
"321 264 OFFCURVE",
"323 297 OFFCURVE",
"327 330 CURVE SMOOTH",
"332 369 OFFCURVE",
"335 402 OFFCURVE",
"336 428 CURVE",
"371 551 OFFCURVE",
"419 653 OFFCURVE",
"480 734 CURVE SMOOTH",
"548 823 OFFCURVE",
"619 867 OFFCURVE",
"694 867 CURVE SMOOTH",
"747 867 OFFCURVE",
"774 795 OFFCURVE",
"774 651 CURVE SMOOTH",
"774 632 OFFCURVE",
"773 601 OFFCURVE",
"771 556 CURVE SMOOTH",
"768 511 OFFCURVE",
"767 480 OFFCURVE",
"767 461 CURVE SMOOTH",
"767 393 OFFCURVE",
"772 320 OFFCURVE",
"781 242 CURVE SMOOTH",
"809 23 LINE SMOOTH",
"816 -40 OFFCURVE",
"849 -71 OFFCURVE",
"906 -71 CURVE SMOOTH"
);
}
);
width = 1072;
}
);
note = n;
unicode = 006E;
},
{
glyphname = o;
lastChange = "2018-09-24 13:43:15 +0000";
layers = (
{
hints = (
{
horizontal = 1;
place = "{-59, 202}";
type = Stem;
},
{
horizontal = 1;
place = "{834, 203}";
type = Stem;
},
{
place = "{83, 197}";
type = Stem;
},
{
place = "{783, 186}";
type = Stem;
}
);
layerId = "10ADC4BD-3987-48B4-8AAC-8E23B2BCD4A9";
paths = (
{
closed = 1;
nodes = (
"655 -59 OFFCURVE",
"768 0 OFFCURVE",
"853 119 CURVE SMOOTH",
"928 224 OFFCURVE",
"967 350 OFFCURVE",
"969 498 CURVE SMOOTH",
"971 637 OFFCURVE",
"945 755 OFFCURVE",
"890 854 CURVE SMOOTH",
"821 976 OFFCURVE",
"720 1037 OFFCURVE",
"587 1037 CURVE SMOOTH",
"420 1037 OFFCURVE",
"290 969 OFFCURVE",
"197 834 CURVE SMOOTH",
"117 719 OFFCURVE",
"79 587 OFFCURVE",
"83 436 CURVE SMOOTH",
"88 281 OFFCURVE",
"135 157 OFFCURVE",
"225 65 CURVE SMOOTH",
"306 -18 OFFCURVE",
"402 -59 OFFCURVE",
"514 -59 CURVE SMOOTH"
);
},
{
closed = 1;
nodes = (
"723 833 OFFCURVE",
"792 704 OFFCURVE",
"783 446 CURVE SMOOTH",
"780 351 OFFCURVE",
"750 275 OFFCURVE",
"693 219 CURVE SMOOTH",
"643 168 OFFCURVE",
"583 143 OFFCURVE",
"514 143 CURVE SMOOTH",
"455 143 OFFCURVE",
"403 165 OFFCURVE",
"359 210 CURVE SMOOTH",
"306 264 OFFCURVE",
"280 339 OFFCURVE",
"280 436 CURVE SMOOTH",
"280 533 OFFCURVE",
"302 619 OFFCURVE",
"345 694 CURVE SMOOTH",
"400 788 OFFCURVE",
"476 835 OFFCURVE",
"574 834 CURVE SMOOTH"
);
}
);
width = 1077;
}
);
note = o;
unicode = 006F;
},
{
glyphname = p;
lastChange = "2018-09-24 13:43:15 +0000";
layers = (
{
hints = (
{
horizontal = 1;
place = "{-35, 201}";
type = Stem;
},
{
horizontal = 1;
place = "{832, 200}";
type = Stem;
},
{
place = "{149, 193}";
type = Stem;
},
{
place = "{812, 196}";
type = Stem;
}
);
layerId = "10ADC4BD-3987-48B4-8AAC-8E23B2BCD4A9";
paths = (
{
closed = 1;
nodes = (
"701 -35 OFFCURVE",
"810 14 OFFCURVE",
"892 113 CURVE SMOOTH",
"969 206 OFFCURVE",
"1008 325 OFFCURVE",
"1008 469 CURVE SMOOTH",
"1008 627 OFFCURVE",
"983 754 OFFCURVE",
"933 850 CURVE SMOOTH",
"870 971 OFFCURVE",
"770 1032 OFFCURVE",
"633 1032 CURVE SMOOTH",
"584 1032 OFFCURVE",
"533 1022 OFFCURVE",
"480 1003 CURVE SMOOTH",
"427 983 OFFCURVE",
"371 953 OFFCURVE",
"314 914 CURVE",
"315 931 OFFCURVE",
"318 950 OFFCURVE",
"321 971 CURVE SMOOTH",
"323 987 OFFCURVE",
"324 998 OFFCURVE",
"324 1004 CURVE SMOOTH",
"324 1031 OFFCURVE",
"315 1053 OFFCURVE",
"298 1072 CURVE",
"280 1090 OFFCURVE",
"258 1099 OFFCURVE",
"232 1099 CURVE SMOOTH",
"194 1099 OFFCURVE",
"165 1079 OFFCURVE",
"145 1040 CURVE SMOOTH",
"128 1007 OFFCURVE",
"119 967 OFFCURVE",
"119 920 CURVE",
"134 717 LINE SMOOTH",
"142 597 OFFCURVE",
"147 464 OFFCURVE",
"149 318 CURVE SMOOTH",
"149 -81 LINE",
"146 -481 LINE SMOOTH",
"146 -510 OFFCURVE",
"155 -534 OFFCURVE",
"174 -553 CURVE SMOOTH",
"192 -572 OFFCURVE",
"215 -581 OFFCURVE",
"244 -581 CURVE SMOOTH",
"273 -581 OFFCURVE",
"296 -572 OFFCURVE",
"315 -553 CURVE SMOOTH",
"333 -534 OFFCURVE",
"342 -510 OFFCURVE",
"342 -481 CURVE SMOOTH",
"344 -3 LINE",
"424 -24 OFFCURVE",
"497 -35 OFFCURVE",
"564 -35 CURVE SMOOTH"
);
},
{
closed = 1;
nodes = (
"693 832 OFFCURVE",
"738 802 OFFCURVE",
"768 742 CURVE SMOOTH",
"797 681 OFFCURVE",
"812 590 OFFCURVE",
"812 469 CURVE SMOOTH",
"812 383 OFFCURVE",
"793 313 OFFCURVE",
"755 259 CURVE SMOOTH",
"711 197 OFFCURVE",
"647 166 OFFCURVE",
"564 166 CURVE SMOOTH",
"491 166 OFFCURVE",
"419 180 OFFCURVE",
"346 208 CURVE",
"346 375 OFFCURVE",
"342 534 OFFCURVE",
"333 685 CURVE",
"387 736 OFFCURVE",
"432 772 OFFCURVE",
"467 791 CURVE SMOOTH",
"516 818 OFFCURVE",
"572 832 OFFCURVE",
"633 832 CURVE SMOOTH"
);
}
);
width = 1095;
}
);
note = p;
unicode = 0070;
},
{
glyphname = q;
lastChange = "2018-09-24 13:43:15 +0000";
layers = (
{
hints = (
{
horizontal = 1;
place = "{-35, 174}";
type = Stem;
},
{
horizontal = 1;
place = "{890, 173}";
type = Stem;
},
{
place = "{60, 200}";
type = Stem;
},
{
place = "{748, 195}";
type = Stem;
},
{
place = "{647, 191}";
type = Stem;
}
);
layerId = "10ADC4BD-3987-48B4-8AAC-8E23B2BCD4A9";
paths = (
{
closed = 1;
nodes = (
"909 315 LINE SMOOTH",
"932 544 OFFCURVE",
"943 756 OFFCURVE",
"943 953 CURVE SMOOTH",
"943 980 OFFCURVE",
"933 1005 OFFCURVE",
"914 1026 CURVE SMOOTH",
"894 1047 OFFCURVE",
"871 1058 OFFCURVE",
"844 1058 CURVE SMOOTH",
"822 1058 OFFCURVE",
"797 1045 OFFCURVE",
"768 1020 CURVE",
"749 1049 OFFCURVE",
"722 1063 OFFCURVE",
"685 1063 CURVE SMOOTH",
"491 1064 OFFCURVE",
"338 1004 OFFCURVE",
"225 883 CURVE SMOOTH",
"115 765 OFFCURVE",
"60 608 OFFCURVE",
"60 413 CURVE SMOOTH",
"60 270 OFFCURVE",
"108 159 OFFCURVE",
"205 78 CURVE SMOOTH",
"295 3 OFFCURVE",
"413 -35 OFFCURVE",
"558 -35 CURVE SMOOTH",
"581 -35 OFFCURVE",
"622 -27 OFFCURVE",
"679 -12 CURVE",
"660 -233 LINE",
"647 -344 LINE SMOOTH",
"642 -389 OFFCURVE",
"640 -426 OFFCURVE",
"642 -455 CURVE SMOOTH",
"646 -522 OFFCURVE",
"679 -556 OFFCURVE",
"740 -556 CURVE SMOOTH",
"769 -556 OFFCURVE",
"793 -547 OFFCURVE",
"811 -528 CURVE SMOOTH",
"829 -509 OFFCURVE",
"838 -485 OFFCURVE",
"838 -456 CURVE SMOOTH",
"838 -341 OFFCURVE",
"846 -212 OFFCURVE",
"863 -69 CURVE SMOOTH"
);
},
{
closed = 1;
nodes = (
"625 892 OFFCURVE",
"648 891 OFFCURVE",
"685 887 CURVE SMOOTH",
"718 884 OFFCURVE",
"742 885 OFFCURVE",
"755 890 CURVE",
"741 623 LINE",
"739 444 OFFCURVE",
"722 317 OFFCURVE",
"690 242 CURVE SMOOTH",
"661 175 OFFCURVE",
"614 141 OFFCURVE",
"551 139 CURVE SMOOTH",
"458 136 OFFCURVE",
"385 162 OFFCURVE",
"332 217 CURVE SMOOTH",
"284 266 OFFCURVE",
"260 330 OFFCURVE",
"260 409 CURVE SMOOTH",
"260 522 OFFCURVE",
"285 620 OFFCURVE",
"336 703 CURVE SMOOTH",
"399 806 OFFCURVE",
"491 868 OFFCURVE",
"614 890 CURVE SMOOTH"
);
}
);
width = 1065;
}
);
note = q;
unicode = 0071;
},
{
glyphname = r;
lastChange = "2018-09-24 13:43:15 +0000";
layers = (
{
hints = (
{
horizontal = 1;
place = "{-67, 1121}";
type = Stem;
},
{
place = "{139, 187}";
type = Stem;
},
{
place = "{731, 187}";
type = Stem;
}
);
layerId = "10ADC4BD-3987-48B4-8AAC-8E23B2BCD4A9";
paths = (
{
closed = 1;
nodes = (
"918 751 OFFCURVE",
"918 774 OFFCURVE",
"918 809 CURVE SMOOTH",
"918 891 OFFCURVE",
"905 952 OFFCURVE",
"878 993 CURVE SMOOTH",
"851 1034 OFFCURVE",
"811 1054 OFFCURVE",
"757 1054 CURVE SMOOTH",
"601 1054 OFFCURVE",
"459 992 OFFCURVE",
"331 869 CURVE",
"330 980 OFFCURVE",
"297 1035 OFFCURVE",
"232 1035 CURVE SMOOTH",
"173 1035 OFFCURVE",
"144 1001 OFFCURVE",
"144 934 CURVE SMOOTH",
"144 912 OFFCURVE",
"143 879 OFFCURVE",
"142 835 CURVE SMOOTH",
"140 791 OFFCURVE",
"139 758 OFFCURVE",
"139 736 CURVE SMOOTH",
"139 34 LINE SMOOTH",
"139 -33 OFFCURVE",
"168 -67 OFFCURVE",
"227 -67 CURVE SMOOTH",
"293 -67 OFFCURVE",
"326 -33 OFFCURVE",
"326 34 CURVE",
"324 582 LINE",
"363 669 OFFCURVE",
"413 735 OFFCURVE",
"472 778 CURVE SMOOTH",
"535 825 OFFCURVE",
"620 854 OFFCURVE",
"725 867 CURVE",
"728 783 LINE SMOOTH",
"730 749 OFFCURVE",
"731 726 OFFCURVE",
"731 713 CURVE SMOOTH",
"731 647 OFFCURVE",
"760 614 OFFCURVE",
"817 614 CURVE SMOOTH",
"879 614 OFFCURVE",
"912 656 OFFCURVE",
"917 739 CURVE SMOOTH"
);
}
);
width = 984;
}
);
note = r;
unicode = 0072;
},
{
glyphname = s;
lastChange = "2018-09-24 13:43:15 +0000";
layers = (
{
hints = (
{
horizontal = 1;
place = "{-60, 202}";
type = Stem;
},
{
place = "{122, 196}";
type = Stem;
},
{
place = "{686, 196}";
type = Stem;
}
);
layerId = "10ADC4BD-3987-48B4-8AAC-8E23B2BCD4A9";
paths = (
{
closed = 1;
nodes = (
"843 770 OFFCURVE",
"866 779 OFFCURVE",
"885 798 CURVE SMOOTH",
"903 817 OFFCURVE",
"912 841 OFFCURVE",
"912 871 CURVE SMOOTH",
"912 890 OFFCURVE",
"908 919 OFFCURVE",
"900 956 CURVE SMOOTH",
"891 993 OFFCURVE",
"887 1022 OFFCURVE",
"887 1041 CURVE SMOOTH",
"887 1071 OFFCURVE",
"878 1095 OFFCURVE",
"860 1114 CURVE SMOOTH",
"841 1133 OFFCURVE",
"818 1142 OFFCURVE",
"789 1142 CURVE SMOOTH",
"757 1142 OFFCURVE",
"727 1136 OFFCURVE",
"700 1124 CURVE SMOOTH",
"662 1107 OFFCURVE",
"599 1086 OFFCURVE",
"511 1061 CURVE SMOOTH",
"423 1036 OFFCURVE",
"359 1014 OFFCURVE",
"319 996 CURVE SMOOTH",
"188 937 OFFCURVE",
"122 837 OFFCURVE",
"122 698 CURVE SMOOTH",
"122 623 OFFCURVE",
"149 566 OFFCURVE",
"203 529 CURVE SMOOTH",
"240 503 OFFCURVE",
"303 480 OFFCURVE",
"392 461 CURVE SMOOTH",
"496 438 LINE SMOOTH",
"623 406 OFFCURVE",
"686 345 OFFCURVE",
"686 254 CURVE SMOOTH",
"686 212 OFFCURVE",
"655 181 OFFCURVE",
"593 162 CURVE SMOOTH",
"550 149 OFFCURVE",
"501 142 OFFCURVE",
"445 142 CURVE SMOOTH",
"414 142 OFFCURVE",
"377 146 OFFCURVE",
"332 154 CURVE SMOOTH",
"276 164 OFFCURVE",
"240 177 OFFCURVE",
"224 192 CURVE SMOOTH",
"191 224 OFFCURVE",
"165 240 OFFCURVE",
"144 240 CURVE SMOOTH",
"117 240 OFFCURVE",
"94 230 OFFCURVE",
"73 210 CURVE SMOOTH",
"52 190 OFFCURVE",
"41 167 OFFCURVE",
"41 140 CURVE SMOOTH",
"41 73 OFFCURVE",
"92 21 OFFCURVE",
"195 -16 CURVE SMOOTH",
"274 -45 OFFCURVE",
"358 -60 OFFCURVE",
"445 -60 CURVE SMOOTH",
"564 -60 OFFCURVE",
"663 -37 OFFCURVE",
"741 8 CURVE SMOOTH",
"835 63 OFFCURVE",
"882 145 OFFCURVE",
"882 254 CURVE SMOOTH",
"882 387 OFFCURVE",
"828 488 OFFCURVE",
"719 558 CURVE SMOOTH",
"644 606 OFFCURVE",
"530 644 OFFCURVE",
"377 671 CURVE SMOOTH",
"358 674 OFFCURVE",
"338 680 OFFCURVE",
"318 687 CURVE",
"319 750 OFFCURVE",
"373 802 OFFCURVE",
"480 845 CURVE",
"584 879 OFFCURVE",
"661 902 OFFCURVE",
"711 915 CURVE",
"718 860 OFFCURVE",
"727 824 OFFCURVE",
"737 807 CURVE SMOOTH",
"752 782 OFFCURVE",
"777 770 OFFCURVE",
"814 770 CURVE SMOOTH"
);
}
);
width = 997;
}
);
note = s;
unicode = 0073;
},
{
glyphname = t;
lastChange = "2018-09-24 13:43:15 +0000";
layers = (
{
hints = (
{
horizontal = 1;
place = "{852, 205}";
type = Stem;
},
{
place = "{371, 199}";
type = Stem;
},
{
place = "{396, 186.5}";
type = Stem;
}
);
layerId = "10ADC4BD-3987-48B4-8AAC-8E23B2BCD4A9";
paths = (
{
closed = 1;
nodes = (
"837 852 OFFCURVE",
"860 862 OFFCURVE",
"879 881 CURVE SMOOTH",
"897 900 OFFCURVE",
"906 924 OFFCURVE",
"906 953 CURVE SMOOTH",
"906 1002 OFFCURVE",
"886 1034 OFFCURVE",
"845 1047 CURVE SMOOTH",
"824 1054 OFFCURVE",
"778 1057 OFFCURVE",
"709 1057 CURVE SMOOTH",
"697 1057 OFFCURVE",
"650 1052 OFFCURVE",
"567 1041 CURVE",
"568 1103 LINE",
"570 1161 LINE SMOOTH",
"570 1196 OFFCURVE",
"569 1225 OFFCURVE",
"567 1250 CURVE SMOOTH",
"557 1348 OFFCURVE",
"522 1397 OFFCURVE",
"462 1397 CURVE SMOOTH",
"434 1397 OFFCURVE",
"410 1388 OFFCURVE",
"391 1370 CURVE SMOOTH",
"372 1351 OFFCURVE",
"362 1328 OFFCURVE",
"362 1300 CURVE SMOOTH",
"362 1275 OFFCURVE",
"364 1234 OFFCURVE",
"367 1177 CURVE SMOOTH",
"370 1120 OFFCURVE",
"371 1074 OFFCURVE",
"371 1040 CURVE",
"161 1057 LINE",
"133 1057 OFFCURVE",
"110 1047 OFFCURVE",
"92 1028 CURVE SMOOTH",
"74 1009 OFFCURVE",
"65 984 OFFCURVE",
"65 955 CURVE SMOOTH",
"65 897 OFFCURVE",
"95 864 OFFCURVE",
"154 856 CURVE",
"253 847 OFFCURVE",
"327 841 OFFCURVE",
"376 839 CURVE",
"396 255 LINE SMOOTH",
"396 230 OFFCURVE",
"395 192 OFFCURVE",
"393 141 CURVE SMOOTH",
"391 90 OFFCURVE",
"390 52 OFFCURVE",
"390 27 CURVE SMOOTH",
"390 1 OFFCURVE",
"400 -21 OFFCURVE",
"420 -38 CURVE SMOOTH",
"439 -55 OFFCURVE",
"462 -64 OFFCURVE",
"489 -64 CURVE SMOOTH",
"562 -64 OFFCURVE",
"597 9 OFFCURVE",
"594 155 CURVE SMOOTH",
"593 206 LINE",
"592 250 LINE",
"573 841 LINE",
"648 851 OFFCURVE",
"694 856 OFFCURVE",
"709 856 CURVE SMOOTH",
"723 856 OFFCURVE",
"740 855 OFFCURVE",
"759 854 CURVE SMOOTH",
"778 853 OFFCURVE",
"794 852 OFFCURVE",
"808 852 CURVE SMOOTH"
);
}
);
width = 965;
}
);
note = t;
unicode = 0074;
},
{
glyphname = u;
lastChange = "2018-09-24 13:43:15 +0000";
layers = (
{
hints = (
{
horizontal = 1;
place = "{-50, 203}";
type = Stem;
},
{
place = "{109, 197}";
type = Stem;
},
{
place = "{758, 197}";
type = Stem;
}
);
layerId = "10ADC4BD-3987-48B4-8AAC-8E23B2BCD4A9";
paths = (
{
closed = 1;
nodes = (
"973 962 LINE SMOOTH",
"974 990 OFFCURVE",
"965 1013 OFFCURVE",
"946 1032 CURVE SMOOTH",
"927 1051 OFFCURVE",
"903 1060 OFFCURVE",
"874 1060 CURVE SMOOTH",
"817 1060 OFFCURVE",
"784 1029 OFFCURVE",
"777 968 CURVE SMOOTH",
"764 862 OFFCURVE",
"758 737 OFFCURVE",
"758 593 CURVE SMOOTH",
"760 399 LINE",
"761 196 LINE",
"662 167 OFFCURVE",
"567 153 OFFCURVE",
"478 153 CURVE SMOOTH",
"457 153 OFFCURVE",
"436 156 OFFCURVE",
"415 163 CURVE",
"394 169 OFFCURVE",
"372 178 OFFCURVE",
"350 190 CURVE",
"335 238 OFFCURVE",
"324 302 OFFCURVE",
"317 381 CURVE SMOOTH",
"310 460 OFFCURVE",
"306 556 OFFCURVE",
"306 667 CURVE SMOOTH",
"306 702 OFFCURVE",
"311 754 OFFCURVE",
"321 821 CURVE SMOOTH",
"330 888 OFFCURVE",
"335 937 OFFCURVE",
"335 968 CURVE SMOOTH",
"335 997 OFFCURVE",
"325 1020 OFFCURVE",
"306 1039 CURVE SMOOTH",
"287 1057 OFFCURVE",
"263 1066 OFFCURVE",
"234 1066 CURVE SMOOTH",
"180 1066 OFFCURVE",
"148 1037 OFFCURVE",
"139 979 CURVE SMOOTH",
"119 862 OFFCURVE",
"109 758 OFFCURVE",
"109 667 CURVE SMOOTH",
"109 529 OFFCURVE",
"122 372 OFFCURVE",
"148 195 CURVE SMOOTH",
"160 113 OFFCURVE",
"198 51 OFFCURVE",
"261 8 CURVE SMOOTH",
"318 -31 OFFCURVE",
"391 -50 OFFCURVE",
"478 -50 CURVE SMOOTH",
"587 -50 OFFCURVE",
"683 -28 OFFCURVE",
"766 15 CURVE",
"780 -48 OFFCURVE",
"813 -80 OFFCURVE",
"864 -80 CURVE SMOOTH",
"892 -80 OFFCURVE",
"916 -71 OFFCURVE",
"935 -53 CURVE SMOOTH",
"954 -34 OFFCURVE",
"964 -11 OFFCURVE",
"964 18 CURVE SMOOTH",
"964 33 OFFCURVE",
"963 55 OFFCURVE",
"961 85 CURVE SMOOTH",
"958 115 OFFCURVE",
"957 137 OFFCURVE",
"957 152 CURVE SMOOTH",
"957 200 OFFCURVE",
"957 272 OFFCURVE",
"956 368 CURVE SMOOTH",
"955 464 OFFCURVE",
"955 536 OFFCURVE",
"955 584 CURVE"
);
}
);
width = 1065;
}
);
note = u;
unicode = 0075;
},
{
glyphname = v;
lastChange = "2018-09-24 13:43:15 +0000";
layers = (
{
hints = (
{
horizontal = 1;
place = "{-40, 1096}";
type = Stem;
},
{
place = "{62, 908}";
type = Stem;
}
);
layerId = "10ADC4BD-3987-48B4-8AAC-8E23B2BCD4A9";
paths = (
{
closed = 1;
nodes = (
"805 524 LINE SMOOTH",
"915 784 OFFCURVE",
"970 927 OFFCURVE",
"970 952 CURVE SMOOTH",
"970 979 OFFCURVE",
"960 1002 OFFCURVE",
"939 1021 CURVE SMOOTH",
"918 1040 OFFCURVE",
"894 1050 OFFCURVE",
"867 1050 CURVE SMOOTH",
"829 1050 OFFCURVE",
"800 1029 OFFCURVE",
"779 986 CURVE",
"740 889 OFFCURVE",
"712 813 OFFCURVE",
"694 760 CURVE SMOOTH",
"618 557 OFFCURVE",
"555 403 OFFCURVE",
"505 296 CURVE",
"251 995 LINE",
"234 1036 OFFCURVE",
"205 1056 OFFCURVE",
"165 1056 CURVE SMOOTH",
"138 1056 OFFCURVE",
"114 1046 OFFCURVE",
"93 1027 CURVE SMOOTH",
"72 1008 OFFCURVE",
"62 984 OFFCURVE",
"62 957 CURVE SMOOTH",
"62 944 OFFCURVE",
"65 928 OFFCURVE",
"72 911 CURVE SMOOTH",
"250 452 LINE",
"403 46 LINE SMOOTH",
"425 -11 OFFCURVE",
"460 -40 OFFCURVE",
"509 -40 CURVE SMOOTH",
"568 -40 OFFCURVE",
"598 -9 OFFCURVE",
"600 52 CURVE"
);
}
);
width = 996;
}
);
note = v;
unicode = 0076;
},
{
glyphname = w;
lastChange = "2018-09-24 13:43:15 +0000";
layers = (
{
hints = (
{
horizontal = 1;
place = "{-81, 1122}";
type = Stem;
},
{
place = "{76, 1270}";
type = Stem;
}
);
layerId = "10ADC4BD-3987-48B4-8AAC-8E23B2BCD4A9";
paths = (
{
closed = 1;
nodes = (
"1343 922 OFFCURVE",
"1346 938 OFFCURVE",
"1346 941 CURVE SMOOTH",
"1346 968 OFFCURVE",
"1336 991 OFFCURVE",
"1315 1010 CURVE SMOOTH",
"1294 1029 OFFCURVE",
"1270 1038 OFFCURVE",
"1242 1038 CURVE SMOOTH",
"1195 1038 OFFCURVE",
"1166 1018 OFFCURVE",
"1156 977 CURVE SMOOTH",
"1027 432 LINE",
"954 160 LINE",
"933 254 OFFCURVE",
"910 385 OFFCURVE",
"883 553 CURVE SMOOTH",
"857 715 OFFCURVE",
"835 835 OFFCURVE",
"818 913 CURVE SMOOTH",
"799 996 OFFCURVE",
"764 1037 OFFCURVE",
"711 1037 CURVE SMOOTH",
"656 1037 OFFCURVE",
"618 1000 OFFCURVE",
"596 926 CURVE SMOOTH",
"517 658 OFFCURVE",
"440 421 OFFCURVE",
"366 216 CURVE",
"307 665 LINE",
"292 812 LINE SMOOTH",
"287 870 OFFCURVE",
"280 919 OFFCURVE",
"271 958 CURVE SMOOTH",
"259 1013 OFFCURVE",
"228 1041 OFFCURVE",
"177 1041 CURVE SMOOTH",
"149 1041 OFFCURVE",
"125 1032 OFFCURVE",
"106 1014 CURVE SMOOTH",
"86 995 OFFCURVE",
"76 972 OFFCURVE",
"76 944 CURVE SMOOTH",
"76 903 OFFCURVE",
"80 853 OFFCURVE",
"89 793 CURVE SMOOTH",
"113 643 LINE SMOOTH",
"137 466 OFFCURVE",
"161 326 OFFCURVE",
"185 223 CURVE SMOOTH",
"232 22 OFFCURVE",
"281 -77 OFFCURVE",
"332 -75 CURVE SMOOTH",
"376 -74 OFFCURVE",
"408 -54 OFFCURVE",
"428 -15 CURVE",
"445 -2 OFFCURVE",
"457 18 OFFCURVE",
"466 43 CURVE SMOOTH",
"618 456 LINE",
"700 647 LINE",
"733 424 LINE SMOOTH",
"747 325 OFFCURVE",
"761 247 OFFCURVE",
"774 190 CURVE SMOOTH",
"815 11 OFFCURVE",
"871 -80 OFFCURVE",
"944 -81 CURVE SMOOTH",
"984 -82 OFFCURVE",
"1016 -64 OFFCURVE",
"1039 -29 CURVE SMOOTH",
"1082 35 OFFCURVE",
"1113 97 OFFCURVE",
"1132 158 CURVE SMOOTH",
"1216 432 OFFCURVE",
"1284 678 OFFCURVE",
"1336 895 CURVE SMOOTH"
);
}
);
width = 1401;
}
);
note = w;
unicode = 0077;
},
{
glyphname = x;
lastChange = "2018-09-24 13:43:15 +0000";
layers = (
{
hints = (
{
horizontal = 1;
place = "{-44, 1149}";
type = Stem;
},
{
place = "{61, 1090}";
type = Stem;
}
);
layerId = "10ADC4BD-3987-48B4-8AAC-8E23B2BCD4A9";
paths = (
{
closed = 1;
nodes = (
"1058 858 LINE",
"1120 922 OFFCURVE",
"1151 972 OFFCURVE",
"1151 1009 CURVE SMOOTH",
"1151 1034 OFFCURVE",
"1141 1057 OFFCURVE",
"1121 1076 CURVE SMOOTH",
"1101 1095 OFFCURVE",
"1078 1105 OFFCURVE",
"1052 1105 CURVE SMOOTH",
"1023 1105 OFFCURVE",
"997 1089 OFFCURVE",
"976 1058 CURVE SMOOTH",
"947 1015 OFFCURVE",
"892 955 OFFCURVE",
"811 878 CURVE SMOOTH",
"615 698 LINE",
"442 937 LINE SMOOTH",
"363 1040 OFFCURVE",
"303 1091 OFFCURVE",
"264 1091 CURVE SMOOTH",
"239 1091 OFFCURVE",
"218 1081 OFFCURVE",
"199 1060 CURVE SMOOTH",
"180 1039 OFFCURVE",
"170 1016 OFFCURVE",
"170 989 CURVE SMOOTH",
"170 962 OFFCURVE",
"183 938 OFFCURVE",
"208 915 CURVE SMOOTH",
"247 880 OFFCURVE",
"293 825 OFFCURVE",
"346 750 CURVE SMOOTH",
"477 561 LINE",
"264 338 LINE SMOOTH",
"249 323 OFFCURVE",
"219 295 OFFCURVE",
"173 254 CURVE SMOOTH",
"134 219 OFFCURVE",
"105 190 OFFCURVE",
"86 165 CURVE SMOOTH",
"69 144 OFFCURVE",
"61 123 OFFCURVE",
"61 102 CURVE SMOOTH",
"61 76 OFFCURVE",
"71 53 OFFCURVE",
"91 33 CURVE SMOOTH",
"110 13 OFFCURVE",
"133 3 OFFCURVE",
"158 3 CURVE SMOOTH",
"183 3 OFFCURVE",
"206 15 OFFCURVE",
"227 39 CURVE",
"302 114 OFFCURVE",
"360 169 OFFCURVE",
"399 204 CURVE",
"594 405 LINE",
"749 202 OFFCURVE",
"857 64 OFFCURVE",
"918 -7 CURVE SMOOTH",
"939 -32 OFFCURVE",
"962 -44 OFFCURVE",
"987 -44 CURVE SMOOTH",
"1012 -44 OFFCURVE",
"1035 -34 OFFCURVE",
"1055 -14 CURVE SMOOTH",
"1075 6 OFFCURVE",
"1085 29 OFFCURVE",
"1085 55 CURVE SMOOTH",
"1085 76 OFFCURVE",
"1077 97 OFFCURVE",
"1060 118 CURVE SMOOTH",
"734 544 LINE",
"912 721 LINE"
);
}
);
width = 1209;
}
);
note = x;
unicode = 0078;
},
{
glyphname = y;
lastChange = "2018-09-24 13:43:15 +0000";
layers = (
{
hints = (
{
horizontal = 1;
place = "{-579, 1619}";
type = Stem;
},
{
place = "{-4, 1028}";
type = Stem;
}
);
layerId = "10ADC4BD-3987-48B4-8AAC-8E23B2BCD4A9";
paths = (
{
closed = 1;
nodes = (
"1011 892 LINE SMOOTH",
"1020 911 OFFCURVE",
"1024 927 OFFCURVE",
"1024 942 CURVE SMOOTH",
"1024 969 OFFCURVE",
"1014 992 OFFCURVE",
"993 1011 CURVE SMOOTH",
"972 1030 OFFCURVE",
"947 1040 OFFCURVE",
"920 1040 CURVE SMOOTH",
"885 1040 OFFCURVE",
"857 1021 OFFCURVE",
"836 984 CURVE SMOOTH",
"787 898 OFFCURVE",
"735 795 OFFCURVE",
"682 676 CURVE SMOOTH",
"534 331 LINE",
"404 622 OFFCURVE",
"282 846 OFFCURVE",
"169 1003 CURVE SMOOTH",
"152 1026 OFFCURVE",
"129 1038 OFFCURVE",
"98 1038 CURVE SMOOTH",
"72 1038 OFFCURVE",
"49 1028 OFFCURVE",
"28 1007 CURVE SMOOTH",
"7 986 OFFCURVE",
"-4 962 OFFCURVE",
"-4 935 CURVE SMOOTH",
"-4 914 OFFCURVE",
"5 889 OFFCURVE",
"23 858 CURVE SMOOTH",
"68 785 LINE",
"426 96 LINE",
"282 -223 OFFCURVE",
"210 -416 OFFCURVE",
"210 -483 CURVE SMOOTH",
"210 -510 OFFCURVE",
"220 -533 OFFCURVE",
"241 -552 CURVE SMOOTH",
"261 -570 OFFCURVE",
"285 -579 OFFCURVE",
"313 -579 CURVE SMOOTH",
"356 -579 OFFCURVE",
"386 -555 OFFCURVE",
"403 -507 CURVE SMOOTH",
"469 -313 LINE SMOOTH",
"514 -190 OFFCURVE",
"580 -38 OFFCURVE",
"665 144 CURVE SMOOTH"
);
}
);
width = 1066;
}
);
note = y;
unicode = 0079;
},
{
glyphname = z;
lastChange = "2018-09-24 13:43:15 +0000";
layers = (
{
hints = (
{
horizontal = 1;
place = "{-32, 202}";
type = Stem;
},
{
horizontal = 1;
place = "{831, 202}";
type = Stem;
},
{
place = "{122, 918}";
type = Stem;
},
{
horizontal = 1;
place = "{-62, 202}";
type = Stem;
}
);
layerId = "10ADC4BD-3987-48B4-8AAC-8E23B2BCD4A9";
paths = (
{
closed = 1;
nodes = (
"1015 870 OFFCURVE",
"1040 928 OFFCURVE",
"1040 982 CURVE SMOOTH",
"1040 1029 OFFCURVE",
"1012 1052 OFFCURVE",
"955 1052 CURVE SMOOTH",
"910 1052 OFFCURVE",
"842 1049 OFFCURVE",
"751 1043 CURVE SMOOTH",
"660 1036 OFFCURVE",
"592 1033 OFFCURVE",
"547 1033 CURVE SMOOTH",
"513 1033 OFFCURVE",
"463 1037 OFFCURVE",
"397 1045 CURVE SMOOTH",
"331 1052 OFFCURVE",
"282 1056 OFFCURVE",
"249 1056 CURVE SMOOTH",
"222 1056 OFFCURVE",
"199 1046 OFFCURVE",
"181 1027 CURVE SMOOTH",
"163 1007 OFFCURVE",
"154 982 OFFCURVE",
"154 953 CURVE SMOOTH",
"154 896 OFFCURVE",
"184 863 OFFCURVE",
"243 854 CURVE SMOOTH",
"347 839 OFFCURVE",
"448 831 OFFCURVE",
"547 831 CURVE SMOOTH",
"587 831 OFFCURVE",
"651 834 OFFCURVE",
"740 839 CURVE",
"535 506 OFFCURVE",
"346 261 OFFCURVE",
"172 104 CURVE SMOOTH",
"139 73 OFFCURVE",
"122 41 OFFCURVE",
"122 8 CURVE SMOOTH",
"122 -49 OFFCURVE",
"154 -77 OFFCURVE",
"219 -77 CURVE SMOOTH",
"230 -77 OFFCURVE",
"242 -76 OFFCURVE",
"256 -73 CURVE SMOOTH",
"391 -46 OFFCURVE",
"533 -32 OFFCURVE",
"683 -32 CURVE SMOOTH",
"709 -32 OFFCURVE",
"748 -37 OFFCURVE",
"799 -47 CURVE SMOOTH",
"850 -57 OFFCURVE",
"889 -62 OFFCURVE",
"915 -62 CURVE SMOOTH",
"944 -62 OFFCURVE",
"968 -53 OFFCURVE",
"987 -34 CURVE SMOOTH",
"1005 -15 OFFCURVE",
"1014 9 OFFCURVE",
"1014 39 CURVE SMOOTH",
"1014 68 OFFCURVE",
"1005 93 OFFCURVE",
"987 112 CURVE SMOOTH",
"968 131 OFFCURVE",
"944 140 OFFCURVE",
"915 140 CURVE SMOOTH",
"889 140 OFFCURVE",
"850 145 OFFCURVE",
"799 155 CURVE SMOOTH",
"748 165 OFFCURVE",
"709 170 OFFCURVE",
"683 170 CURVE SMOOTH",
"631 170 OFFCURVE",
"570 168 OFFCURVE",
"500 165 CURVE",
"550 230 OFFCURVE",
"629 342 OFFCURVE",
"736 499 CURVE SMOOTH",
"829 634 OFFCURVE",
"905 738 OFFCURVE",
"964 809 CURVE SMOOTH"
);
}
);
width = 1102;
}
);
note = z;
unicode = 007A;
},
{
glyphname = braceleft;
lastChange = "2018-09-24 13:43:15 +0000";
layers = (
{
hints = (
{
horizontal = 1;
place = "{-384, 2000}";
type = Stem;
},
{
place = "{6, 691}";
type = Stem;
}
);
layerId = "10ADC4BD-3987-48B4-8AAC-8E23B2BCD4A9";
paths = (
{
closed = 1;
nodes = (
"286 543 OFFCURVE",
"312 504 OFFCURVE",
"337 457 CURVE SMOOTH",
"367 402 OFFCURVE",
"382 359 OFFCURVE",
"382 328 CURVE SMOOTH",
"382 306 OFFCURVE",
"379 273 OFFCURVE",
"374 229 CURVE SMOOTH",
"369 185 OFFCURVE",
"366 152 OFFCURVE",
"366 130 CURVE SMOOTH",
"366 74 OFFCURVE",
"379 10 OFFCURVE",
"405 -62 CURVE SMOOTH",
"438 -152 OFFCURVE",
"477 -197 OFFCURVE",
"523 -197 CURVE SMOOTH",
"578 -197 OFFCURVE",
"613 -200 OFFCURVE",
"628 -205 CURVE SMOOTH",
"662 -216 OFFCURVE",
"679 -244 OFFCURVE",
"679 -288 CURVE SMOOTH",
"679 -330 OFFCURVE",
"662 -358 OFFCURVE",
"628 -372 CURVE SMOOTH",
"607 -380 OFFCURVE",
"572 -384 OFFCURVE",
"523 -384 CURVE SMOOTH",
"416 -384 OFFCURVE",
"329 -323 OFFCURVE",
"262 -200 CURVE SMOOTH",
"207 -98 OFFCURVE",
"179 12 OFFCURVE",
"179 130 CURVE SMOOTH",
"179 148 OFFCURVE",
"182 175 OFFCURVE",
"187 212 CURVE SMOOTH",
"192 249 OFFCURVE",
"195 276 OFFCURVE",
"195 294 CURVE SMOOTH",
"195 349 OFFCURVE",
"164 399 OFFCURVE",
"101 444 CURVE SMOOTH",
"38 489 OFFCURVE",
"6 526 OFFCURVE",
"6 556 CURVE SMOOTH",
"6 591 OFFCURVE",
"33 633 OFFCURVE",
"88 684 CURVE SMOOTH",
"137 730 OFFCURVE",
"179 758 OFFCURVE",
"212 767 CURVE",
"212 795 LINE",
"209 994 LINE",
"204 1193 LINE",
"204 1404 OFFCURVE",
"270 1538 OFFCURVE",
"403 1596 CURVE SMOOTH",
"449 1615 OFFCURVE",
"493 1625 OFFCURVE",
"535 1625 CURVE SMOOTH",
"572 1625 OFFCURVE",
"607 1616 OFFCURVE",
"639 1598 CURVE SMOOTH",
"678 1577 OFFCURVE",
"697 1549 OFFCURVE",
"697 1514 CURVE SMOOTH",
"697 1478 OFFCURVE",
"673 1455 OFFCURVE",
"626 1444 CURVE",
"581 1438 OFFCURVE",
"548 1435 OFFCURVE",
"525 1434 CURVE",
"432 1424 OFFCURVE",
"385 1353 OFFCURVE",
"385 1222 CURVE SMOOTH",
"385 1193 OFFCURVE",
"387 1125 OFFCURVE",
"392 1018 CURVE SMOOTH",
"396 911 OFFCURVE",
"398 843 OFFCURVE",
"398 814 CURVE SMOOTH",
"398 774 OFFCURVE",
"384 729 OFFCURVE",
"357 679 CURVE SMOOTH",
"328 626 OFFCURVE",
"296 591 OFFCURVE",
"259 573 CURVE"
);
}
);
width = 750;
}
);
note = braceleft;
unicode = 007B;
},
{
glyphname = bar;
lastChange = "2018-09-24 13:43:15 +0000";
layers = (
{
hints = (
{
horizontal = 1;
place = "{-362, 2000}";
type = Stem;
},
{
place = "{353, 178}";
type = Stem;
}
);
layerId = "10ADC4BD-3987-48B4-8AAC-8E23B2BCD4A9";
paths = (
{
closed = 1;
nodes = (
"418 1715 OFFCURVE",
"396 1707 OFFCURVE",
"379 1690 CURVE SMOOTH",
"362 1673 OFFCURVE",
"353 1652 OFFCURVE",
"353 1626 CURVE SMOOTH",
"353 25 LINE SMOOTH",
"353 -156 OFFCURVE",
"357 -259 OFFCURVE",
"364 -286 CURVE SMOOTH",
"378 -337 OFFCURVE",
"405 -362 OFFCURVE",
"444 -362 CURVE SMOOTH",
"501 -362 OFFCURVE",
"530 -323 OFFCURVE",
"531 -245 CURVE SMOOTH",
"531 1626 LINE SMOOTH",
"531 1685 OFFCURVE",
"502 1715 OFFCURVE",
"445 1715 CURVE SMOOTH"
);
}
);
width = 863;
}
);
note = bar;
unicode = 007C;
},
{
glyphname = braceright;
lastChange = "2018-09-24 13:43:15 +0000";
layers = (
{
hints = (
{
horizontal = 1;
place = "{-384, 187}";
type = Stem;
},
{
place = "{305, 186}";
type = Stem;
},
{
place = "{321, 186}";
type = Stem;
},
{
place = "{337, 187}";
type = Stem;
},
{
place = "{318, 181}";
type = Stem;
}
);
layerId = "10ADC4BD-3987-48B4-8AAC-8E23B2BCD4A9";
paths = (
{
closed = 1;
nodes = (
"417 543 OFFCURVE",
"391 504 OFFCURVE",
"366 457 CURVE SMOOTH",
"336 402 OFFCURVE",
"321 359 OFFCURVE",
"321 328 CURVE SMOOTH",
"321 306 OFFCURVE",
"324 273 OFFCURVE",
"329 229 CURVE SMOOTH",
"334 185 OFFCURVE",
"337 152 OFFCURVE",
"337 130 CURVE SMOOTH",
"337 74 OFFCURVE",
"324 10 OFFCURVE",
"298 -62 CURVE SMOOTH",
"265 -152 OFFCURVE",
"226 -197 OFFCURVE",
"180 -197 CURVE SMOOTH",
"125 -197 OFFCURVE",
"90 -200 OFFCURVE",
"75 -205 CURVE SMOOTH",
"41 -216 OFFCURVE",
"24 -244 OFFCURVE",
"24 -288 CURVE SMOOTH",
"24 -330 OFFCURVE",
"41 -358 OFFCURVE",
"75 -372 CURVE SMOOTH",
"96 -380 OFFCURVE",
"131 -384 OFFCURVE",
"180 -384 CURVE SMOOTH",
"287 -384 OFFCURVE",
"374 -323 OFFCURVE",
"441 -200 CURVE SMOOTH",
"496 -98 OFFCURVE",
"524 12 OFFCURVE",
"524 130 CURVE SMOOTH",
"524 148 OFFCURVE",
"521 175 OFFCURVE",
"516 212 CURVE SMOOTH",
"510 249 OFFCURVE",
"507 276 OFFCURVE",
"507 294 CURVE SMOOTH",
"507 349 OFFCURVE",
"539 399 OFFCURVE",
"602 444 CURVE SMOOTH",
"665 489 OFFCURVE",
"697 526 OFFCURVE",
"697 556 CURVE SMOOTH",
"697 591 OFFCURVE",
"670 633 OFFCURVE",
"615 684 CURVE SMOOTH",
"566 730 OFFCURVE",
"524 758 OFFCURVE",
"491 767 CURVE",
"491 795 LINE",
"494 994 LINE",
"499 1193 LINE SMOOTH",
"499 1404 OFFCURVE",
"433 1538 OFFCURVE",
"300 1596 CURVE SMOOTH",
"254 1615 OFFCURVE",
"210 1625 OFFCURVE",
"168 1625 CURVE SMOOTH",
"131 1625 OFFCURVE",
"96 1616 OFFCURVE",
"64 1598 CURVE SMOOTH",
"25 1577 OFFCURVE",
"6 1549 OFFCURVE",
"6 1514 CURVE SMOOTH",
"6 1478 OFFCURVE",
"30 1455 OFFCURVE",
"77 1444 CURVE",
"122 1438 OFFCURVE",
"155 1435 OFFCURVE",
"178 1434 CURVE",
"271 1424 OFFCURVE",
"318 1353 OFFCURVE",
"318 1222 CURVE SMOOTH",
"318 1193 OFFCURVE",
"316 1125 OFFCURVE",
"312 1018 CURVE SMOOTH",
"307 911 OFFCURVE",
"305 843 OFFCURVE",
"305 814 CURVE SMOOTH",
"305 774 OFFCURVE",
"319 729 OFFCURVE",
"346 679 CURVE SMOOTH",
"375 626 OFFCURVE",
"407 591 OFFCURVE",
"444 573 CURVE"
);
}
);
width = 750;
}
);
note = braceright;
unicode = 007D;
},
{
glyphname = asciitilde;
lastChange = "2018-09-24 13:43:15 +0000";
layers = (
{
hints = (
{
horizontal = 1;
place = "{467, 183}";
type = Stem;
},
{
horizontal = 1;
place = "{756, 178}";
type = Stem;
},
{
place = "{100, 1042}";
type = Stem;
}
);
layerId = "10ADC4BD-3987-48B4-8AAC-8E23B2BCD4A9";
paths = (
{
closed = 1;
nodes = (
"392 934 OFFCURVE",
"320 903 OFFCURVE",
"251 841 CURVE SMOOTH",
"193 788 OFFCURVE",
"146 723 OFFCURVE",
"110 645 CURVE SMOOTH",
"103 630 OFFCURVE",
"100 616 OFFCURVE",
"100 603 CURVE SMOOTH",
"100 579 OFFCURVE",
"110 559 OFFCURVE",
"129 542 CURVE SMOOTH",
"148 525 OFFCURVE",
"169 516 OFFCURVE",
"193 516 CURVE SMOOTH",
"225 516 OFFCURVE",
"251 533 OFFCURVE",
"270 567 CURVE SMOOTH",
"343 693 OFFCURVE",
"409 756 OFFCURVE",
"467 756 CURVE SMOOTH",
"481 756 OFFCURVE",
"506 731 OFFCURVE",
"543 681 CURVE SMOOTH",
"590 617 OFFCURVE",
"631 571 OFFCURVE",
"666 542 CURVE SMOOTH",
"727 492 OFFCURVE",
"795 467 OFFCURVE",
"869 467 CURVE SMOOTH",
"943 467 OFFCURVE",
"1007 502 OFFCURVE",
"1062 572 CURVE SMOOTH",
"1116 640 OFFCURVE",
"1143 718 OFFCURVE",
"1142 806 CURVE",
"1142 831 OFFCURVE",
"1133 852 OFFCURVE",
"1116 869 CURVE SMOOTH",
"1099 885 OFFCURVE",
"1077 893 OFFCURVE",
"1052 893 CURVE SMOOTH",
"1011 893 OFFCURVE",
"977 852 OFFCURVE",
"952 770 CURVE SMOOTH",
"926 688 OFFCURVE",
"899 648 OFFCURVE",
"872 650 CURVE SMOOTH",
"825 654 OFFCURVE",
"779 681 OFFCURVE",
"735 730 CURVE",
"625 863 LINE",
"578 910 OFFCURVE",
"525 934 OFFCURVE",
"467 934 CURVE SMOOTH"
);
}
);
width = 1224;
}
);
note = asciitilde;
unicode = 007E;
},
{
glyphname = Adieresis;
lastChange = "2018-09-24 13:43:15 +0000";
layers = (
{
hints = (
{
horizontal = 1;
place = "{1645, 185}";
type = Stem;
},
{
place = "{131, 1221}";
type = Stem;
},
{
horizontal = 1;
place = "{1634, 188}";
type = Stem;
}
);
layerId = "10ADC4BD-3987-48B4-8AAC-8E23B2BCD4A9";
paths = (
{
closed = 1;
nodes = (
"1277 -30 OFFCURVE",
"1300 -20 OFFCURVE",
"1321 -1 CURVE SMOOTH",
"1342 18 OFFCURVE",
"1352 42 OFFCURVE",
"1352 71 CURVE SMOOTH",
"1352 89 OFFCURVE",
"1342 125 OFFCURVE",
"1323 179 CURVE SMOOTH",
"1266 337 LINE",
"1117 1032 LINE",
"1054 1368 LINE",
"1035 1441 OFFCURVE",
"999 1478 OFFCURVE",
"946 1478 CURVE SMOOTH",
"907 1478 OFFCURVE",
"809 1352 OFFCURVE",
"651 1099 CURVE SMOOTH",
"535 914 OFFCURVE",
"439 750 OFFCURVE",
"363 607 CURVE",
"298 592 OFFCURVE",
"265 557 OFFCURVE",
"265 503 CURVE SMOOTH",
"265 480 OFFCURVE",
"271 460 OFFCURVE",
"282 443 CURVE",
"181 232 OFFCURVE",
"131 110 OFFCURVE",
"131 78 CURVE SMOOTH",
"131 49 OFFCURVE",
"142 25 OFFCURVE",
"163 6 CURVE SMOOTH",
"184 -13 OFFCURVE",
"207 -23 OFFCURVE",
"234 -23 CURVE SMOOTH",
"271 -23 OFFCURVE",
"300 -4 OFFCURVE",
"321 33 CURVE",
"402 201 OFFCURVE",
"459 329 OFFCURVE",
"492 416 CURVE",
"758 471 LINE SMOOTH",
"868 495 OFFCURVE",
"957 512 OFFCURVE",
"1025 521 CURVE",
"1051 371 OFFCURVE",
"1073 266 OFFCURVE",
"1090 206 CURVE SMOOTH",
"1135 49 OFFCURVE",
"1189 -30 OFFCURVE",
"1250 -30 CURVE SMOOTH"
);
},
{
closed = 1;
nodes = (
"897 1113 LINE",
"978 727 LINE",
"814 698 OFFCURVE",
"692 673 OFFCURVE",
"611 652 CURVE"
);
},
{
closed = 1;
nodes = (
"678 1822 OFFCURVE",
"654 1813 OFFCURVE",
"629 1794 CURVE SMOOTH",
"604 1775 OFFCURVE",
"591 1756 OFFCURVE",
"591 1737 CURVE SMOOTH",
"591 1668 OFFCURVE",
"632 1634 OFFCURVE",
"714 1634 CURVE SMOOTH",
"737 1634 OFFCURVE",
"762 1642 OFFCURVE",
"789 1659 CURVE SMOOTH",
"818 1678 OFFCURVE",
"833 1697 OFFCURVE",
"833 1717 CURVE SMOOTH",
"833 1787 OFFCURVE",
"789 1822 OFFCURVE",
"702 1822 CURVE SMOOTH"
);
},
{
closed = 1;
nodes = (
"1189 1830 OFFCURVE",
"1155 1826 OFFCURVE",
"1138 1818 CURVE SMOOTH",
"1108 1805 OFFCURVE",
"1093 1775 OFFCURVE",
"1093 1729 CURVE SMOOTH",
"1093 1703 OFFCURVE",
"1105 1682 OFFCURVE",
"1129 1666 CURVE SMOOTH",
"1150 1652 OFFCURVE",
"1175 1645 OFFCURVE",
"1202 1645 CURVE SMOOTH",
"1297 1645 OFFCURVE",
"1345 1676 OFFCURVE",
"1345 1737 CURVE SMOOTH",
"1345 1757 OFFCURVE",
"1333 1778 OFFCURVE",
"1310 1799 CURVE SMOOTH",
"1287 1820 OFFCURVE",
"1264 1830 OFFCURVE",
"1241 1830 CURVE SMOOTH"
);
}
);
width = 1498;
}
);
note = Adieresis;
unicode = 00C4;
},
{
glyphname = Aring;
lastChange = "2018-09-24 13:43:15 +0000";
layers = (
{
hints = (
{
horizontal = 1;
place = "{1429, 49}";
type = Stem;
},
{
horizontal = 1;
place = "{1852, 149}";
type = Stem;
},
{
place = "{634, 150}";
type = Stem;
},
{
place = "{1158, 150}";
type = Stem;
}
);
layerId = "10ADC4BD-3987-48B4-8AAC-8E23B2BCD4A9";
paths = (
{
closed = 1;
nodes = (
"1277 -30 OFFCURVE",
"1300 -20 OFFCURVE",
"1321 -1 CURVE SMOOTH",
"1342 18 OFFCURVE",
"1352 42 OFFCURVE",
"1352 71 CURVE SMOOTH",
"1352 89 OFFCURVE",
"1342 125 OFFCURVE",
"1323 179 CURVE SMOOTH",
"1266 337 LINE",
"1117 1032 LINE",
"1054 1368 LINE",
"1035 1441 OFFCURVE",
"999 1478 OFFCURVE",
"946 1478 CURVE SMOOTH",
"907 1478 OFFCURVE",
"809 1352 OFFCURVE",
"651 1099 CURVE SMOOTH",
"535 914 OFFCURVE",
"439 750 OFFCURVE",
"363 607 CURVE",
"298 592 OFFCURVE",
"265 557 OFFCURVE",
"265 503 CURVE SMOOTH",
"265 480 OFFCURVE",
"271 460 OFFCURVE",
"282 443 CURVE",
"181 232 OFFCURVE",
"131 110 OFFCURVE",
"131 78 CURVE SMOOTH",
"131 49 OFFCURVE",
"142 25 OFFCURVE",
"163 6 CURVE SMOOTH",
"184 -13 OFFCURVE",
"207 -23 OFFCURVE",
"234 -23 CURVE SMOOTH",
"271 -23 OFFCURVE",
"300 -4 OFFCURVE",
"321 33 CURVE",
"402 201 OFFCURVE",
"459 329 OFFCURVE",
"492 416 CURVE",
"758 471 LINE SMOOTH",
"868 495 OFFCURVE",
"957 512 OFFCURVE",
"1025 521 CURVE",
"1051 371 OFFCURVE",
"1073 266 OFFCURVE",
"1090 206 CURVE SMOOTH",
"1135 49 OFFCURVE",
"1189 -30 OFFCURVE",
"1250 -30 CURVE SMOOTH"
);
},
{
closed = 1;
nodes = (
"897 1113 LINE",
"978 727 LINE",
"814 698 OFFCURVE",
"692 673 OFFCURVE",
"611 652 CURVE"
);
},
{
closed = 1;
nodes = (
"925 1575 OFFCURVE",
"885 1586 OFFCURVE",
"845 1610 CURVE SMOOTH",
"805 1634 OFFCURVE",
"785 1661 OFFCURVE",
"784 1692 CURVE SMOOTH",
"781 1799 OFFCURVE",
"852 1852 OFFCURVE",
"997 1852 CURVE SMOOTH",
"1038 1852 OFFCURVE",
"1074 1842 OFFCURVE",
"1104 1823 CURVE SMOOTH",
"1140 1801 OFFCURVE",
"1158 1771 OFFCURVE",
"1158 1732 CURVE SMOOTH",
"1158 1668 OFFCURVE",
"1136 1624 OFFCURVE",
"1091 1600 CURVE SMOOTH",
"1064 1586 OFFCURVE",
"1022 1578 OFFCURVE",
"965 1576 CURVE SMOOTH"
);
},
{
closed = 1;
nodes = (
"634 1619 OFFCURVE",
"664 1556 OFFCURVE",
"724 1505 CURVE SMOOTH",
"784 1453 OFFCURVE",
"859 1428 OFFCURVE",
"950 1429 CURVE SMOOTH",
"1069 1431 OFFCURVE",
"1159 1457 OFFCURVE",
"1219 1508 CURVE SMOOTH",
"1278 1559 OFFCURVE",
"1308 1633 OFFCURVE",
"1308 1732 CURVE SMOOTH",
"1308 1813 OFFCURVE",
"1276 1880 OFFCURVE",
"1211 1931 CURVE SMOOTH",
"1152 1978 OFFCURVE",
"1080 2001 OFFCURVE",
"997 2001 CURVE SMOOTH",
"890 2001 OFFCURVE",
"803 1974 OFFCURVE",
"737 1921 CURVE SMOOTH",
"668 1865 OFFCURVE",
"634 1789 OFFCURVE",
"634 1692 CURVE SMOOTH"
);
}
);
width = 1498;
}
);
note = Aring;
unicode = 00C5;
},
{
glyphname = Ccedilla;
lastChange = "2018-09-24 13:43:15 +0000";
layers = (
{
hints = (
{
horizontal = 1;
place = "{-407, 149}";
type = Stem;
},
{
horizontal = 1;
place = "{1286, 205}";
type = Stem;
},
{
place = "{90, 200}";
type = Stem;
},
{
place = "{642, 150}";
type = Stem;
}
);
layerId = "10ADC4BD-3987-48B4-8AAC-8E23B2BCD4A9";
paths = (
{
closed = 1;
nodes = (
"792 -93 OFFCURVE",
"774 -47 OFFCURVE",
"738 -2 CURVE",
"808 17 OFFCURVE",
"889 54 OFFCURVE",
"982 110 CURVE SMOOTH",
"1094 178 OFFCURVE",
"1150 238 OFFCURVE",
"1150 289 CURVE SMOOTH",
"1150 316 OFFCURVE",
"1140 341 OFFCURVE",
"1120 362 CURVE SMOOTH",
"1100 383 OFFCURVE",
"1076 394 OFFCURVE",
"1049 394 CURVE SMOOTH",
"1031 394 OFFCURVE",
"996 375 OFFCURVE",
"945 338 CURVE SMOOTH",
"876 289 OFFCURVE",
"823 255 OFFCURVE",
"787 236 CURVE SMOOTH",
"716 199 OFFCURVE",
"646 181 OFFCURVE",
"578 181 CURVE SMOOTH",
"496 181 OFFCURVE",
"427 214 OFFCURVE",
"371 280 CURVE SMOOTH",
"317 343 OFFCURVE",
"290 416 OFFCURVE",
"290 499 CURVE SMOOTH",
"290 676 OFFCURVE",
"370 865 OFFCURVE",
"530 1064 CURVE SMOOTH",
"648 1212 OFFCURVE",
"755 1286 OFFCURVE",
"852 1286 CURVE SMOOTH",
"906 1286 OFFCURVE",
"939 1283 OFFCURVE",
"952 1276 CURVE SMOOTH",
"969 1267 OFFCURVE",
"988 1241 OFFCURVE",
"1008 1197 CURVE SMOOTH",
"1030 1147 OFFCURVE",
"1062 1122 OFFCURVE",
"1104 1122 CURVE SMOOTH",
"1134 1122 OFFCURVE",
"1158 1133 OFFCURVE",
"1177 1156 CURVE SMOOTH",
"1194 1177 OFFCURVE",
"1203 1202 OFFCURVE",
"1203 1233 CURVE SMOOTH",
"1203 1315 OFFCURVE",
"1200 1373 OFFCURVE",
"1193 1407 CURVE SMOOTH",
"1178 1484 OFFCURVE",
"1147 1523 OFFCURVE",
"1100 1523 CURVE SMOOTH",
"1063 1523 OFFCURVE",
"1032 1506 OFFCURVE",
"1009 1472 CURVE",
"989 1479 OFFCURVE",
"966 1484 OFFCURVE",
"940 1487 CURVE SMOOTH",
"913 1490 OFFCURVE",
"884 1491 OFFCURVE",
"852 1491 CURVE SMOOTH",
"691 1491 OFFCURVE",
"531 1392 OFFCURVE",
"374 1194 CURVE SMOOTH",
"185 955 OFFCURVE",
"90 724 OFFCURVE",
"90 499 CURVE SMOOTH",
"90 396 OFFCURVE",
"114 304 OFFCURVE",
"162 225 CURVE SMOOTH",
"209 146 OFFCURVE",
"280 78 OFFCURVE",
"375 23 CURVE",
"536 -33 LINE SMOOTH",
"607 -60 OFFCURVE",
"642 -97 OFFCURVE",
"642 -142 CURVE SMOOTH",
"642 -219 OFFCURVE",
"570 -258 OFFCURVE",
"425 -258 CURVE SMOOTH",
"412 -258 OFFCURVE",
"393 -257 OFFCURVE",
"368 -256 CURVE SMOOTH",
"343 -255 OFFCURVE",
"324 -254 OFFCURVE",
"312 -254 CURVE SMOOTH",
"263 -254 OFFCURVE",
"239 -279 OFFCURVE",
"239 -329 CURVE SMOOTH",
"239 -381 OFFCURVE",
"282 -407 OFFCURVE",
"369 -407 CURVE SMOOTH",
"496 -407 OFFCURVE",
"590 -394 OFFCURVE",
"652 -367 CURVE SMOOTH",
"745 -327 OFFCURVE",
"792 -252 OFFCURVE",
"792 -142 CURVE SMOOTH"
);
}
);
width = 1234;
}
);
note = Ccedilla;
unicode = 00C7;
},
{
glyphname = Eacute;
lastChange = "2018-09-24 13:43:15 +0000";
layers = (
{
hints = (
{
horizontal = 1;
place = "{-99, 204}";
type = Stem;
},
{
horizontal = 1;
place = "{1399, 206}";
type = Stem;
},
{
place = "{140, 200}";
type = Stem;
},
{
place = "{179, 200}";
type = Stem;
},
{
place = "{151, 198}";
type = Stem;
}
);
layerId = "10ADC4BD-3987-48B4-8AAC-8E23B2BCD4A9";
paths = (
{
closed = 1;
nodes = (
"1144 1346 OFFCURVE",
"1168 1357 OFFCURVE",
"1187 1380 CURVE SMOOTH",
"1204 1401 OFFCURVE",
"1213 1424 OFFCURVE",
"1213 1451 CURVE SMOOTH",
"1213 1497 OFFCURVE",
"1191 1529 OFFCURVE",
"1146 1547 CURVE SMOOTH",
"1049 1586 OFFCURVE",
"920 1605 OFFCURVE",
"758 1605 CURVE SMOOTH",
"695 1605 OFFCURVE",
"629 1600 OFFCURVE",
"558 1589 CURVE SMOOTH",
"487 1578 OFFCURVE",
"411 1562 OFFCURVE",
"331 1541 CURVE",
"311 1560 OFFCURVE",
"287 1570 OFFCURVE",
"259 1570 CURVE SMOOTH",
"192 1570 OFFCURVE",
"159 1530 OFFCURVE",
"159 1451 CURVE SMOOTH",
"159 1426 OFFCURVE",
"162 1390 OFFCURVE",
"169 1343 CURVE SMOOTH",
"176 1295 OFFCURVE",
"179 1259 OFFCURVE",
"179 1234 CURVE SMOOTH",
"179 1142 OFFCURVE",
"172 1000 OFFCURVE",
"159 807 CURVE",
"146 789 OFFCURVE",
"140 769 OFFCURVE",
"140 746 CURVE SMOOTH",
"140 729 OFFCURVE",
"144 712 OFFCURVE",
"151 697 CURVE",
"148 638 OFFCURVE",
"145 584 OFFCURVE",
"143 533 CURVE SMOOTH",
"141 482 OFFCURVE",
"140 436 OFFCURVE",
"140 393 CURVE SMOOTH",
"140 179 OFFCURVE",
"172 42 OFFCURVE",
"236 -17 CURVE SMOOTH",
"295 -72 OFFCURVE",
"427 -99 OFFCURVE",
"634 -99 CURVE SMOOTH",
"843 -99 OFFCURVE",
"978 -93 OFFCURVE",
"1041 -80 CURVE SMOOTH",
"1098 -69 OFFCURVE",
"1126 -35 OFFCURVE",
"1126 21 CURVE SMOOTH",
"1126 90 OFFCURVE",
"1091 125 OFFCURVE",
"1020 125 CURVE SMOOTH",
"1007 125 OFFCURVE",
"988 123 OFFCURVE",
"962 119 CURVE",
"936 114 OFFCURVE",
"916 112 OFFCURVE",
"903 112 CURVE SMOOTH",
"861 112 OFFCURVE",
"799 111 OFFCURVE",
"716 109 CURVE SMOOTH",
"633 106 OFFCURVE",
"570 105 OFFCURVE",
"529 105 CURVE SMOOTH",
"440 105 OFFCURVE",
"388 114 OFFCURVE",
"372 133 CURVE SMOOTH",
"351 159 OFFCURVE",
"340 246 OFFCURVE",
"340 393 CURVE SMOOTH",
"340 430 OFFCURVE",
"341 469 OFFCURVE",
"343 512 CURVE SMOOTH",
"344 554 OFFCURVE",
"346 599 OFFCURVE",
"349 646 CURVE",
"811 688 LINE",
"1049 709 LINE SMOOTH",
"1110 716 OFFCURVE",
"1141 750 OFFCURVE",
"1141 811 CURVE SMOOTH",
"1141 842 OFFCURVE",
"1131 867 OFFCURVE",
"1111 886 CURVE SMOOTH",
"1091 905 OFFCURVE",
"1066 914 OFFCURVE",
"1037 914 CURVE SMOOTH",
"1008 914 OFFCURVE",
"929 907 OFFCURVE",
"800 894 CURVE SMOOTH",
"362 852 LINE",
"373 1014 OFFCURVE",
"379 1141 OFFCURVE",
"379 1234 CURVE SMOOTH",
"379 1260 OFFCURVE",
"376 1295 OFFCURVE",
"370 1338 CURVE",
"445 1359 OFFCURVE",
"514 1374 OFFCURVE",
"579 1384 CURVE SMOOTH",
"644 1394 OFFCURVE",
"703 1399 OFFCURVE",
"758 1399 CURVE SMOOTH",
"863 1399 OFFCURVE",
"971 1383 OFFCURVE",
"1084 1351 CURVE SMOOTH",
"1095 1348 OFFCURVE",
"1106 1346 OFFCURVE",
"1115 1346 CURVE SMOOTH"
);
},
{
closed = 1;
nodes = (
"768 1764 OFFCURVE",
"787 1772 OFFCURVE",
"806 1789 CURVE",
"847 1823 OFFCURVE",
"890 1871 OFFCURVE",
"935 1934 CURVE SMOOTH",
"978 1993 OFFCURVE",
"1023 2042 OFFCURVE",
"1070 2079 CURVE SMOOTH",
"1095 2099 OFFCURVE",
"1108 2122 OFFCURVE",
"1108 2149 CURVE SMOOTH",
"1108 2173 OFFCURVE",
"1099 2195 OFFCURVE",
"1081 2214 CURVE SMOOTH",
"1063 2233 OFFCURVE",
"1042 2242 OFFCURVE",
"1018 2242 CURVE SMOOTH",
"1001 2242 OFFCURVE",
"983 2236 OFFCURVE",
"965 2223 CURVE SMOOTH",
"911 2185 OFFCURVE",
"862 2137 OFFCURVE",
"818 2080 CURVE SMOOTH",
"759 2002 OFFCURVE",
"716 1949 OFFCURVE",
"687 1921 CURVE SMOOTH",
"666 1900 OFFCURVE",
"656 1879 OFFCURVE",
"656 1856 CURVE SMOOTH",
"656 1832 OFFCURVE",
"665 1811 OFFCURVE",
"684 1792 CURVE SMOOTH",
"702 1773 OFFCURVE",
"723 1764 OFFCURVE",
"747 1764 CURVE SMOOTH"
);
}
);
width = 1279;
}
);
note = Eacute;
unicode = 00C9;
},
